ply
format ascii 1.0
comment Created by Blender 2.78 (sub 0) - www.blender.org, source file: ''
element vertex 62
property float x
property float y
property float z
property float nx
property float ny
property float nz
property float s
property float t
property uchar red
property uchar green
property uchar blue
element face 22
property list uchar uint vertex_indices
end_header
0.001113 -0.372016 0.122996 -0.015351 -0.986785 0.161138 0.687128 0.734903 255 165 33
-0.215379 -0.254635 -0.018131 0.605457 -0.772423 -0.191687 0.647056 0.713176 255 165 33
0.219197 -0.253044 -0.018172 -0.589343 -0.779199 -0.213324 0.727495 0.712881 255 165 33
-0.215379 -0.254635 -0.018131 0.605457 -0.772423 -0.191687 0.803370 0.558166 54 0 255
-0.130827 0.229209 -0.030620 0.432905 0.901303 -0.014649 0.819020 0.647724 63 11 255
-0.605928 -0.656825 0.226597 -0.455702 -0.780419 0.428053 0.731080 0.483722 56 3 255
-0.130827 0.229209 -0.030620 0.432905 0.901303 -0.014649 0.767232 0.889060 54 0 255
-0.457512 -0.173292 -0.151435 -0.744896 0.615284 -0.257912 0.789595 0.949528 55 2 255
-0.605928 -0.656825 0.226597 -0.455702 -0.780419 0.428053 0.719622 0.977000 54 0 255
-0.130827 0.229209 -0.030620 0.432905 0.901303 -0.014649 0.581876 0.736858 54 0 255
-0.215379 -0.254635 -0.018131 0.605457 -0.772423 -0.191687 0.566226 0.826416 54 0 255
-0.457512 -0.173292 -0.151435 -0.744896 0.615284 -0.257912 0.521408 0.811360 54 0 255
-0.457512 -0.173292 -0.151435 -0.744896 0.615284 -0.257912 0.533119 0.828372 54 0 255
-0.215379 -0.254635 -0.018131 0.605457 -0.772423 -0.191687 0.577937 0.843428 54 0 255
-0.605928 -0.656825 0.226597 -0.455702 -0.780419 0.428053 0.505647 0.917873 54 0 255
-0.457512 -0.173292 -0.151435 -0.744896 0.615284 -0.257912 0.866665 0.826555 255 255 255
-0.215379 -0.254635 -0.018131 0.605457 -0.772423 -0.191687 0.911483 0.801881 255 255 255
-0.301224 -0.205711 -0.276743 0.468551 0.469222 -0.748497 0.895593 0.849749 255 255 255
0.219197 -0.253044 -0.018172 -0.589343 -0.779199 -0.213324 0.825057 0.558461 54 0 255
0.605928 -0.656825 0.226597 0.452925 -0.781884 0.428297 0.870363 0.483722 54 0 255
0.134193 0.229209 -0.030673 -0.430952 0.902249 -0.014588 0.822743 0.647724 54 0 255
0.134193 0.229209 -0.030673 -0.430952 0.902249 -0.014588 0.840763 0.976377 54 0 255
0.605928 -0.656825 0.226597 0.452925 -0.781884 0.428297 0.793144 0.889060 54 0 255
0.457512 -0.173292 -0.151435 0.744011 0.615558 -0.259804 0.863116 0.916531 54 0 255
0.457512 -0.173292 -0.151435 0.744011 0.615558 -0.259804 0.716450 0.963562 54 0 255
0.219197 -0.253044 -0.018172 -0.589343 -0.779199 -0.213324 0.672338 0.978323 54 0 255
0.134193 0.229209 -0.030673 -0.430952 0.902249 -0.014588 0.656604 0.889060 54 0 255
0.457512 -0.173292 -0.151435 0.744011 0.615558 -0.259804 0.625285 0.883059 58 5 255
0.605928 -0.656825 0.226597 0.452925 -0.781884 0.428297 0.652756 0.972560 54 0 255
0.219197 -0.253044 -0.018172 -0.589343 -0.779199 -0.213324 0.581174 0.897821 54 0 255
0.301224 -0.205711 -0.276743 -0.473617 0.465957 -0.747337 0.930543 0.835986 255 255 255
0.219197 -0.253044 -0.018172 -0.589343 -0.779199 -0.213324 0.915361 0.788125 255 255 255
0.457512 -0.173292 -0.151435 0.744011 0.615558 -0.259804 0.959472 0.812791 255 255 255
-0.301224 -0.205711 -0.276743 0.468551 0.469222 -0.748497 0.959683 0.489722 255 255 255
-0.762492 -0.985007 -0.313925 -0.481185 -0.857845 -0.180303 0.874303 0.633968 255 255 255
-0.457512 -0.173292 -0.151435 -0.744896 0.615284 -0.257912 0.930754 0.483722 255 255 255
-0.301224 -0.205711 -0.276743 0.468551 0.469222 -0.748497 0.649513 0.736858 176 164 168
-0.215379 -0.254635 -0.018131 0.605457 -0.772423 -0.191687 0.697382 0.745914 176 164 168
-0.762492 -0.985007 -0.313925 -0.481185 -0.857845 -0.180303 0.642631 0.881104 176 164 168
-0.762492 -0.985007 -0.313925 -0.481185 -0.857845 -0.180303 0.892341 0.635923 179 167 171
-0.215379 -0.254635 -0.018131 0.605457 -0.772423 -0.191687 0.993610 0.771113 176 165 169
-0.457512 -0.173292 -0.151435 -0.744896 0.615284 -0.257912 0.948792 0.786169 176 164 168
0.001113 -0.372016 0.122996 -0.015351 -0.986785 0.161138 0.474469 0.009653 255 255 255
0.219197 -0.253044 -0.018172 -0.589343 -0.779199 -0.213324 0.548450 0.122690 255 255 255
0.012398 -0.213513 0.313925 0.025086 -0.204840 0.978454 0.307351 0.080678 255 255 255
0.012398 -0.213513 0.313925 0.025086 -0.204840 0.978454 0.252763 0.082693 255 255 255
-0.215379 -0.254635 -0.018131 0.605457 -0.772423 -0.191687 0.012270 0.122925 255 255 255
0.001113 -0.372016 0.122996 -0.015351 -0.986785 0.161138 0.086477 0.011623 255 255 255
0.001113 0.985007 -0.050108 -0.003479 0.993255 -0.115757 0.247367 0.995500 255 255 255
0.001113 0.985007 -0.050108 -0.003479 0.993255 -0.115757 0.310909 0.997262 255 255 255
0.219197 -0.253044 -0.018172 -0.589343 -0.779199 -0.213324 0.727495 0.712881 255 255 255
-0.215379 -0.254635 -0.018131 0.605457 -0.772423 -0.191687 0.647056 0.713176 255 255 255
0.001113 0.985007 -0.050108 -0.003479 0.993255 -0.115757 0.687128 0.483722 255 255 255
0.301224 -0.205711 -0.276743 -0.473617 0.465957 -0.747337 0.803956 0.655680 255 255 255
0.457512 -0.173292 -0.151435 0.744011 0.615558 -0.259804 0.832884 0.649680 255 255 255
0.762492 -0.985007 -0.313925 0.479934 -0.858547 -0.180364 0.889335 0.799926 255 255 255
0.301224 -0.205711 -0.276743 -0.473617 0.465957 -0.747337 0.591765 0.881104 176 164 168
0.762492 -0.985007 -0.313925 0.479934 -0.858547 -0.180364 0.584882 0.736858 176 164 168
0.219197 -0.253044 -0.018172 -0.589343 -0.779199 -0.213324 0.639625 0.872342 176 164 168
0.762492 -0.985007 -0.313925 0.479934 -0.858547 -0.180364 0.800950 0.736858 176 164 168
0.457512 -0.173292 -0.151435 0.744011 0.615558 -0.259804 0.744499 0.887104 176 164 168
0.219197 -0.253044 -0.018172 -0.589343 -0.779199 -0.213324 0.700387 0.872342 181 170 174
3 0 1 2
3 3 4 5
3 6 7 8
3 9 10 11
3 12 13 14
3 15 16 17
3 18 19 20
3 21 22 23
3 24 25 26
3 27 28 29
3 30 31 32
3 33 34 35
3 36 37 38
3 39 40 41
3 42 43 44
3 45 46 47
3 48 46 45
3 43 49 44
3 50 51 52
3 53 54 55
3 56 57 58
3 59 60 61
