ply
format ascii 1.0
comment Created by Blender 2.78 (sub 0) - www.blender.org, source file: 'starfox.blend'
element vertex 66
property float x
property float y
property float z
property float nx
property float ny
property float nz
property float s
property float t
property uchar red
property uchar green
property uchar blue
element face 22
property list uchar uint vertex_indices
end_header
0.001113 -0.372016 0.122996 0.002746 -0.766744 -0.641947 0.687128 0.734903 255 217 123
-0.215379 -0.254635 -0.018131 0.002746 -0.766744 -0.641947 0.647056 0.713176 255 217 123
0.219197 -0.253044 -0.018172 0.002746 -0.766744 -0.641947 0.727495 0.712881 255 217 123
-0.215379 -0.254635 -0.018131 0.588527 -0.082086 0.804300 0.126629 0.440319 0 40 255
-0.130827 0.229209 -0.030620 0.588527 -0.082086 0.804300 0.085241 0.000134 0 40 255
-0.605928 -0.656825 0.226597 0.588527 -0.082086 0.804300 0.000134 0.995982 0 40 255
-0.130827 0.229209 -0.030620 -0.774132 0.519927 0.361103 0.085241 0.000134 24 41 148
-0.457512 -0.173292 -0.151435 -0.774132 0.519927 0.361103 0.019143 0.440319 22 38 140
-0.605928 -0.656825 0.226597 -0.774132 0.519927 0.361103 0.000134 0.995982 24 41 148
-0.130827 0.229209 -0.030620 0.453233 -0.102059 -0.885530 0.085241 0.000134 0 40 255
-0.215379 -0.254635 -0.018131 0.453233 -0.102059 -0.885530 0.126629 0.440319 0 40 255
-0.457512 -0.173292 -0.151435 0.453233 -0.102059 -0.885530 0.019143 0.440319 0 40 255
-0.457512 -0.173292 -0.151435 0.193933 -0.640479 -0.743086 0.019143 0.440319 0 40 255
-0.215379 -0.254635 -0.018131 0.193933 -0.640479 -0.743086 0.126629 0.440319 0 40 255
-0.605928 -0.656825 0.226597 0.193933 -0.640479 -0.743086 0.000134 0.995982 0 40 255
-0.457512 -0.173292 -0.151435 0.271730 0.958057 0.091046 0.338576 0.000134 178 177 182
-0.215379 -0.254635 -0.018131 0.271730 0.958057 0.091046 0.338576 0.516271 178 177 182
-0.301224 -0.205711 -0.276743 0.271730 0.958057 0.091046 0.249921 0.300609 178 177 182
0.219197 -0.253044 -0.018172 -0.594033 -0.083969 0.800046 0.126897 0.441143 0 40 255
0.605928 -0.656825 0.226596 -0.594033 -0.083969 0.800046 0.249653 0.999866 0 40 255
0.134193 0.229209 -0.030673 -0.594033 -0.083969 0.800046 0.171264 0.000134 0 40 255
0.134193 0.229209 -0.030673 0.777665 0.517633 0.356782 0.171264 0.000134 14 24 104
0.605928 -0.656825 0.226596 0.777665 0.517633 0.356782 0.249653 0.999866 14 24 104
0.457512 -0.173292 -0.151435 0.777665 0.517633 0.356782 0.232835 0.441143 14 24 104
0.457512 -0.173292 -0.151435 -0.458759 -0.103738 -0.882484 0.232835 0.441143 0 40 255
0.219197 -0.253044 -0.018172 -0.458759 -0.103738 -0.882484 0.126897 0.441143 0 40 255
0.134193 0.229209 -0.030673 -0.458759 -0.103738 -0.882484 0.171264 0.000134 0 40 255
0.457512 -0.173292 -0.151435 -0.199996 -0.640838 -0.741167 0.232835 0.441143 0 40 255
0.605928 -0.656825 0.226596 -0.199996 -0.640838 -0.741167 0.249653 0.999866 0 40 255
0.219197 -0.253044 -0.018172 -0.199996 -0.640838 -0.741167 0.126897 0.441143 0 40 255
0.301224 -0.205711 -0.276743 -0.270658 0.958497 0.089598 0.643169 0.296711 178 177 182
0.219197 -0.253044 -0.018172 -0.270658 0.958497 0.089598 0.554267 0.509822 178 177 182
0.457512 -0.173292 -0.151435 -0.270658 0.958497 0.089598 0.554267 0.000134 178 177 182
-0.301224 -0.205711 -0.276743 -0.538745 0.355332 -0.763867 0.249921 0.300609 211 211 214
-0.762492 -0.985006 -0.313926 -0.538745 0.355332 -0.763867 0.445862 0.250427 211 211 214
-0.457512 -0.173292 -0.151435 -0.538745 0.355332 -0.763867 0.338576 0.000134 211 211 214
-0.301224 -0.205711 -0.276743 0.811241 -0.463148 -0.356906 0.249921 0.300609 255 255 255
-0.215379 -0.254635 -0.018131 0.811241 -0.463148 -0.356906 0.338576 0.516271 255 255 255
-0.762492 -0.985006 -0.313926 0.811241 -0.463148 -0.356906 0.445862 0.250427 255 255 255
-0.762492 -0.985006 -0.313926 -0.480936 0.005191 0.876740 0.445862 0.250427 255 255 255
-0.215379 -0.254635 -0.018131 -0.480936 0.005191 0.876740 0.338576 0.516271 255 255 255
-0.457512 -0.173292 -0.151435 -0.480936 0.005191 0.876740 0.338576 0.000134 213 215 229
0.001113 -0.372016 0.122996 0.637297 -0.611021 0.469581 0.474469 0.009653 191 191 192
0.219197 -0.253044 -0.018172 0.637297 -0.611021 0.469581 0.548450 0.122690 191 191 192
0.012398 -0.213513 0.313925 0.637297 -0.611021 0.469581 0.307351 0.080678 191 191 192
0.012398 -0.213513 0.313925 -0.642687 -0.570375 0.511493 0.252763 0.082693 191 191 192
-0.215379 -0.254635 -0.018131 -0.642687 -0.570375 0.511493 0.012270 0.122925 191 191 192
0.001113 -0.372016 0.122996 -0.642687 -0.570375 0.511493 0.086477 0.011623 191 191 192
0.001113 0.985007 -0.050107 -0.823306 0.157846 0.545208 0.247367 0.995500 178 177 182
-0.215379 -0.254635 -0.018131 -0.823306 0.157846 0.545208 0.012270 0.122925 178 177 182
0.012398 -0.213513 0.313925 -0.823306 0.157846 0.545208 0.252763 0.082693 178 177 182
0.219197 -0.253044 -0.018172 0.846184 0.162150 0.507622 0.548450 0.122690 178 177 182
0.001113 0.985007 -0.050107 0.846184 0.162150 0.507622 0.310909 0.997262 178 177 182
0.012398 -0.213513 0.313925 0.846184 0.162150 0.507622 0.307351 0.080678 178 177 182
0.219197 -0.253044 -0.018172 -0.000000 -0.025786 -0.999667 0.727495 0.712881 211 211 214
-0.215379 -0.254635 -0.018131 -0.000000 -0.025786 -0.999667 0.647056 0.713176 211 211 214
0.001113 0.985007 -0.050107 -0.000000 -0.025786 -0.999667 0.687128 0.483722 211 211 214
0.301224 -0.205711 -0.276743 0.538744 0.355331 -0.763868 0.643169 0.296711 211 211 214
0.457512 -0.173292 -0.151435 0.538744 0.355331 -0.763868 0.554267 0.000134 211 211 214
0.762492 -0.985007 -0.313926 0.538744 0.355331 -0.763868 0.446130 0.246325 211 211 214
0.301224 -0.205711 -0.276743 -0.815160 -0.466086 -0.343915 0.643169 0.296711 255 255 255
0.762492 -0.985007 -0.313926 -0.815160 -0.466086 -0.343915 0.446130 0.246325 255 255 255
0.219197 -0.253044 -0.018172 -0.815160 -0.466086 -0.343915 0.554267 0.509822 255 255 255
0.762492 -0.985007 -0.313926 0.486086 0.007699 0.873877 0.446130 0.246325 255 255 255
0.457512 -0.173292 -0.151435 0.486086 0.007699 0.873877 0.554267 0.000134 255 255 255
0.219197 -0.253044 -0.018172 0.486086 0.007699 0.873877 0.554267 0.509822 255 255 255
3 0 1 2
3 3 4 5
3 6 7 8
3 9 10 11
3 12 13 14
3 15 16 17
3 18 19 20
3 21 22 23
3 24 25 26
3 27 28 29
3 30 31 32
3 33 34 35
3 36 37 38
3 39 40 41
3 42 43 44
3 45 46 47
3 48 49 50
3 51 52 53
3 54 55 56
3 57 58 59
3 60 61 62
3 63 64 65
