ply
format ascii 1.0
comment Created by Blender 2.78 (sub 0) - www.blender.org, source file: 'ring.blend'
element vertex 194
property float x
property float y
property float z
property float nx
property float ny
property float nz
property float s
property float t
property uchar red
property uchar green
property uchar blue
element face 72
property list uchar uint vertex_indices
end_header
-0.249344 0.000000 -0.433107 -0.089712 0.938345 -0.333856 0.000000 0.000000 255 234 47
0.000000 0.029155 -0.418166 -0.089712 0.938345 -0.333856 1.000000 0.000000 255 234 47
0.000000 0.000000 -0.500109 -0.089712 0.938345 -0.333856 1.000000 1.000000 254 233 48
-0.208488 0.029155 -0.362142 0.259507 0.000000 0.965741 0.000000 0.000000 255 234 47
0.000000 -0.029155 -0.418166 0.259507 0.000000 0.965741 1.000000 0.000000 255 234 47
0.000000 0.029155 -0.418166 0.259507 0.000000 0.965741 1.000000 1.000000 255 234 47
0.000000 -0.029155 -0.418166 -0.089712 -0.938345 -0.333856 0.000000 0.000000 255 234 47
-0.249344 0.000000 -0.433107 -0.089712 -0.938345 -0.333856 1.000000 0.000000 255 234 47
0.000000 0.000000 -0.500109 -0.089712 -0.938345 -0.333856 1.000000 1.000000 255 234 47
-0.431876 0.000000 -0.250055 -0.245060 0.938207 -0.244363 0.000000 0.000000 255 234 47
-0.208488 0.029155 -0.362142 -0.245060 0.938207 -0.244363 1.000000 0.000000 255 234 47
-0.249344 0.000000 -0.433107 -0.245060 0.938207 -0.244363 1.000000 1.000000 255 234 47
-0.361113 0.029155 -0.209083 0.708113 -0.000000 0.706099 0.000000 0.000000 255 234 47
-0.208488 -0.029155 -0.362142 0.708113 -0.000000 0.706099 1.000000 0.000000 255 234 47
-0.208488 0.029155 -0.362142 0.708113 -0.000000 0.706099 1.000000 1.000000 255 234 47
-0.208488 -0.029155 -0.362142 -0.245060 -0.938207 -0.244363 0.000000 0.000000 255 234 47
-0.431876 0.000000 -0.250055 -0.245060 -0.938207 -0.244363 1.000000 0.000000 255 234 47
-0.249344 0.000000 -0.433107 -0.245060 -0.938207 -0.244363 1.000000 1.000000 255 234 47
-0.498687 0.000000 -0.000000 -0.334709 0.938068 -0.089430 0.000000 0.000000 255 234 47
-0.361113 0.029155 -0.209083 -0.334709 0.938068 -0.089430 1.000000 0.000000 255 234 47
-0.431876 0.000000 -0.250055 -0.334709 0.938068 -0.089430 1.000000 1.000000 255 234 47
-0.416977 0.029155 -0.000000 0.966110 0.000000 0.258132 0.000000 0.000000 255 234 47
-0.361113 -0.029155 -0.209083 0.966110 0.000000 0.258132 1.000000 0.000000 255 234 47
-0.361113 0.029155 -0.209083 0.966110 0.000000 0.258132 1.000000 1.000000 255 234 47
-0.416977 -0.029155 -0.000000 -0.334709 -0.938068 -0.089430 0.000000 0.000000 255 234 47
-0.431876 0.000000 -0.250055 -0.334709 -0.938068 -0.089430 1.000000 0.000000 255 234 47
-0.361113 -0.029155 -0.209083 -0.334709 -0.938068 -0.089430 1.000000 1.000000 255 234 47
-0.498687 0.000000 -0.000000 -0.334710 0.938068 0.089430 0.000000 0.000000 255 234 47
-0.361113 0.029155 0.209083 -0.334710 0.938068 0.089430 1.000000 0.000000 255 234 47
-0.416977 0.029155 -0.000000 -0.334710 0.938068 0.089430 1.000000 1.000000 255 234 47
-0.361113 0.029155 0.209083 0.966110 0.000000 -0.258132 0.000000 0.000000 255 234 47
-0.416977 -0.029155 -0.000000 0.966110 0.000000 -0.258132 1.000000 0.000000 255 234 47
-0.416977 0.029155 -0.000000 0.966110 0.000000 -0.258132 1.000000 1.000000 255 234 47
-0.361113 -0.029155 0.209083 -0.334710 -0.938068 0.089430 0.000000 0.000000 255 234 47
-0.498687 0.000000 -0.000000 -0.334710 -0.938068 0.089430 1.000000 0.000000 255 234 47
-0.416977 -0.029155 -0.000000 -0.334710 -0.938068 0.089430 1.000000 1.000000 255 234 47
-0.249344 0.000000 0.433107 -0.245060 0.938207 0.244363 0.000000 0.000000 255 224 54
-0.361113 0.029155 0.209083 -0.245060 0.938207 0.244363 1.000000 0.000000 255 234 47
-0.431876 0.000000 0.250055 -0.245060 0.938207 0.244363 1.000000 1.000000 255 234 47
-0.208489 0.029155 0.362142 0.708113 0.000000 -0.706099 0.000000 0.000000 255 234 47
-0.361113 -0.029155 0.209083 0.708113 0.000000 -0.706099 1.000000 0.000000 255 232 48
-0.361113 0.029155 0.209083 0.708113 0.000000 -0.706099 1.000000 1.000000 255 234 47
-0.361113 -0.029155 0.209083 -0.245060 -0.938207 0.244364 0.000000 0.000000 255 234 47
-0.249344 0.000000 0.433107 -0.245060 -0.938207 0.244364 1.000000 0.000000 255 234 47
-0.431876 0.000000 0.250055 -0.245060 -0.938207 0.244364 1.000000 1.000000 255 236 58
-0.000000 0.000000 0.500109 -0.089712 0.938345 0.333856 0.000000 0.000000 255 234 47
-0.208489 0.029155 0.362142 -0.089712 0.938345 0.333856 1.000000 0.000000 255 234 47
-0.249344 0.000000 0.433107 -0.089712 0.938345 0.333856 1.000000 1.000000 248 227 59
-0.000000 0.029155 0.418166 0.259507 0.000000 -0.965741 0.000000 0.000000 255 234 47
-0.208489 -0.029155 0.362142 0.259507 0.000000 -0.965741 1.000000 0.000000 255 234 47
-0.208489 0.029155 0.362142 0.259507 0.000000 -0.965741 1.000000 1.000000 255 234 47
-0.000000 -0.029155 0.418166 -0.089712 -0.938345 0.333856 0.000000 0.000000 255 234 47
-0.249344 0.000000 0.433107 -0.089712 -0.938345 0.333856 1.000000 0.000000 255 234 47
-0.208489 -0.029155 0.362142 -0.089712 -0.938345 0.333856 1.000000 1.000000 255 234 47
0.249344 0.000000 0.433107 0.089712 0.938345 0.333856 0.000000 0.000000 255 234 47
-0.000000 0.029155 0.418166 0.089712 0.938345 0.333856 1.000000 0.000000 255 234 47
-0.000000 0.000000 0.500109 0.089712 0.938345 0.333856 1.000000 1.000000 255 234 47
0.208488 0.029155 0.362142 -0.259507 -0.000000 -0.965741 0.000000 0.000000 255 0 132
-0.000000 -0.029155 0.418166 -0.259507 -0.000000 -0.965741 1.000000 0.000000 255 0 132
-0.000000 0.029155 0.418166 -0.259507 -0.000000 -0.965741 1.000000 1.000000 255 0 132
0.208488 -0.029155 0.362142 0.089711 -0.938345 0.333856 0.000000 0.000000 255 234 47
-0.000000 0.000000 0.500109 0.089711 -0.938345 0.333856 1.000000 0.000000 255 234 47
-0.000000 -0.029155 0.418166 0.089711 -0.938345 0.333856 1.000000 1.000000 255 234 47
0.431876 0.000000 0.250055 0.245061 0.938207 0.244364 0.000000 0.000000 255 234 47
0.208488 0.029155 0.362142 0.245061 0.938207 0.244364 1.000000 0.000000 255 234 47
0.249344 0.000000 0.433107 0.245061 0.938207 0.244364 1.000000 1.000000 255 234 47
0.361113 0.029155 0.209083 -0.708113 -0.000000 -0.706099 0.000000 0.000000 255 234 47
0.208488 -0.029155 0.362142 -0.708113 -0.000000 -0.706099 1.000000 0.000000 255 234 47
0.208488 0.029155 0.362142 -0.708113 -0.000000 -0.706099 1.000000 1.000000 255 234 47
0.361113 -0.029155 0.209083 0.245061 -0.938207 0.244364 0.000000 0.000000 255 234 47
0.249344 0.000000 0.433107 0.245061 -0.938207 0.244364 1.000000 0.000000 255 234 47
0.208488 -0.029155 0.362142 0.245061 -0.938207 0.244364 1.000000 1.000000 255 234 47
0.498687 0.000000 -0.000000 0.334709 0.938068 0.089430 0.000000 0.000000 255 223 53
0.361113 0.029155 0.209083 0.334709 0.938068 0.089430 1.000000 0.000000 255 233 48
0.431876 0.000000 0.250055 0.334709 0.938068 0.089430 1.000000 1.000000 255 234 47
0.416977 0.029155 -0.000000 -0.966110 -0.000000 -0.258132 0.000000 0.000000 255 234 47
0.361113 -0.029155 0.209083 -0.966110 -0.000000 -0.258132 1.000000 0.000000 255 234 47
0.361113 0.029155 0.209083 -0.966110 -0.000000 -0.258132 1.000000 1.000000 255 234 47
0.361113 -0.029155 0.209083 0.334710 -0.938068 0.089430 0.000000 0.000000 255 234 47
0.498687 0.000000 -0.000000 0.334710 -0.938068 0.089430 1.000000 0.000000 255 235 48
0.431876 0.000000 0.250055 0.334710 -0.938068 0.089430 1.000000 1.000000 255 234 47
0.498687 0.000000 -0.000000 0.334709 0.938068 -0.089430 0.000000 0.000000 248 227 60
0.361113 0.029155 -0.209083 0.334709 0.938068 -0.089430 1.000000 0.000000 255 234 47
0.416977 0.029155 -0.000000 0.334709 0.938068 -0.089430 1.000000 1.000000 255 234 47
0.361113 0.029155 -0.209083 -0.966110 0.000000 0.258132 0.000000 0.000000 255 234 47
0.416977 -0.029155 -0.000000 -0.966110 0.000000 0.258132 1.000000 0.000000 255 234 47
0.416977 0.029155 -0.000000 -0.966110 0.000000 0.258132 1.000000 1.000000 255 234 47
0.361113 -0.029155 -0.209083 0.334709 -0.938068 -0.089430 0.000000 0.000000 255 234 47
0.498687 0.000000 -0.000000 0.334709 -0.938068 -0.089430 1.000000 0.000000 255 235 48
0.416977 -0.029155 -0.000000 0.334709 -0.938068 -0.089430 1.000000 1.000000 255 234 47
0.431876 0.000000 -0.250055 0.245061 0.938207 -0.244364 0.000000 0.000000 255 234 47
0.208488 0.029155 -0.362142 0.245061 0.938207 -0.244364 1.000000 0.000000 255 234 47
0.361113 0.029155 -0.209083 0.245061 0.938207 -0.244364 1.000000 1.000000 255 234 47
0.208488 0.029155 -0.362142 -0.708113 0.000000 0.706099 0.000000 0.000000 255 234 47
0.361113 -0.029155 -0.209083 -0.708113 0.000000 0.706099 1.000000 0.000000 255 234 47
0.361113 0.029155 -0.209083 -0.708113 0.000000 0.706099 1.000000 1.000000 255 234 47
0.208488 -0.029155 -0.362142 0.245060 -0.938207 -0.244363 0.000000 0.000000 255 234 47
0.431876 0.000000 -0.250055 0.245060 -0.938207 -0.244363 1.000000 0.000000 255 234 47
0.361113 -0.029155 -0.209083 0.245060 -0.938207 -0.244363 1.000000 1.000000 255 234 47
0.249344 0.000000 -0.433107 0.089712 0.938345 -0.333856 0.000000 0.000000 255 234 47
0.000000 0.029155 -0.418166 0.089712 0.938345 -0.333856 1.000000 0.000000 255 234 47
0.208488 0.029155 -0.362142 0.089712 0.938345 -0.333856 1.000000 1.000000 255 234 47
0.000000 0.029155 -0.418166 -0.259507 0.000000 0.965741 0.000000 0.000000 255 234 47
0.208488 -0.029155 -0.362142 -0.259507 0.000000 0.965741 1.000000 0.000000 255 234 47
0.208488 0.029155 -0.362142 -0.259507 0.000000 0.965741 1.000000 1.000000 255 234 47
0.000000 -0.029155 -0.418166 0.089712 -0.938345 -0.333856 0.000000 0.000000 255 234 47
0.249344 0.000000 -0.433107 0.089712 -0.938345 -0.333856 1.000000 0.000000 255 234 47
0.208488 -0.029155 -0.362142 0.089712 -0.938345 -0.333856 1.000000 1.000000 255 234 47
-0.208488 0.029155 -0.362142 -0.089712 0.938345 -0.333856 1.000000 0.000000 255 234 47
0.000000 0.029155 -0.418166 -0.089712 0.938345 -0.333856 1.000000 1.000000 255 234 47
-0.208488 -0.029155 -0.362142 0.259507 -0.000000 0.965741 1.000000 0.000000 255 234 47
0.000000 -0.029155 -0.418166 0.259507 -0.000000 0.965741 1.000000 1.000000 255 234 47
-0.208488 -0.029155 -0.362142 -0.089712 -0.938345 -0.333856 1.000000 0.000000 255 234 47
-0.249344 0.000000 -0.433107 -0.089712 -0.938345 -0.333856 1.000000 1.000000 255 234 47
-0.431876 0.000000 -0.250055 -0.245061 0.938207 -0.244364 0.000000 0.000000 255 234 47
-0.361113 0.029155 -0.209083 -0.245061 0.938207 -0.244364 1.000000 0.000000 255 234 47
-0.208488 0.029155 -0.362142 -0.245061 0.938207 -0.244364 1.000000 1.000000 255 234 47
-0.361113 -0.029155 -0.209083 0.708113 -0.000000 0.706099 1.000000 0.000000 255 234 47
-0.208488 -0.029155 -0.362142 0.708113 -0.000000 0.706099 1.000000 1.000000 255 234 47
-0.208488 -0.029155 -0.362142 -0.245061 -0.938207 -0.244364 0.000000 0.000000 255 234 47
-0.361113 -0.029155 -0.209083 -0.245061 -0.938207 -0.244364 1.000000 0.000000 255 234 47
-0.431876 0.000000 -0.250055 -0.245061 -0.938207 -0.244364 1.000000 1.000000 255 234 47
-0.498687 0.000000 -0.000000 -0.334710 0.938068 -0.089430 0.000000 0.000000 255 234 47
-0.416977 0.029155 -0.000000 -0.334710 0.938068 -0.089430 1.000000 0.000000 255 234 47
-0.361113 0.029155 -0.209083 -0.334710 0.938068 -0.089430 1.000000 1.000000 255 234 47
-0.416977 -0.029155 -0.000000 0.966110 -0.000000 0.258132 1.000000 0.000000 255 234 47
-0.361113 -0.029155 -0.209083 0.966110 -0.000000 0.258132 1.000000 1.000000 255 234 47
-0.416977 -0.029155 -0.000000 -0.334710 -0.938068 -0.089430 0.000000 0.000000 255 234 47
-0.498687 0.000000 -0.000000 -0.334710 -0.938068 -0.089430 1.000000 0.000000 255 234 47
-0.431876 0.000000 -0.250055 -0.334710 -0.938068 -0.089430 1.000000 1.000000 255 234 47
-0.498687 0.000000 -0.000000 -0.334709 0.938068 0.089430 0.000000 0.000000 255 234 47
-0.431876 0.000000 0.250055 -0.334709 0.938068 0.089430 1.000000 0.000000 255 234 47
-0.361113 0.029155 0.209083 -0.334709 0.938068 0.089430 1.000000 1.000000 255 234 47
-0.361113 -0.029155 0.209083 0.966110 0.000000 -0.258132 1.000000 0.000000 254 232 49
-0.416977 -0.029155 -0.000000 0.966110 0.000000 -0.258132 1.000000 1.000000 255 234 47
-0.361113 -0.029155 0.209083 -0.334709 -0.938068 0.089430 0.000000 0.000000 255 234 47
-0.431876 0.000000 0.250055 -0.334709 -0.938068 0.089430 1.000000 0.000000 255 236 58
-0.498687 0.000000 -0.000000 -0.334709 -0.938068 0.089430 1.000000 1.000000 255 234 47
-0.249344 0.000000 0.433107 -0.245061 0.938207 0.244364 0.000000 0.000000 255 224 54
-0.208489 0.029155 0.362142 -0.245061 0.938207 0.244364 1.000000 0.000000 255 234 47
-0.361113 0.029155 0.209083 -0.245061 0.938207 0.244364 1.000000 1.000000 255 234 47
-0.208489 -0.029155 0.362142 0.708113 0.000000 -0.706099 1.000000 0.000000 255 234 47
-0.361113 -0.029155 0.209083 0.708113 0.000000 -0.706099 1.000000 1.000000 255 232 48
-0.361113 -0.029155 0.209083 -0.245061 -0.938207 0.244364 0.000000 0.000000 255 234 47
-0.208489 -0.029155 0.362142 -0.245061 -0.938207 0.244364 1.000000 0.000000 255 234 47
-0.249344 0.000000 0.433107 -0.245061 -0.938207 0.244364 1.000000 1.000000 255 234 47
-0.000000 0.000000 0.500109 -0.089711 0.938345 0.333856 0.000000 0.000000 255 234 47
-0.000000 0.029155 0.418166 -0.089711 0.938345 0.333856 1.000000 0.000000 255 234 47
-0.208489 0.029155 0.362142 -0.089711 0.938345 0.333856 1.000000 1.000000 255 234 47
-0.000000 -0.029155 0.418166 0.259507 0.000000 -0.965741 1.000000 0.000000 255 234 47
-0.208489 -0.029155 0.362142 0.259507 0.000000 -0.965741 1.000000 1.000000 255 234 47
-0.000000 0.000000 0.500109 -0.089712 -0.938345 0.333856 1.000000 0.000000 255 234 47
-0.249344 0.000000 0.433107 -0.089712 -0.938345 0.333856 1.000000 1.000000 255 234 47
0.249344 0.000000 0.433107 0.089711 0.938345 0.333857 0.000000 0.000000 255 234 47
0.208488 0.029155 0.362142 0.089711 0.938345 0.333857 1.000000 0.000000 255 234 47
-0.000000 0.029155 0.418166 0.089711 0.938345 0.333857 1.000000 1.000000 255 234 47
0.208488 -0.029155 0.362142 -0.259507 0.000000 -0.965741 1.000000 0.000000 255 27 145
-0.000000 -0.029155 0.418166 -0.259507 0.000000 -0.965741 1.000000 1.000000 255 0 132
0.208488 -0.029155 0.362142 0.089712 -0.938345 0.333856 0.000000 0.000000 255 234 47
0.249344 0.000000 0.433107 0.089712 -0.938345 0.333856 1.000000 0.000000 255 234 47
-0.000000 0.000000 0.500109 0.089712 -0.938345 0.333856 1.000000 1.000000 255 234 47
0.431876 0.000000 0.250055 0.245060 0.938207 0.244363 0.000000 0.000000 255 234 47
0.361113 0.029155 0.209083 0.245060 0.938207 0.244363 1.000000 0.000000 254 233 48
0.208488 0.029155 0.362142 0.245060 0.938207 0.244363 1.000000 1.000000 255 234 47
0.361113 -0.029155 0.209083 -0.708113 0.000000 -0.706099 1.000000 0.000000 255 234 47
0.208488 -0.029155 0.362142 -0.708113 0.000000 -0.706099 1.000000 1.000000 255 234 47
0.431876 0.000000 0.250055 0.245061 -0.938207 0.244364 1.000000 0.000000 255 234 47
0.249344 0.000000 0.433107 0.245061 -0.938207 0.244364 1.000000 1.000000 255 234 47
0.416977 0.029155 -0.000000 0.334709 0.938068 0.089430 1.000000 0.000000 255 234 47
0.361113 0.029155 0.209083 0.334709 0.938068 0.089430 1.000000 1.000000 255 233 48
0.416977 -0.029155 -0.000000 -0.966110 0.000000 -0.258132 1.000000 0.000000 255 234 47
0.361113 -0.029155 0.209083 -0.966110 0.000000 -0.258132 1.000000 1.000000 255 234 47
0.361113 -0.029155 0.209083 0.334709 -0.938068 0.089430 0.000000 0.000000 255 234 47
0.416977 -0.029155 -0.000000 0.334709 -0.938068 0.089430 1.000000 0.000000 255 234 47
0.498687 0.000000 -0.000000 0.334709 -0.938068 0.089430 1.000000 1.000000 255 235 48
0.498687 0.000000 -0.000000 0.334710 0.938068 -0.089430 0.000000 0.000000 248 227 60
0.431876 0.000000 -0.250055 0.334710 0.938068 -0.089430 1.000000 0.000000 255 234 47
0.361113 0.029155 -0.209083 0.334710 0.938068 -0.089430 1.000000 1.000000 255 234 47
0.361113 -0.029155 -0.209083 -0.966110 0.000000 0.258132 1.000000 0.000000 255 234 47
0.416977 -0.029155 -0.000000 -0.966110 0.000000 0.258132 1.000000 1.000000 255 234 47
0.431876 0.000000 -0.250055 0.334709 -0.938068 -0.089430 1.000000 0.000000 255 234 47
0.498687 0.000000 -0.000000 0.334709 -0.938068 -0.089430 1.000000 1.000000 255 235 48
0.249344 0.000000 -0.433107 0.245061 0.938207 -0.244364 1.000000 0.000000 255 234 47
0.208488 0.029155 -0.362142 0.245061 0.938207 -0.244364 1.000000 1.000000 255 234 47
0.208488 -0.029155 -0.362142 -0.708113 0.000000 0.706099 1.000000 0.000000 255 234 47
0.361113 -0.029155 -0.209083 -0.708113 0.000000 0.706099 1.000000 1.000000 255 234 47
0.249344 0.000000 -0.433107 0.245060 -0.938207 -0.244363 1.000000 0.000000 255 234 47
0.431876 0.000000 -0.250055 0.245060 -0.938207 -0.244363 1.000000 1.000000 255 234 47
0.000000 0.000000 -0.500109 0.089712 0.938345 -0.333856 1.000000 0.000000 254 233 48
0.000000 0.029155 -0.418166 0.089712 0.938345 -0.333856 1.000000 1.000000 255 234 47
0.000000 -0.029155 -0.418166 -0.259507 -0.000000 0.965741 1.000000 0.000000 255 234 47
0.208488 -0.029155 -0.362142 -0.259507 -0.000000 0.965741 1.000000 1.000000 255 234 47
0.000000 0.000000 -0.500109 0.089712 -0.938345 -0.333856 1.000000 0.000000 255 234 47
0.249344 0.000000 -0.433107 0.089712 -0.938345 -0.333856 1.000000 1.000000 255 234 47
3 0 1 2
3 3 4 5
3 6 7 8
3 9 10 11
3 12 13 14
3 15 16 17
3 18 19 20
3 21 22 23
3 24 25 26
3 27 28 29
3 30 31 32
3 33 34 35
3 36 37 38
3 39 40 41
3 42 43 44
3 45 46 47
3 48 49 50
3 51 52 53
3 54 55 56
3 57 58 59
3 60 61 62
3 63 64 65
3 66 67 68
3 69 70 71
3 72 73 74
3 75 76 77
3 78 79 80
3 81 82 83
3 84 85 86
3 87 88 89
3 90 91 92
3 93 94 95
3 96 97 98
3 99 100 101
3 102 103 104
3 105 106 107
3 0 108 109
3 3 110 111
3 6 112 113
3 114 115 116
3 12 117 118
3 119 120 121
3 122 123 124
3 21 125 126
3 127 128 129
3 130 131 132
3 30 133 134
3 135 136 137
3 138 139 140
3 39 141 142
3 143 144 145
3 146 147 148
3 48 149 150
3 51 151 152
3 153 154 155
3 57 156 157
3 158 159 160
3 161 162 163
3 66 164 165
3 69 166 167
3 72 168 169
3 75 170 171
3 172 173 174
3 175 176 177
3 84 178 179
3 87 180 181
3 90 182 183
3 93 184 185
3 96 186 187
3 99 188 189
3 102 190 191
3 105 192 193
