ply
format ascii 1.0
comment Created by Blender 2.78 (sub 0) - www.blender.org, source file: 'beam.blend'
element vertex 24
property float x
property float y
property float z
property float nx
property float ny
property float nz
property float s
property float t
property uchar red
property uchar green
property uchar blue
element face 8
property list uchar uint vertex_indices
end_header
0.000000 -0.499925 0.000000 -0.420378 -0.129963 0.897993 0.000000 0.000000 255 235 102
0.000000 0.191034 0.100000 -0.420378 -0.129963 0.897993 1.000000 0.000000 255 221 0
-0.213616 0.191034 0.000000 -0.420378 -0.129963 0.897993 1.000000 1.000000 255 221 0
0.000000 -0.499925 0.000000 -0.420378 -0.129963 -0.897993 0.000000 0.000000 255 221 0
-0.213616 0.191034 0.000000 -0.420378 -0.129963 -0.897993 1.000000 0.000000 255 221 0
0.000000 0.191034 -0.100000 -0.420378 -0.129963 -0.897993 1.000000 1.000000 255 221 0
-0.213616 0.191034 0.000000 -0.406847 0.281358 -0.869088 0.000000 0.000000 255 221 0
0.000000 0.499925 0.000000 -0.406847 0.281358 -0.869088 1.000000 0.000000 255 221 0
0.000000 0.191034 -0.100000 -0.406847 0.281358 -0.869088 1.000000 1.000000 255 221 0
0.000000 0.499925 0.000000 0.406847 0.281358 -0.869088 0.000000 0.000000 255 221 0
0.213616 0.191034 0.000000 0.406847 0.281358 -0.869088 1.000000 0.000000 255 221 0
0.000000 0.191034 -0.100000 0.406847 0.281358 -0.869088 1.000000 1.000000 255 221 0
0.213616 0.191034 0.000000 0.420378 -0.129963 -0.897993 0.000000 0.000000 255 221 0
0.000000 -0.499925 0.000000 0.420378 -0.129963 -0.897993 1.000000 0.000000 255 221 0
0.000000 0.191034 -0.100000 0.420378 -0.129963 -0.897993 1.000000 1.000000 255 221 0
0.213616 0.191034 0.000000 0.420378 -0.129963 0.897993 0.000000 0.000000 255 221 0
0.000000 0.191034 0.100000 0.420378 -0.129963 0.897993 1.000000 0.000000 255 221 0
0.000000 -0.499925 0.000000 0.420378 -0.129963 0.897993 1.000000 1.000000 255 235 102
0.000000 0.191034 0.100000 0.406847 0.281358 0.869088 0.000000 0.000000 255 221 0
0.213616 0.191034 0.000000 0.406847 0.281358 0.869088 1.000000 0.000000 255 221 0
0.000000 0.499925 0.000000 0.406847 0.281358 0.869088 1.000000 1.000000 255 221 0
0.000000 0.191034 0.100000 -0.406847 0.281358 0.869088 0.000000 0.000000 255 221 0
0.000000 0.499925 0.000000 -0.406847 0.281358 0.869088 1.000000 0.000000 255 221 0
-0.213616 0.191034 0.000000 -0.406847 0.281358 0.869088 1.000000 1.000000 255 221 0
3 0 1 2
3 3 4 5
3 6 7 8
3 9 10 11
3 12 13 14
3 15 16 17
3 18 19 20
3 21 22 23
