ply
format ascii 1.0
comment Created by Blender 2.78 (sub 0) - www.blender.org, source file: 'bridge.blend'
element vertex 240
property float x
property float y
property float z
property float nx
property float ny
property float nz
property float s
property float t
property uchar red
property uchar green
property uchar blue
element face 102
property list uchar uint vertex_indices
end_header
-0.445443 1.000000 0.500000 0.939384 0.000000 0.342866 0.000000 0.000000 255 121 172
-0.428879 -1.000000 0.454618 0.939384 0.000000 0.342866 1.000000 0.000000 255 121 172
-0.428879 1.000000 0.454618 0.939384 0.000000 0.342866 1.000000 1.000000 255 121 172
-0.373296 1.000000 0.000000 0.000000 0.000000 -1.000000 0.000000 0.000000 255 255 255
-0.500000 -1.000000 0.000000 0.000000 0.000000 -1.000000 1.000000 0.000000 255 255 255
-0.500000 1.000000 0.000000 0.000000 0.000000 -1.000000 1.000000 1.000000 255 255 255
0.142854 1.000000 0.379472 0.000000 1.000000 0.000000 0.000000 0.000000 255 255 255
0.072827 1.000000 0.402845 0.000000 1.000000 0.000000 1.000000 0.000000 255 255 255
0.428879 1.000000 0.454618 0.000000 1.000000 0.000000 1.000000 1.000000 255 255 255
-0.142854 -1.000000 0.379472 0.000000 -1.000000 -0.000000 0.000000 0.000000 255 255 255
-0.072826 -1.000000 0.402845 0.000000 -1.000000 -0.000000 1.000000 0.000000 255 255 255
-0.428879 -1.000000 0.454618 0.000000 -1.000000 -0.000000 1.000000 1.000000 255 255 255
0.500000 1.000000 0.445443 1.000000 0.000000 -0.000000 0.000000 0.000000 255 255 255
0.500000 -1.000000 0.000000 1.000000 0.000000 -0.000000 1.000000 0.000000 255 255 255
0.500000 1.000000 0.000000 1.000000 0.000000 -0.000000 1.000000 1.000000 255 255 255
0.500000 1.000000 0.000000 0.000000 0.000000 -1.000000 0.000000 0.000000 255 255 255
0.373296 -1.000000 -0.000000 0.000000 0.000000 -1.000000 1.000000 0.000000 255 255 255
0.373296 1.000000 0.000000 0.000000 0.000000 -1.000000 1.000000 1.000000 255 255 255
0.428879 1.000000 0.454618 -0.939384 0.000000 0.342866 0.000000 0.000000 255 121 172
0.445443 -1.000000 0.500000 -0.939384 0.000000 0.342866 1.000000 0.000000 255 121 172
0.445443 1.000000 0.500000 -0.939384 0.000000 0.342866 1.000000 1.000000 255 121 172
0.072827 1.000000 0.402845 -0.107739 0.000000 -0.994179 0.000000 0.000000 255 255 255
0.000000 -1.000000 0.410737 -0.107739 0.000000 -0.994179 1.000000 0.000000 255 255 255
0.000000 1.000000 0.410737 -0.107739 0.000000 -0.994179 1.000000 1.000000 255 255 255
0.000000 1.000000 0.410737 0.107739 0.000000 -0.994179 0.000000 0.000000 255 255 255
-0.072826 -1.000000 0.402845 0.107739 0.000000 -0.994179 1.000000 0.000000 255 255 255
-0.072826 1.000000 0.402845 0.107739 0.000000 -0.994179 1.000000 1.000000 255 255 255
0.142854 1.000000 0.379472 -0.316602 0.000000 -0.948559 0.000000 0.000000 255 255 255
0.072827 -1.000000 0.402845 -0.316602 0.000000 -0.948559 1.000000 0.000000 255 255 255
0.072827 1.000000 0.402845 -0.316602 0.000000 -0.948559 1.000000 1.000000 255 255 255
-0.072826 1.000000 0.402845 0.316600 0.000000 -0.948559 0.000000 0.000000 255 255 255
-0.142854 -1.000000 0.379472 0.316600 0.000000 -0.948559 1.000000 0.000000 255 255 255
-0.142854 1.000000 0.379472 0.316600 0.000000 -0.948559 1.000000 1.000000 255 255 255
0.207392 1.000000 0.341516 -0.506947 0.000000 -0.861977 0.000000 0.000000 255 255 255
0.142854 -1.000000 0.379472 -0.506947 0.000000 -0.861977 1.000000 0.000000 255 255 255
0.142854 1.000000 0.379472 -0.506947 0.000000 -0.861977 1.000000 1.000000 255 255 255
-0.142854 1.000000 0.379472 0.506946 0.000000 -0.861978 0.000000 0.000000 255 255 255
-0.207392 -1.000000 0.341516 0.506946 0.000000 -0.861978 1.000000 0.000000 255 255 255
-0.207392 1.000000 0.341516 0.506946 0.000000 -0.861978 1.000000 1.000000 255 255 255
0.263960 1.000000 0.290435 -0.670191 0.000000 -0.742189 0.000000 0.000000 255 255 255
0.207392 -1.000000 0.341516 -0.670191 0.000000 -0.742189 1.000000 0.000000 255 255 255
0.207392 1.000000 0.341516 -0.670191 0.000000 -0.742189 1.000000 1.000000 255 255 255
-0.207392 1.000000 0.341516 0.670190 0.000000 -0.742190 0.000000 0.000000 255 255 255
-0.263960 -1.000000 0.290435 0.670190 0.000000 -0.742190 1.000000 0.000000 255 255 255
-0.263960 1.000000 0.290435 0.670190 0.000000 -0.742190 1.000000 1.000000 255 255 255
0.310385 1.000000 0.228193 -0.801586 0.000000 -0.597879 0.000000 0.000000 255 255 255
0.263960 -1.000000 0.290435 -0.801586 0.000000 -0.597879 1.000000 0.000000 255 255 255
0.263960 1.000000 0.290435 -0.801586 0.000000 -0.597879 1.000000 1.000000 255 255 255
-0.263960 1.000000 0.290435 0.801586 0.000000 -0.597880 0.000000 0.000000 255 255 255
-0.310384 -1.000000 0.228194 0.801586 0.000000 -0.597880 1.000000 0.000000 255 255 255
-0.310384 1.000000 0.228194 0.801586 0.000000 -0.597880 1.000000 1.000000 255 255 255
0.344881 1.000000 0.157182 -0.899482 0.000000 -0.436957 0.000000 0.000000 255 255 255
0.310385 -1.000000 0.228193 -0.899482 0.000000 -0.436957 1.000000 0.000000 255 255 255
0.310385 1.000000 0.228193 -0.899482 0.000000 -0.436957 1.000000 1.000000 255 255 255
-0.310384 1.000000 0.228194 0.899482 0.000000 -0.436959 0.000000 0.000000 255 255 255
-0.344881 -1.000000 0.157183 0.899482 0.000000 -0.436959 1.000000 0.000000 255 255 255
-0.344881 1.000000 0.157183 0.899482 0.000000 -0.436959 1.000000 1.000000 255 255 255
0.366124 1.000000 0.080131 -0.964034 0.000000 -0.265779 0.000000 0.000000 255 255 255
0.344881 -1.000000 0.157182 -0.964034 0.000000 -0.265779 1.000000 0.000000 255 255 255
0.344881 1.000000 0.157182 -0.964034 0.000000 -0.265779 1.000000 1.000000 255 255 255
-0.344881 1.000000 0.157183 0.964034 0.000000 -0.265780 0.000000 0.000000 255 255 255
-0.366124 -1.000000 0.080131 0.964034 0.000000 -0.265780 1.000000 0.000000 255 255 255
-0.366124 1.000000 0.080131 0.964034 0.000000 -0.265780 1.000000 1.000000 255 255 255
0.373296 1.000000 0.000000 -0.996018 0.000000 -0.089157 0.000000 0.000000 255 255 255
0.366124 -1.000000 0.080131 -0.996018 0.000000 -0.089157 1.000000 0.000000 255 255 255
0.366124 1.000000 0.080131 -0.996018 0.000000 -0.089157 1.000000 1.000000 255 255 255
-0.366124 1.000000 0.080131 0.996018 0.000000 -0.089158 0.000000 0.000000 255 255 255
-0.373296 -1.000000 0.000000 0.996018 0.000000 -0.089158 1.000000 0.000000 255 255 255
-0.373296 1.000000 0.000000 0.996018 0.000000 -0.089158 1.000000 1.000000 255 255 255
0.373296 1.000000 0.000000 -1.000000 0.000000 -0.000000 0.000000 0.000000 255 255 255
0.373296 -1.000000 -0.000000 -1.000000 0.000000 -0.000000 1.000000 0.000000 255 255 255
0.373296 1.000000 0.000000 -1.000000 0.000000 -0.000000 1.000000 1.000000 255 255 255
-0.373296 1.000000 0.000000 0.996453 0.000000 0.084151 0.000000 0.000000 255 255 255
-0.373296 -1.000000 0.000000 0.996453 0.000000 0.084151 1.000000 0.000000 255 255 255
-0.373296 -1.000000 -0.000000 0.996453 0.000000 0.084151 1.000000 1.000000 255 255 255
-0.428879 1.000000 0.454618 0.000000 0.000000 1.000000 0.000000 0.000000 255 255 255
0.428879 -1.000000 0.454618 0.000000 0.000000 1.000000 1.000000 0.000000 255 255 255
0.428879 1.000000 0.454618 0.000000 0.000000 1.000000 1.000000 1.000000 255 255 255
-0.445443 1.000000 0.500000 -0.707107 0.000000 0.707107 0.000000 0.000000 255 255 255
-0.500000 -1.000000 0.445443 -0.707107 0.000000 0.707107 1.000000 0.000000 255 255 255
-0.445443 -1.000000 0.500000 -0.707107 0.000000 0.707107 1.000000 1.000000 255 255 255
0.445443 -1.000000 0.500000 0.707107 0.000000 0.707107 0.000000 0.000000 255 255 255
0.500000 1.000000 0.445443 0.707107 0.000000 0.707107 1.000000 0.000000 255 255 255
0.445443 1.000000 0.500000 0.707107 0.000000 0.707107 1.000000 1.000000 255 255 255
-0.500000 -1.000000 0.445443 -1.000000 0.000000 0.000000 0.000000 0.000000 255 255 255
-0.500000 1.000000 0.000000 -1.000000 0.000000 0.000000 1.000000 0.000000 255 255 255
-0.500000 -1.000000 0.000000 -1.000000 0.000000 0.000000 1.000000 1.000000 255 255 255
-0.445443 -1.000000 0.500000 0.939384 -0.000000 0.342866 1.000000 0.000000 255 121 172
-0.428879 -1.000000 0.454618 0.939384 -0.000000 0.342866 1.000000 1.000000 255 121 172
-0.373296 -1.000000 -0.000000 -0.000000 0.000000 -1.000000 1.000000 0.000000 255 255 255
-0.500000 -1.000000 0.000000 -0.000000 0.000000 -1.000000 1.000000 1.000000 255 255 255
-0.373296 1.000000 0.000000 -0.000000 1.000000 0.000000 0.000000 0.000000 255 255 255
-0.500000 1.000000 0.000000 -0.000000 1.000000 0.000000 1.000000 0.000000 255 255 255
-0.500000 1.000000 0.445443 -0.000000 1.000000 0.000000 1.000000 1.000000 255 255 255
-0.500000 1.000000 0.445443 0.000000 1.000000 0.000000 0.000000 0.000000 255 255 255
-0.445443 1.000000 0.500000 0.000000 1.000000 0.000000 1.000000 0.000000 255 255 255
-0.428879 1.000000 0.454618 0.000000 1.000000 0.000000 1.000000 1.000000 255 255 255
0.428879 1.000000 0.454618 0.000000 1.000000 0.000000 0.000000 0.000000 255 255 255
0.445443 1.000000 0.500000 0.000000 1.000000 0.000000 1.000000 0.000000 255 255 255
0.500000 1.000000 0.445443 0.000000 1.000000 0.000000 1.000000 1.000000 255 255 255
-0.428879 1.000000 0.454618 0.000000 1.000000 0.000000 1.000000 0.000000 255 255 255
-0.310384 1.000000 0.228194 0.000000 1.000000 0.000000 1.000000 1.000000 255 255 255
-0.373296 1.000000 0.000000 -0.000000 1.000000 -0.000000 0.000000 0.000000 255 255 255
-0.373296 1.000000 0.000000 -0.000000 1.000000 -0.000000 1.000000 0.000000 255 255 255
-0.366124 1.000000 0.080131 -0.000000 1.000000 0.000000 0.000000 0.000000 255 255 255
-0.373296 1.000000 0.000000 -0.000000 1.000000 0.000000 1.000000 0.000000 255 255 255
-0.428879 1.000000 0.454618 0.000000 1.000000 -0.000000 0.000000 0.000000 255 255 255
0.428879 1.000000 0.454618 0.000000 1.000000 -0.000000 1.000000 0.000000 255 255 255
0.000000 1.000000 0.410737 0.000000 1.000000 -0.000000 1.000000 1.000000 255 255 255
0.500000 1.000000 0.445443 0.000000 1.000000 0.000000 0.000000 0.000000 255 255 255
0.500000 1.000000 0.000000 0.000000 1.000000 0.000000 1.000000 0.000000 255 255 255
0.373296 1.000000 0.000000 0.000000 1.000000 0.000000 1.000000 1.000000 255 255 255
0.373296 1.000000 0.000000 -0.000000 1.000000 0.000000 1.000000 0.000000 255 255 255
0.373296 1.000000 0.000000 -0.000000 1.000000 0.000000 1.000000 1.000000 255 255 255
-0.344881 1.000000 0.157183 -0.000000 1.000000 0.000000 0.000000 0.000000 255 255 255
-0.366124 1.000000 0.080131 -0.000000 1.000000 0.000000 1.000000 0.000000 255 255 255
-0.310384 1.000000 0.228194 -0.000000 1.000000 0.000000 0.000000 0.000000 255 255 255
-0.344881 1.000000 0.157183 -0.000000 1.000000 0.000000 1.000000 0.000000 255 255 255
0.373296 1.000000 0.000000 -0.000000 1.000000 0.000000 1.000000 0.000000 255 255 255
0.366124 1.000000 0.080131 -0.000000 1.000000 0.000000 1.000000 1.000000 255 255 255
0.366124 1.000000 0.080131 -0.000000 1.000000 0.000000 1.000000 0.000000 255 255 255
0.344881 1.000000 0.157182 -0.000000 1.000000 0.000000 1.000000 1.000000 255 255 255
-0.263960 1.000000 0.290435 -0.000000 1.000000 0.000000 0.000000 0.000000 255 255 255
-0.310384 1.000000 0.228194 -0.000000 1.000000 0.000000 1.000000 0.000000 255 255 255
-0.207392 1.000000 0.341516 -0.000000 1.000000 0.000000 0.000000 0.000000 255 255 255
-0.263960 1.000000 0.290435 -0.000000 1.000000 0.000000 1.000000 0.000000 255 255 255
0.344881 1.000000 0.157182 -0.000000 1.000000 0.000000 1.000000 0.000000 255 255 255
0.310385 1.000000 0.228193 -0.000000 1.000000 0.000000 1.000000 1.000000 255 255 255
0.310385 1.000000 0.228193 -0.000000 1.000000 0.000000 1.000000 0.000000 255 255 255
-0.142854 1.000000 0.379472 -0.000000 1.000000 0.000000 0.000000 0.000000 255 255 255
-0.207392 1.000000 0.341516 -0.000000 1.000000 0.000000 1.000000 0.000000 255 255 255
-0.072826 1.000000 0.402845 -0.000000 1.000000 0.000000 0.000000 0.000000 255 255 255
-0.142854 1.000000 0.379472 -0.000000 1.000000 0.000000 1.000000 0.000000 255 255 255
0.310385 1.000000 0.228193 0.000000 1.000000 0.000000 0.000000 0.000000 255 255 255
0.263960 1.000000 0.290435 0.000000 1.000000 0.000000 1.000000 0.000000 255 255 255
0.263960 1.000000 0.290435 0.000000 1.000000 0.000000 0.000000 0.000000 255 255 255
0.207392 1.000000 0.341516 0.000000 1.000000 0.000000 1.000000 0.000000 255 255 255
0.000000 1.000000 0.410737 -0.000000 1.000000 0.000000 0.000000 0.000000 255 255 255
-0.072826 1.000000 0.402845 -0.000000 1.000000 0.000000 1.000000 0.000000 255 255 255
0.207392 1.000000 0.341516 0.000000 1.000000 0.000000 0.000000 0.000000 255 255 255
0.142854 1.000000 0.379472 0.000000 1.000000 0.000000 1.000000 0.000000 255 255 255
0.072827 1.000000 0.402845 0.000000 1.000000 -0.000000 1.000000 1.000000 255 255 255
0.373296 -1.000000 -0.000000 0.000000 -1.000000 -0.000000 0.000000 0.000000 255 255 255
0.500000 -1.000000 0.000000 0.000000 -1.000000 -0.000000 1.000000 0.000000 255 255 255
0.366124 -1.000000 0.080131 0.000000 -1.000000 -0.000000 1.000000 1.000000 255 255 255
0.500000 -1.000000 0.445443 0.000000 -1.000000 0.000000 0.000000 0.000000 255 255 255
0.445443 -1.000000 0.500000 0.000000 -1.000000 0.000000 1.000000 0.000000 255 255 255
0.428879 -1.000000 0.454618 0.000000 -1.000000 0.000000 1.000000 1.000000 255 255 255
-0.428879 -1.000000 0.454618 0.000000 -1.000000 0.000000 0.000000 0.000000 255 255 255
-0.445443 -1.000000 0.500000 0.000000 -1.000000 0.000000 1.000000 0.000000 255 255 255
-0.500000 -1.000000 0.445443 0.000000 -1.000000 0.000000 1.000000 1.000000 255 255 255
0.428879 -1.000000 0.454618 0.000000 -1.000000 0.000000 1.000000 0.000000 255 255 255
0.310385 -1.000000 0.228193 0.000000 -1.000000 0.000000 1.000000 1.000000 255 255 255
0.366124 -1.000000 0.080131 -0.000000 -1.000000 -0.000000 0.000000 0.000000 255 255 255
0.344881 -1.000000 0.157182 -0.000000 -1.000000 -0.000000 1.000000 1.000000 255 255 255
0.344881 -1.000000 0.157182 -0.000000 -1.000000 -0.000000 0.000000 0.000000 255 255 255
0.500000 -1.000000 0.445443 -0.000000 -1.000000 -0.000000 1.000000 1.000000 255 255 255
0.428879 -1.000000 0.454618 0.000000 -1.000000 0.000000 0.000000 0.000000 255 255 255
-0.428879 -1.000000 0.454618 0.000000 -1.000000 0.000000 1.000000 0.000000 255 255 255
0.000000 -1.000000 0.410737 0.000000 -1.000000 0.000000 1.000000 1.000000 255 255 255
-0.500000 -1.000000 0.445443 0.000000 -1.000000 0.000000 0.000000 0.000000 255 255 255
-0.500000 -1.000000 0.000000 0.000000 -1.000000 0.000000 1.000000 0.000000 255 255 255
-0.373296 -1.000000 -0.000000 0.000000 -1.000000 0.000000 1.000000 1.000000 255 255 255
-0.373296 -1.000000 -0.000000 -0.000000 -1.000000 -0.000000 1.000000 0.000000 255 255 255
-0.373296 -1.000000 0.000000 -0.000000 -1.000000 -0.000000 1.000000 1.000000 255 255 255
0.310385 -1.000000 0.228193 -0.000000 -1.000000 0.000000 0.000000 0.000000 255 255 255
0.344881 -1.000000 0.157182 -0.000000 -1.000000 0.000000 1.000000 0.000000 255 255 255
0.263960 -1.000000 0.290435 -0.000000 -1.000000 0.000000 0.000000 0.000000 255 255 255
0.310385 -1.000000 0.228193 -0.000000 -1.000000 0.000000 1.000000 0.000000 255 255 255
-0.373296 -1.000000 0.000000 -0.000000 -1.000000 0.000000 1.000000 0.000000 255 255 255
-0.366124 -1.000000 0.080131 -0.000000 -1.000000 0.000000 1.000000 1.000000 255 255 255
-0.366124 -1.000000 0.080131 -0.000000 -1.000000 0.000000 1.000000 0.000000 255 255 255
-0.344881 -1.000000 0.157183 -0.000000 -1.000000 0.000000 1.000000 1.000000 255 255 255
0.207392 -1.000000 0.341516 -0.000000 -1.000000 0.000000 0.000000 0.000000 255 255 255
0.263960 -1.000000 0.290435 -0.000000 -1.000000 0.000000 1.000000 0.000000 255 255 255
0.142854 -1.000000 0.379472 -0.000000 -1.000000 0.000000 0.000000 0.000000 255 255 255
0.207392 -1.000000 0.341516 -0.000000 -1.000000 0.000000 1.000000 0.000000 255 255 255
-0.344881 -1.000000 0.157183 -0.000000 -1.000000 0.000000 1.000000 0.000000 255 255 255
-0.310384 -1.000000 0.228194 -0.000000 -1.000000 0.000000 1.000000 1.000000 255 255 255
-0.310384 -1.000000 0.228194 -0.000000 -1.000000 -0.000000 1.000000 0.000000 255 255 255
0.072827 -1.000000 0.402845 -0.000000 -1.000000 0.000000 0.000000 0.000000 255 255 255
0.142854 -1.000000 0.379472 -0.000000 -1.000000 0.000000 1.000000 0.000000 255 255 255
0.000000 -1.000000 0.410737 -0.000000 -1.000000 0.000000 0.000000 0.000000 255 255 255
0.072827 -1.000000 0.402845 -0.000000 -1.000000 0.000000 1.000000 0.000000 255 255 255
-0.310384 -1.000000 0.228194 0.000000 -1.000000 -0.000000 0.000000 0.000000 255 255 255
-0.263960 -1.000000 0.290435 0.000000 -1.000000 -0.000000 1.000000 0.000000 255 255 255
-0.263960 -1.000000 0.290435 0.000000 -1.000000 -0.000000 0.000000 0.000000 255 255 255
-0.207392 -1.000000 0.341516 0.000000 -1.000000 -0.000000 1.000000 0.000000 255 255 255
-0.072826 -1.000000 0.402845 0.000000 -1.000000 0.000000 1.000000 1.000000 255 255 255
-0.207392 -1.000000 0.341516 0.000000 -1.000000 -0.000000 0.000000 0.000000 255 255 255
-0.142854 -1.000000 0.379472 0.000000 -1.000000 -0.000000 1.000000 0.000000 255 255 255
0.500000 -1.000000 0.445443 1.000000 0.000000 0.000000 1.000000 0.000000 255 255 255
0.500000 -1.000000 0.000000 1.000000 0.000000 0.000000 1.000000 1.000000 255 255 255
0.500000 -1.000000 0.000000 0.000000 0.000000 -1.000000 1.000000 0.000000 255 255 255
0.373296 -1.000000 -0.000000 0.000000 0.000000 -1.000000 1.000000 1.000000 255 255 255
0.428879 -1.000000 0.454618 -0.939384 0.000000 0.342866 1.000000 0.000000 255 121 172
0.445443 -1.000000 0.500000 -0.939384 0.000000 0.342866 1.000000 1.000000 255 121 172
0.072827 -1.000000 0.402845 -0.107739 0.000000 -0.994179 1.000000 0.000000 255 255 255
0.000000 -1.000000 0.410737 -0.107739 0.000000 -0.994179 1.000000 1.000000 255 255 255
0.000000 -1.000000 0.410737 0.107739 0.000000 -0.994179 1.000000 0.000000 255 255 255
-0.072826 -1.000000 0.402845 0.107739 0.000000 -0.994179 1.000000 1.000000 255 255 255
0.142854 -1.000000 0.379472 -0.316602 0.000000 -0.948559 1.000000 0.000000 255 255 255
0.072827 -1.000000 0.402845 -0.316602 0.000000 -0.948559 1.000000 1.000000 255 255 255
-0.072826 -1.000000 0.402845 0.316600 0.000000 -0.948559 1.000000 0.000000 255 255 255
-0.142854 -1.000000 0.379472 0.316600 0.000000 -0.948559 1.000000 1.000000 255 255 255
0.207392 -1.000000 0.341516 -0.506947 0.000000 -0.861977 1.000000 0.000000 255 255 255
0.142854 -1.000000 0.379472 -0.506947 0.000000 -0.861977 1.000000 1.000000 255 255 255
-0.142854 -1.000000 0.379472 0.506946 0.000000 -0.861978 1.000000 0.000000 255 255 255
-0.207392 -1.000000 0.341516 0.506946 0.000000 -0.861978 1.000000 1.000000 255 255 255
0.263960 -1.000000 0.290435 -0.670191 0.000000 -0.742189 1.000000 0.000000 255 255 255
0.207392 -1.000000 0.341516 -0.670191 0.000000 -0.742189 1.000000 1.000000 255 255 255
-0.207392 -1.000000 0.341516 0.670190 0.000000 -0.742190 1.000000 0.000000 255 255 255
-0.263960 -1.000000 0.290435 0.670190 0.000000 -0.742190 1.000000 1.000000 255 255 255
0.310385 -1.000000 0.228193 -0.801586 0.000000 -0.597879 1.000000 0.000000 255 255 255
0.263960 -1.000000 0.290435 -0.801586 0.000000 -0.597879 1.000000 1.000000 255 255 255
-0.263960 -1.000000 0.290435 0.801586 0.000000 -0.597880 1.000000 0.000000 255 255 255
-0.310384 -1.000000 0.228194 0.801586 0.000000 -0.597880 1.000000 1.000000 255 255 255
0.344881 -1.000000 0.157182 -0.899482 0.000000 -0.436957 1.000000 0.000000 255 255 255
0.310385 -1.000000 0.228193 -0.899482 0.000000 -0.436957 1.000000 1.000000 255 255 255
-0.310384 -1.000000 0.228194 0.899482 0.000000 -0.436959 1.000000 0.000000 255 255 255
-0.344881 -1.000000 0.157183 0.899482 0.000000 -0.436959 1.000000 1.000000 255 255 255
0.366124 -1.000000 0.080131 -0.964034 0.000000 -0.265779 1.000000 0.000000 255 255 255
0.344881 -1.000000 0.157182 -0.964034 0.000000 -0.265779 1.000000 1.000000 255 255 255
-0.344881 -1.000000 0.157183 0.964034 0.000000 -0.265780 1.000000 0.000000 255 255 255
-0.366124 -1.000000 0.080131 0.964034 0.000000 -0.265780 1.000000 1.000000 255 255 255
0.373296 -1.000000 -0.000000 -0.996018 0.000000 -0.089157 1.000000 0.000000 255 255 255
0.366124 -1.000000 0.080131 -0.996018 0.000000 -0.089157 1.000000 1.000000 255 255 255
-0.366124 -1.000000 0.080131 0.996018 0.000000 -0.089158 1.000000 0.000000 255 255 255
-0.373296 -1.000000 0.000000 0.996018 0.000000 -0.089158 1.000000 1.000000 255 255 255
-0.373296 1.000000 0.000000 0.997717 -0.000000 0.067529 0.000000 0.000000 255 255 255
-0.373296 1.000000 0.000000 0.997717 -0.000000 0.067529 1.000000 0.000000 255 255 255
-0.373296 -1.000000 0.000000 0.997717 -0.000000 0.067529 1.000000 1.000000 255 255 255
-0.428879 -1.000000 0.454618 0.000000 -0.000000 1.000000 1.000000 0.000000 255 255 255
0.428879 -1.000000 0.454618 0.000000 -0.000000 1.000000 1.000000 1.000000 255 255 255
-0.500000 1.000000 0.445443 -0.707107 0.000000 0.707107 1.000000 0.000000 255 255 255
-0.500000 -1.000000 0.445443 -0.707107 0.000000 0.707107 1.000000 1.000000 255 255 255
0.500000 -1.000000 0.445443 0.707107 0.000000 0.707107 1.000000 0.000000 255 255 255
0.500000 1.000000 0.445443 0.707107 0.000000 0.707107 1.000000 1.000000 255 255 255
-0.500000 1.000000 0.445443 -1.000000 0.000000 0.000000 1.000000 0.000000 255 255 255
-0.500000 1.000000 0.000000 -1.000000 0.000000 0.000000 1.000000 1.000000 255 255 255
3 0 1 2
3 3 4 5
3 6 7 8
3 9 10 11
3 12 13 14
3 15 16 17
3 18 19 20
3 21 22 23
3 24 25 26
3 27 28 29
3 30 31 32
3 33 34 35
3 36 37 38
3 39 40 41
3 42 43 44
3 45 46 47
3 48 49 50
3 51 52 53
3 54 55 56
3 57 58 59
3 60 61 62
3 63 64 65
3 66 67 68
3 69 70 71
3 72 73 74
3 75 76 77
3 78 79 80
3 81 82 83
3 84 85 86
3 0 87 88
3 3 89 90
3 91 92 93
3 94 95 96
3 97 98 99
3 94 100 101
3 102 103 93
3 104 105 93
3 106 107 108
3 109 110 111
3 109 112 113
3 114 115 93
3 116 117 93
3 109 118 119
3 109 120 121
3 122 123 96
3 124 125 96
3 109 126 127
3 109 128 8
3 129 130 96
3 131 132 96
3 133 134 8
3 135 136 8
3 137 138 96
3 139 140 8
3 137 107 141
3 142 143 144
3 145 146 147
3 148 149 150
3 145 151 152
3 153 143 154
3 155 143 156
3 157 158 159
3 160 161 162
3 160 163 164
3 165 166 156
3 167 168 147
3 160 169 170
3 160 171 172
3 173 174 147
3 175 176 147
3 160 177 178
3 160 179 11
3 180 181 147
3 182 183 147
3 184 185 11
3 186 187 11
3 182 158 188
3 189 190 11
3 12 191 192
3 15 193 194
3 18 195 196
3 21 197 198
3 24 199 200
3 27 201 202
3 30 203 204
3 33 205 206
3 36 207 208
3 39 209 210
3 42 211 212
3 45 213 214
3 48 215 216
3 51 217 218
3 54 219 220
3 57 221 222
3 60 223 224
3 63 225 226
3 66 227 228
3 229 230 231
3 75 232 233
3 78 234 235
3 81 236 237
3 84 238 239
