ply
format ascii 1.0
comment Created by Blender 2.76 (sub 0) - www.blender.org, source file: 'building1.blend'
element vertex 84
property float x
property float y
property float z
property float nx
property float ny
property float nz
property float s
property float t
property uchar red
property uchar green
property uchar blue
element face 30
property list uchar uint vertex_indices
end_header
0.400000 0.500000 0.000000 0.000000 0.980733 0.195354 0.323112 0.267152 94 104 162
-0.284727 0.318072 0.913331 0.000000 0.980733 0.195354 0.589310 0.566626 94 104 162
0.214151 0.318072 0.913331 0.000000 0.980733 0.195354 0.323112 0.566626 94 104 162
-0.500000 -0.400000 -0.000000 -0.986273 0.000000 0.165126 0.589310 0.567261 94 104 162
-0.347087 0.255712 0.913331 -0.986273 0.000000 0.165126 0.323112 0.866735 94 104 162
-0.500000 0.400000 0.000000 -0.986273 0.000000 0.165126 0.323112 0.567261 94 104 162
-0.284727 0.255712 0.975691 0.000000 0.000000 1.000000 0.266836 0.634884 94 104 162
0.214151 -0.243166 0.975691 0.000000 0.000000 1.000000 0.036179 0.336271 94 104 162
0.214151 0.255712 0.975691 0.000000 0.000000 1.000000 0.300814 0.370249 94 104 162
0.214151 -0.305525 0.913331 -0.000000 -0.978073 0.208260 0.856145 0.566626 94 104 162
-0.400000 -0.500000 0.000000 -0.000000 -0.978073 0.208260 0.589946 0.267152 94 104 162
0.400000 -0.500000 -0.000000 -0.000000 -0.978073 0.208260 0.856145 0.267152 94 104 162
0.214151 0.318072 0.913331 0.577350 0.577350 0.577350 0.705362 0.189184 94 104 162
0.214151 0.255712 0.975691 0.577350 0.577350 0.577350 0.705362 0.236242 94 104 162
0.276511 0.255712 0.913331 0.577350 0.577350 0.577350 0.664609 0.212713 94 104 162
0.214151 -0.305525 0.913331 0.577350 -0.577351 0.577350 0.002818 0.298687 94 104 162
0.276511 -0.243166 0.913331 0.577350 -0.577351 0.577350 0.048268 0.291902 94 104 162
0.214151 -0.243166 0.975691 0.577350 -0.577351 0.577350 0.036179 0.336271 94 104 162
-0.347087 -0.243166 0.913331 -0.577350 -0.577350 0.577350 0.663974 0.212713 94 104 162
-0.284727 -0.305525 0.913331 -0.577350 -0.577350 0.577350 0.623221 0.236242 94 104 162
-0.284727 -0.243166 0.975691 -0.577350 -0.577350 0.577350 0.623221 0.189184 94 104 162
-0.347087 0.255712 0.913331 -0.577350 0.577350 0.577350 0.705998 0.189184 94 104 162
-0.284727 0.255712 0.975691 -0.577350 0.577350 0.577350 0.753056 0.189184 94 104 162
-0.284727 0.318072 0.913331 -0.577350 0.577350 0.577350 0.729527 0.229937 94 104 162
0.214151 0.318072 0.913331 0.680076 0.680076 0.273850 0.903838 0.566625 94 104 162
0.500000 0.400000 0.000000 0.680076 0.680076 0.273850 0.856781 0.267152 94 104 162
0.400000 0.500000 0.000000 0.680076 0.680076 0.273850 0.903838 0.267152 94 104 162
0.276511 -0.243166 0.913331 0.678313 -0.678313 0.282459 0.048268 0.291902 94 104 162
0.400000 -0.500000 -0.000000 0.678313 -0.678313 0.282459 0.000318 0.000318 94 104 162
0.500000 -0.400000 0.000000 0.678313 -0.678313 0.282459 0.050742 0.000318 94 104 162
-0.284727 -0.305525 0.913331 -0.687612 -0.687612 0.233197 0.903838 0.866735 94 104 162
-0.500000 -0.400000 -0.000000 -0.687612 -0.687612 0.233197 0.856780 0.567261 94 104 162
-0.400000 -0.500000 0.000000 -0.687612 -0.687612 0.233197 0.903838 0.567261 94 104 162
-0.500000 0.400000 0.000000 -0.689100 0.689100 0.224236 0.047375 0.635519 94 104 162
-0.284727 0.318072 0.913331 -0.689100 0.689100 0.224236 0.000318 0.934993 94 104 162
-0.400000 0.500000 0.000000 -0.689100 0.689100 0.224236 0.000318 0.635519 94 104 162
0.214151 0.255712 0.975691 0.707107 -0.000000 0.707107 0.300814 0.370249 94 104 162
0.276511 -0.243166 0.913331 0.707107 -0.000000 0.707107 0.048268 0.291902 94 104 162
0.276511 0.255712 0.913331 0.707107 -0.000000 0.707107 0.306784 0.319967 94 104 162
-0.284727 0.318072 0.913331 0.000000 0.707107 0.707107 0.048011 0.776527 94 104 162
0.214151 0.255712 0.975691 0.000000 0.707107 0.707107 0.314210 0.729469 94 104 162
0.214151 0.318072 0.913331 0.000000 0.707107 0.707107 0.314210 0.776527 94 104 162
-0.284727 -0.243166 0.975691 -0.000000 -0.707107 0.707106 0.048011 0.682494 94 104 162
0.214151 -0.305525 0.913331 -0.000000 -0.707107 0.707106 0.318337 0.682494 94 104 162
0.214151 -0.243166 0.975691 -0.000000 -0.707107 0.707106 0.310145 0.728833 94 104 162
-0.284727 0.255712 0.975691 -0.707107 0.000000 0.707107 0.314209 0.777162 94 104 162
-0.347087 -0.243166 0.913331 -0.707107 0.000000 0.707107 0.048011 0.824220 94 104 162
-0.284727 -0.243166 0.975691 -0.707107 0.000000 0.707107 0.048011 0.777162 94 104 162
0.276511 0.255712 0.913331 0.971343 0.000000 0.237684 0.306784 0.319967 94 104 162
0.500000 -0.400000 0.000000 0.971343 0.000000 0.237684 0.050742 0.000318 94 104 162
0.500000 0.400000 0.000000 0.971343 0.000000 0.237684 0.322476 0.014266 94 104 162
0.400000 0.500000 0.000000 0.000000 0.980733 0.195354 0.622585 0.000318 94 104 162
-0.400000 0.500000 0.000000 0.000000 0.980733 0.195354 0.622585 0.266516 94 104 162
-0.284727 0.318072 0.913331 0.000000 0.980733 0.195354 0.323112 0.266517 94 104 162
-0.347087 -0.243166 0.913331 -0.986273 0.000000 0.165126 0.589310 0.866735 94 104 162
-0.284727 0.255712 0.975691 0.000000 -0.000000 1.000000 0.999682 0.000318 94 104 162
-0.284727 -0.243166 0.975691 0.000000 -0.000000 1.000000 0.811451 0.188549 94 104 162
0.214151 -0.243166 0.975691 0.000000 -0.000000 1.000000 0.623221 0.000318 94 104 162
0.214151 -0.305525 0.913331 -0.000000 -0.978073 0.208260 0.856144 0.866735 94 104 162
-0.284727 -0.305525 0.913331 -0.000000 -0.978073 0.208260 0.589946 0.866735 94 104 162
-0.400000 -0.500000 0.000000 -0.000000 -0.978073 0.208260 0.589946 0.567261 94 104 162
0.214151 0.318072 0.913331 0.680076 0.680075 0.273850 0.903838 0.566625 94 104 162
0.276511 0.255712 0.913331 0.680076 0.680075 0.273850 0.856780 0.566625 94 104 162
0.500000 0.400000 0.000000 0.680076 0.680075 0.273850 0.856781 0.267152 94 104 162
0.276511 -0.243166 0.913331 0.678312 -0.678313 0.282459 0.048268 0.291902 94 104 162
0.214151 -0.305525 0.913331 0.678312 -0.678313 0.282459 0.002818 0.298687 94 104 162
0.400000 -0.500000 -0.000000 0.678312 -0.678313 0.282459 0.000318 0.000318 94 104 162
-0.284727 -0.305525 0.913331 -0.687612 -0.687611 0.233197 0.903838 0.866735 94 104 162
-0.347087 -0.243166 0.913331 -0.687612 -0.687611 0.233197 0.856780 0.866735 94 104 162
-0.500000 -0.400000 -0.000000 -0.687612 -0.687611 0.233197 0.856780 0.567261 94 104 162
-0.500000 0.400000 0.000000 -0.689100 0.689101 0.224236 0.047375 0.635519 94 104 162
-0.347087 0.255712 0.913331 -0.689100 0.689101 0.224236 0.047376 0.934993 94 104 162
-0.284727 0.318072 0.913331 -0.689100 0.689101 0.224236 0.000318 0.934993 94 104 162
0.214151 -0.243166 0.975691 0.707107 -0.000000 0.707107 0.036179 0.336271 94 104 162
-0.284727 0.255712 0.975691 0.000000 0.707107 0.707107 0.048011 0.729469 94 104 162
-0.284727 -0.243166 0.975691 -0.000000 -0.707107 0.707107 0.048011 0.681859 94 104 162
-0.284727 -0.305525 0.913331 -0.000000 -0.707107 0.707107 0.056203 0.635519 94 104 162
0.214151 -0.305525 0.913331 -0.000000 -0.707107 0.707107 0.318337 0.681859 94 104 162
-0.284727 0.255712 0.975691 -0.707107 0.000000 0.707107 0.314209 0.824855 94 104 162
-0.347087 0.255712 0.913331 -0.707107 0.000000 0.707107 0.314209 0.871913 94 104 162
-0.347087 -0.243166 0.913331 -0.707107 0.000000 0.707107 0.048011 0.871913 94 104 162
0.276511 0.255712 0.913331 0.971342 -0.000001 0.237685 0.306784 0.319967 94 104 162
0.276511 -0.243166 0.913331 0.971342 -0.000001 0.237685 0.048268 0.291902 94 104 162
0.500000 -0.400000 0.000000 0.971342 -0.000001 0.237685 0.050742 0.000318 94 104 162
3 0 1 2
3 3 4 5
3 6 7 8
3 9 10 11
3 12 13 14
3 15 16 17
3 18 19 20
3 21 22 23
3 24 25 26
3 27 28 29
3 30 31 32
3 33 34 35
3 36 37 38
3 39 40 41
3 42 43 44
3 45 46 47
3 48 49 50
3 51 52 53
3 3 54 4
3 55 56 57
3 58 59 60
3 61 62 63
3 64 65 66
3 67 68 69
3 70 71 72
3 36 73 37
3 39 74 40
3 75 76 77
3 78 79 80
3 81 82 83
