ply
format ascii 1.0
comment Created by Blender 2.79 (sub 0) - www.blender.org, source file: 'elevator.blend'
element vertex 92
property float x
property float y
property float z
property float nx
property float ny
property float nz
property float s
property float t
property uchar red
property uchar green
property uchar blue
element face 58
property list uchar uint vertex_indices
end_header
-2.000000 2.000000 0.000000 0.987648 0.000000 -0.156688 0.499866 0.499734 255 255 255
-1.365409 -1.365409 4.000000 0.987648 0.000000 -0.156688 0.499809 0.499281 255 255 255
-2.000000 -2.000000 0.000000 0.987648 0.000000 -0.156688 0.499764 0.499857 255 255 255
2.000000 2.000000 0.000000 0.000000 -0.987648 -0.156688 0.499817 0.499646 255 255 255
-1.365409 1.365409 4.000000 0.000000 -0.987648 -0.156688 0.499329 0.499798 255 255 255
-2.000000 2.000000 0.000000 0.000000 -0.987648 -0.156688 0.499866 0.499734 255 255 255
2.000000 -2.000000 0.000000 -0.987648 0.000000 -0.156688 0.499674 0.499729 255 255 255
1.365409 1.365409 4.000000 -0.987648 0.000000 -0.156688 0.499840 0.500313 255 255 255
2.000000 2.000000 0.000000 -0.987648 0.000000 -0.156688 0.499817 0.499646 255 255 255
-2.000000 -2.000000 0.000000 0.000000 0.987648 -0.156688 0.499764 0.499857 255 255 255
1.365409 -1.365409 4.000000 0.000000 0.987648 -0.156688 0.500346 0.499779 255 255 255
2.000000 -2.000000 0.000000 0.000000 0.987648 -0.156688 0.499674 0.499729 255 255 255
-2.000000 -2.000000 0.000000 -0.000000 0.000000 1.000000 0.499764 0.499857 255 255 255
2.000000 2.000000 0.000000 -0.000000 0.000000 1.000000 0.499817 0.499646 255 255 255
-2.000000 2.000000 0.000000 -0.000000 0.000000 1.000000 0.499866 0.499734 255 255 255
-1.044446 -1.044446 9.000000 0.000000 1.000000 -0.000000 0.383963 0.384919 255 255 255
1.044446 -1.044446 4.000000 0.000000 1.000000 -0.000000 0.500584 0.499812 255 255 255
-1.044446 -1.044446 4.000000 0.000000 1.000000 -0.000000 0.499846 0.499098 255 255 255
-1.365409 -1.365409 4.000000 -0.000000 0.000000 -1.000000 0.499809 0.499281 255 255 255
-1.044446 1.044446 4.000000 -0.000000 0.000000 -1.000000 0.499151 0.499833 255 255 255
-1.044446 -1.044446 4.000000 -0.000000 0.000000 -1.000000 0.499846 0.499098 255 255 255
-1.365409 1.365409 4.000000 0.000000 0.000000 -1.000000 0.499329 0.499798 255 255 255
1.044446 1.044446 4.000000 0.000000 0.000000 -1.000000 0.499874 0.500560 255 255 255
1.365409 1.365409 4.000000 0.000000 0.000000 -1.000000 0.499840 0.500313 255 255 255
1.044446 -1.044446 4.000000 0.000000 0.000000 -1.000000 0.500584 0.499812 255 255 255
1.365409 -1.365409 4.000000 -0.000000 -0.000000 -1.000000 0.500346 0.499779 255 255 255
-1.044446 1.044446 9.250000 1.000000 0.000000 -0.000000 0.354925 0.642937 255 255 255
-1.044446 -1.044446 9.000000 1.000000 0.000000 -0.000000 0.383963 0.384919 255 255 255
-1.044446 1.044446 9.000000 1.000000 0.000000 -0.000000 0.384963 0.615812 255 255 255
1.044446 1.044446 9.000000 0.000000 -1.000000 0.000000 0.615897 0.614866 255 255 255
-1.044446 1.044446 4.000000 0.000000 -1.000000 0.000000 0.499151 0.499833 255 255 255
1.044446 1.044446 4.000000 0.000000 -1.000000 0.000000 0.499874 0.500560 255 255 255
1.044446 -1.044446 9.000000 -1.000000 0.000000 0.000000 0.614853 0.383928 255 255 255
1.044446 1.044446 4.000000 -1.000000 0.000000 0.000000 0.499874 0.500560 255 255 255
1.044446 -1.044446 4.000000 -1.000000 0.000000 0.000000 0.500584 0.499812 255 255 255
-1.044446 -1.044446 4.000000 1.000000 0.000000 -0.000000 0.499846 0.499098 255 255 255
-1.044446 1.044446 4.000000 1.000000 0.000000 -0.000000 0.499151 0.499833 255 255 255
-1.291223 -1.291223 9.500000 -0.000000 0.711679 0.702505 0.312118 0.310772 255 255 255
1.044446 -1.044446 9.250000 -0.000000 0.711679 0.702505 0.644937 0.356849 255 255 255
-1.044446 -1.044446 9.250000 -0.000000 0.711679 0.702505 0.356876 0.354873 255 255 255
-1.044446 -1.044446 9.250000 0.000000 1.000000 -0.000000 0.356876 0.354873 255 255 255
1.044446 -1.044446 9.000000 0.000000 1.000000 -0.000000 0.614853 0.383928 255 255 255
1.044446 1.044446 9.250000 0.000000 -1.000000 0.000000 0.643060 0.644989 255 255 255
-1.044446 1.044446 9.000000 0.000000 -1.000000 0.000000 0.384963 0.615812 255 255 255
1.044446 -1.044446 9.250000 -1.000000 0.000000 0.000000 0.644937 0.356849 255 255 255
1.044446 1.044446 9.000000 -1.000000 0.000000 0.000000 0.615897 0.614866 255 255 255
2.937686 -2.937686 9.500000 -0.000000 0.000000 1.000000 0.921014 0.076053 255 255 255
1.291223 1.291223 9.500000 -0.000000 0.000000 1.000000 0.687904 0.689176 255 255 255
1.291223 -1.291223 9.500000 -0.000000 0.000000 1.000000 0.689075 0.312096 255 255 255
1.291223 1.291223 9.500000 0.000000 -0.711679 0.702505 0.687904 0.689176 255 255 255
-1.044446 1.044446 9.250000 0.000000 -0.711679 0.702505 0.354925 0.642937 255 255 255
1.044446 1.044446 9.250000 0.000000 -0.711679 0.702505 0.643060 0.644989 255 255 255
1.291223 -1.291223 9.500000 -0.711679 0.000000 0.702505 0.689075 0.312096 255 255 255
1.044446 1.044446 9.250000 -0.711679 0.000000 0.702505 0.643060 0.644989 255 255 255
1.044446 -1.044446 9.250000 -0.711679 0.000000 0.702505 0.644937 0.356849 255 255 255
-1.291223 1.291223 9.500000 0.711679 0.000000 0.702505 0.310828 0.687732 255 255 255
-1.044446 -1.044446 9.250000 0.711679 0.000000 0.702505 0.356876 0.354873 255 255 255
-1.044446 1.044446 9.250000 0.711679 0.000000 0.702505 0.354925 0.642937 255 255 255
-3.299003 -3.299003 9.038435 0.000000 -0.787429 0.616405 0.000165 0.000100 255 255 255
2.937686 -2.937686 9.500000 0.000000 -0.787429 0.616405 0.921014 0.076053 255 255 255
-2.937686 -2.937686 9.500000 0.000000 -0.787429 0.616405 0.076104 0.078846 255 255 255
-2.937686 2.937686 9.500000 0.000000 0.000000 1.000000 0.078860 0.923766 255 255 255
-1.291223 -1.291223 9.500000 0.000000 0.000000 1.000000 0.312118 0.310772 255 255 255
-1.291223 1.291223 9.500000 0.000000 0.000000 1.000000 0.310828 0.687732 255 255 255
-2.937686 -2.937686 9.500000 -0.000000 0.000000 1.000000 0.076104 0.078846 255 255 255
2.937686 2.937686 9.500000 0.000000 -0.000000 1.000000 0.923947 0.921112 255 255 255
3.299003 3.299003 9.038435 0.000000 0.787429 0.616405 0.999900 0.999870 255 255 255
-2.937686 2.937686 9.500000 0.000000 0.787429 0.616405 0.078860 0.923766 255 255 255
2.937686 2.937686 9.500000 0.000000 0.787429 0.616405 0.923947 0.921112 255 255 255
3.299003 -3.299003 9.038435 0.787429 -0.000000 0.616405 0.999760 0.000100 255 255 255
2.937686 2.937686 9.500000 0.787429 -0.000000 0.616405 0.923947 0.921112 255 255 255
2.937686 -2.937686 9.500000 0.787429 -0.000000 0.616405 0.921014 0.076053 255 255 255
-3.299003 3.299003 9.038435 -0.787429 0.000000 0.616405 0.000100 0.999707 255 255 255
-2.937686 -2.937686 9.500000 -0.787429 0.000000 0.616405 0.076104 0.078846 255 255 255
-2.937686 2.937686 9.500000 -0.787429 0.000000 0.616405 0.078860 0.923766 255 255 255
-1.365409 1.365409 4.000000 0.987648 0.000000 -0.156688 0.499329 0.499798 255 255 255
1.365409 1.365409 4.000000 0.000000 -0.987648 -0.156688 0.499840 0.500313 255 255 255
1.365409 -1.365409 4.000000 -0.987648 -0.000000 -0.156688 0.500346 0.499779 255 255 255
-1.365409 -1.365409 4.000000 0.000000 0.987648 -0.156688 0.499809 0.499281 255 255 255
2.000000 -2.000000 0.000000 0.000000 0.000000 1.000000 0.499674 0.499729 255 255 255
-1.044446 -1.044446 9.250000 1.000000 0.000000 0.000000 0.356876 0.354873 255 255 255
1.291223 -1.291223 9.500000 0.000000 0.711679 0.702505 0.689075 0.312096 255 255 255
1.044446 -1.044446 9.250000 0.000000 1.000000 -0.000000 0.644937 0.356849 255 255 255
-1.044446 1.044446 9.250000 0.000000 -1.000000 0.000000 0.354925 0.642937 255 255 255
1.044446 1.044446 9.250000 -1.000000 0.000000 0.000000 0.643060 0.644989 255 255 255
-1.291223 1.291223 9.500000 0.000000 -0.711679 0.702505 0.310828 0.687732 255 255 255
1.291223 1.291223 9.500000 -0.711679 0.000000 0.702505 0.687904 0.689176 255 255 255
-1.291223 -1.291223 9.500000 0.711679 -0.000000 0.702505 0.312118 0.310772 255 255 255
3.299003 -3.299003 9.038435 0.000000 -0.787429 0.616405 0.999760 0.000100 255 255 255
3.299003 3.299003 9.038435 0.787429 0.000000 0.616405 0.999900 0.999870 255 255 255
-3.299003 3.299003 9.038435 0.000000 0.787429 0.616405 0.000100 0.999707 255 255 255
-3.299003 -3.299003 9.038435 -0.787429 0.000000 0.616405 0.000165 0.000100 255 255 255
3 0 1 2
3 3 4 5
3 6 7 8
3 9 10 11
3 12 13 14
3 15 16 17
3 18 19 20
3 21 22 19
3 23 24 22
3 25 20 24
3 26 27 28
3 29 30 31
3 32 33 34
3 28 35 36
3 37 38 39
3 40 41 15
3 42 43 29
3 44 45 32
3 46 47 48
3 49 50 51
3 52 53 54
3 55 56 57
3 58 59 60
3 61 62 63
3 64 48 62
3 65 63 47
3 66 67 68
3 69 70 71
3 72 73 74
3 0 75 1
3 3 76 4
3 6 77 7
3 9 78 10
3 12 79 13
3 15 41 16
3 18 21 19
3 21 23 22
3 23 25 24
3 25 18 20
3 26 80 27
3 29 43 30
3 32 45 33
3 28 27 35
3 37 81 38
3 40 82 41
3 42 83 43
3 44 84 45
3 46 65 47
3 49 85 50
3 52 86 53
3 55 87 56
3 61 64 62
3 64 46 48
3 65 61 63
3 88 59 58
3 70 69 89
3 90 67 66
3 73 72 91
