ply
format ascii 1.0
comment Created by Blender 2.79 (sub 0) - www.blender.org, source file: 'hex.blend'
element vertex 7
property float x
property float y
property float z
property float nx
property float ny
property float nz
property float s
property float t
property uchar red
property uchar green
property uchar blue
element face 6
property list uchar uint vertex_indices
end_header
-0.000000 0.000000 -1.000000 0.000000 -1.000000 -0.000000 0.000093 0.433025 255 255 255
0.866025 0.000000 -0.500000 0.000000 -1.000000 -0.000000 0.250047 0.000093 255 255 255
-0.000000 0.000000 0.000000 0.000000 -1.000000 -0.000000 0.500000 0.433025 255 255 255
0.866025 0.000000 0.500000 0.000000 -1.000000 0.000000 0.749954 0.000093 255 255 255
0.000000 0.000000 1.000000 -0.000000 -1.000000 0.000000 0.999907 0.433025 255 255 255
-0.866025 0.000000 0.500000 -0.000000 -1.000000 0.000000 0.749954 0.865957 255 255 255
-0.866025 0.000000 -0.500000 0.000000 -1.000000 -0.000000 0.250047 0.865957 255 255 255
3 0 1 2
3 3 2 1
3 4 2 3
3 5 2 4
3 6 2 5
3 0 2 6
