ply
format ascii 1.0
comment Created by Blender 2.79 (sub 0) - www.blender.org, source file: ''
element vertex 33
property float x
property float y
property float z
property float nx
property float ny
property float nz
property float s
property float t
property uchar red
property uchar green
property uchar blue
element face 12
property list uchar uint vertex_indices
end_header
1.000000 -1.000000 0.000000 -0.000000 -0.000000 -1.000000 0.000000 0.000000 255 255 255
-1.000000 1.000000 0.000000 -0.000000 -0.000000 -1.000000 1.000000 0.000000 255 255 255
1.000000 1.000000 0.000000 -0.000000 -0.000000 -1.000000 1.000000 1.000000 255 255 255
-1.000000 1.000000 0.250000 0.000000 0.000000 1.000000 0.000000 0.000000 255 255 255
0.999999 -1.000001 0.250000 0.000000 0.000000 1.000000 1.000000 0.000000 255 255 255
1.000000 0.999999 0.250000 0.000000 0.000000 1.000000 1.000000 1.000000 255 255 255
1.000000 0.999999 0.250000 1.000000 0.000000 -0.000002 0.000000 0.000000 255 255 255
1.000000 -1.000000 0.000000 1.000000 0.000000 -0.000002 1.000000 0.000000 255 255 255
1.000000 1.000000 0.000000 1.000000 0.000000 -0.000002 1.000000 1.000000 255 255 255
0.999999 -1.000001 0.250000 -0.000000 -1.000000 -0.000002 0.000000 0.000000 255 255 255
-1.000000 -1.000000 0.000000 -0.000000 -1.000000 -0.000002 1.000000 0.000000 255 255 255
1.000000 -1.000000 0.000000 -0.000000 -1.000000 -0.000002 1.000000 1.000000 255 255 255
-1.000000 -1.000000 0.250000 -1.000000 0.000000 -0.000001 0.000000 0.000000 255 255 255
-1.000000 1.000000 0.000000 -1.000000 0.000000 -0.000001 1.000000 0.000000 255 255 255
-1.000000 -1.000000 0.000000 -1.000000 0.000000 -0.000001 1.000000 1.000000 255 255 255
1.000000 1.000000 0.000000 0.000000 1.000000 0.000002 0.000000 0.000000 255 255 255
-1.000000 1.000000 0.250000 0.000000 1.000000 0.000002 1.000000 0.000000 255 255 255
1.000000 0.999999 0.250000 0.000000 1.000000 0.000002 1.000000 1.000000 255 255 255
-1.000000 -1.000000 0.000000 0.000000 -0.000000 -1.000000 1.000000 0.000000 255 255 255
-1.000000 1.000000 0.000000 0.000000 -0.000000 -1.000000 1.000000 1.000000 255 255 255
-1.000000 -1.000000 0.250000 0.000000 -0.000000 1.000000 1.000000 0.000000 255 255 255
0.999999 -1.000001 0.250000 0.000000 -0.000000 1.000000 1.000000 1.000000 255 255 255
1.000000 0.999999 0.250000 1.000000 -0.000001 0.000003 0.000000 0.000000 255 255 255
0.999999 -1.000001 0.250000 1.000000 -0.000001 0.000003 1.000000 0.000000 255 255 255
1.000000 -1.000000 0.000000 1.000000 -0.000001 0.000003 1.000000 1.000000 255 255 255
0.999999 -1.000001 0.250000 -0.000000 -1.000000 0.000001 0.000000 0.000000 255 255 255
-1.000000 -1.000000 0.250000 -0.000000 -1.000000 0.000001 1.000000 0.000000 255 255 255
-1.000000 -1.000000 0.000000 -0.000000 -1.000000 0.000001 1.000000 1.000000 255 255 255
-1.000000 1.000000 0.250000 -1.000000 0.000000 -0.000001 1.000000 0.000000 255 255 255
-1.000000 1.000000 0.000000 -1.000000 0.000000 -0.000001 1.000000 1.000000 255 255 255
1.000000 1.000000 0.000000 0.000000 1.000000 0.000001 0.000000 0.000000 255 255 255
-1.000000 1.000000 0.000000 0.000000 1.000000 0.000001 1.000000 0.000000 255 255 255
-1.000000 1.000000 0.250000 0.000000 1.000000 0.000001 1.000000 1.000000 255 255 255
3 0 1 2
3 3 4 5
3 6 7 8
3 9 10 11
3 12 13 14
3 15 16 17
3 0 18 19
3 3 20 21
3 22 23 24
3 25 26 27
3 12 28 29
3 30 31 32
