ply
format ascii 1.0
comment Created by Blender 2.79 (sub 0) - www.blender.org, source file: 'ring_collider.blend'
element vertex 24
property float x
property float y
property float z
property float nx
property float ny
property float nz
property float s
property float t
property uchar red
property uchar green
property uchar blue
element face 22
property list uchar uint vertex_indices
end_header
0.259725 -0.000000 0.069791 0.000000 -1.000000 0.000000 0.000000 0.000000 255 255 255
0.241077 -0.000000 0.139583 0.000000 -1.000000 0.000000 0.000000 0.000000 255 255 255
0.190132 -0.000000 0.190674 0.000000 -1.000000 0.000000 0.000000 0.000000 255 255 255
0.259725 0.000000 -0.069791 0.000000 -1.000000 -0.000000 0.000000 0.000000 255 255 255
0.278372 0.000000 -0.000000 0.000000 -1.000000 -0.000000 0.000000 0.000000 255 255 255
0.190132 0.000000 -0.190674 -0.000000 -1.000000 -0.000000 0.000000 0.000000 255 255 255
-0.190132 0.000000 -0.190674 -0.000000 -1.000000 -0.000000 0.000000 0.000000 255 255 255
0.139186 -0.000000 0.241765 -0.000000 -1.000000 -0.000000 0.000000 0.000000 255 255 255
0.069593 -0.000000 0.260465 -0.000000 -1.000000 -0.000000 0.000000 0.000000 255 255 255
-0.000000 -0.000000 0.279166 0.000000 -1.000000 -0.000000 0.000000 0.000000 255 255 255
-0.069593 -0.000000 0.260465 0.000000 -1.000000 -0.000000 0.000000 0.000000 255 255 255
-0.139186 -0.000000 0.241765 -0.000000 -1.000000 -0.000000 0.000000 0.000000 255 255 255
-0.190132 -0.000000 0.190674 -0.000000 -1.000000 -0.000000 0.000000 0.000000 255 255 255
-0.241077 -0.000000 0.139583 0.000000 -1.000000 -0.000000 0.000000 0.000000 255 255 255
-0.259725 -0.000000 0.069791 0.000000 -1.000000 -0.000000 0.000000 0.000000 255 255 255
-0.278372 0.000000 -0.000000 -0.000000 -1.000000 -0.000000 0.000000 0.000000 255 255 255
-0.259725 0.000000 -0.069791 -0.000000 -1.000000 -0.000000 0.000000 0.000000 255 255 255
-0.241077 0.000000 -0.139583 0.000000 -1.000000 -0.000000 0.000000 0.000000 255 255 255
-0.139186 0.000000 -0.241765 -0.000000 -1.000000 -0.000000 0.000000 0.000000 255 255 255
-0.069593 0.000000 -0.260465 -0.000000 -1.000000 -0.000000 0.000000 0.000000 255 255 255
0.000000 0.000000 -0.279166 -0.000000 -1.000000 -0.000000 0.000000 0.000000 255 255 255
0.069593 0.000000 -0.260465 -0.000000 -1.000000 -0.000000 0.000000 0.000000 255 255 255
0.139186 0.000000 -0.241765 -0.000000 -1.000000 0.000000 0.000000 0.000000 255 255 255
0.241077 0.000000 -0.139583 0.000000 -1.000000 -0.000000 0.000000 0.000000 255 255 255
3 0 1 2
3 3 4 0
3 5 3 6
3 2 7 8
3 8 9 10
3 10 11 12
3 12 13 14
3 14 15 16
3 16 17 6
3 6 18 19
3 19 20 21
3 21 22 5
3 5 23 3
3 3 0 14
3 0 2 14
3 2 8 10
3 10 12 2
3 12 14 2
3 14 16 3
3 16 6 3
3 6 19 21
3 21 5 6
