ply
format ascii 1.0
comment Created by Blender 2.78 (sub 0) - www.blender.org, source file: 'sprite.blend'
element vertex 4
property float x
property float y
property float z
property float nx
property float ny
property float nz
property float s
property float t
property uchar red
property uchar green
property uchar blue
element face 2
property list uchar uint vertex_indices
end_header
1.000000 -0.067472 -0.997721 0.000000 -0.997721 0.067472 0.000100 0.000100 255 255 255
-1.000000 0.067472 0.997721 0.000000 -0.997721 0.067472 0.999900 0.999900 255 255 255
-1.000000 -0.067472 -0.997721 0.000000 -0.997721 0.067472 0.000100 0.999900 255 255 255
1.000000 0.067472 0.997721 0.000000 -0.997721 0.067472 0.999900 0.000100 255 255 255
3 0 1 2
3 0 3 1
