ply
format ascii 1.0
comment Created by Blender 2.79 (sub 0) - www.blender.org, source file: 'square_ring.blend'
element vertex 320
property float x
property float y
property float z
property float nx
property float ny
property float nz
property float s
property float t
property uchar red
property uchar green
property uchar blue
element face 112
property list uchar uint vertex_indices
end_header
-0.500000 0.080000 -0.230000 -1.000000 0.000001 0.000001 0.000000 0.000000 208 0 255
-0.500000 -0.080000 0.230000 -1.000000 0.000001 0.000001 1.000000 0.000000 208 0 255
-0.500000 0.080000 0.230000 -1.000000 0.000001 0.000001 1.000000 1.000000 208 0 255
0.399164 -0.080000 0.169165 -0.000000 -0.000000 -1.000000 0.000000 0.000000 208 0 255
-0.399165 0.080000 0.169165 -0.000000 -0.000000 -1.000000 1.000000 0.000000 208 2 255
0.399164 0.080000 0.169165 -0.000000 -0.000000 -1.000000 1.000000 1.000000 208 0 255
-0.480000 0.080000 -0.250000 0.000000 0.000000 -1.000000 0.000000 0.000000 208 0 255
0.480000 -0.080000 -0.250000 0.000000 0.000000 -1.000000 1.000000 0.000000 208 0 255
-0.480000 -0.080000 -0.250000 0.000000 0.000000 -1.000000 1.000000 1.000000 208 0 255
0.439165 0.100000 0.189165 0.000000 1.000000 -0.000003 0.000000 0.000000 208 0 255
-0.451716 0.100000 0.230000 0.000000 1.000000 -0.000003 1.000000 0.000000 208 0 255
0.480000 0.100000 0.230000 0.000000 1.000000 -0.000003 1.000000 1.000000 208 0 255
0.410880 -0.100000 0.189165 -0.000000 -1.000000 0.000001 0.000000 0.000000 208 0 255
0.451715 -0.100000 0.230000 -0.000000 -1.000000 0.000001 1.000000 0.000000 208 1 255
-0.480000 -0.100000 0.230000 -0.000000 -1.000000 0.000001 1.000000 1.000000 208 0 255
0.500000 0.080000 0.230000 1.000000 -0.000000 -0.000001 0.000000 0.000000 208 0 255
0.500000 -0.080000 -0.230000 1.000000 -0.000000 -0.000001 1.000000 0.000000 208 0 255
0.500000 0.080000 -0.230000 1.000000 -0.000000 -0.000001 1.000000 1.000000 208 0 255
0.419165 -0.080000 -0.149165 -1.000000 -0.000000 0.000000 0.000000 0.000000 208 0 255
0.419165 0.080000 0.149165 -1.000000 -0.000000 0.000000 1.000000 0.000000 208 0 255
0.419165 0.080000 -0.149165 -1.000000 -0.000000 0.000000 1.000000 1.000000 208 0 255
0.480000 -0.100000 -0.230000 0.000000 -1.000000 -0.000000 0.000000 0.000000 208 0 255
-0.410881 -0.100000 -0.189165 0.000000 -1.000000 -0.000000 1.000000 0.000000 208 0 255
-0.451716 -0.100000 -0.230000 0.000000 -1.000000 -0.000000 1.000000 1.000000 208 0 255
-0.479999 0.080000 0.250000 0.000000 0.000000 1.000000 0.000000 0.000000 208 0 255
0.480000 -0.080000 0.250000 0.000000 0.000000 1.000000 1.000000 0.000000 208 0 255
0.480000 0.080000 0.250000 0.000000 0.000000 1.000000 1.000000 1.000000 208 0 255
0.399164 0.080000 -0.169165 0.000000 -0.000000 1.000000 0.000000 0.000000 208 0 255
-0.399165 -0.080000 -0.169165 0.000000 -0.000000 1.000000 1.000000 0.000000 208 0 255
0.399164 -0.080000 -0.169165 0.000000 -0.000000 1.000000 1.000000 1.000000 213 13 255
-0.419165 0.080000 -0.149165 1.000000 -0.000000 -0.000000 0.000000 0.000000 208 0 255
-0.419165 -0.080000 0.149165 1.000000 -0.000000 -0.000000 1.000000 0.000000 208 0 255
-0.419165 -0.080000 -0.149165 1.000000 -0.000000 -0.000000 1.000000 1.000000 208 0 255
-0.480000 0.100000 -0.230000 -0.577350 0.577350 -0.577351 0.000000 0.000000 208 0 255
-0.480000 0.080000 -0.250000 -0.577350 0.577350 -0.577351 1.000000 0.000000 208 0 255
-0.500000 0.080000 -0.230000 -0.577350 0.577350 -0.577351 1.000000 1.000000 208 0 255
0.451715 0.100000 -0.230000 0.357406 0.862856 -0.357408 0.000000 0.000000 208 0 255
0.500000 0.080000 -0.230000 0.357406 0.862856 -0.357408 1.000000 0.000000 208 0 255
0.480000 0.080000 -0.250000 0.357406 0.862856 -0.357408 1.000000 1.000000 209 3 255
0.500000 -0.080000 -0.230000 0.577350 -0.577350 -0.577350 0.000000 0.000000 208 0 255
0.480000 -0.100000 -0.230000 0.577350 -0.577350 -0.577350 1.000000 0.000000 208 0 255
0.480000 -0.080000 -0.250000 0.577350 -0.577350 -0.577350 1.000000 1.000000 208 0 255
-0.500000 -0.080000 -0.230000 -0.357407 -0.862857 -0.357405 0.000000 0.000000 208 0 255
-0.451716 -0.100000 -0.230000 -0.357407 -0.862857 -0.357405 1.000000 0.000000 208 0 255
-0.480000 -0.100000 -0.201716 -0.357407 -0.862857 -0.357405 1.000000 1.000000 208 0 255
-0.500000 0.080000 0.230000 -0.357409 0.862858 0.357401 0.000000 0.000000 208 0 255
-0.451716 0.100000 0.230000 -0.357409 0.862858 0.357401 1.000000 0.000000 208 0 255
-0.479999 0.100000 0.201715 -0.357409 0.862858 0.357401 1.000000 1.000000 208 0 255
0.500000 0.080000 0.230000 0.577351 0.577349 0.577350 0.000000 0.000000 208 0 255
0.480000 0.100000 0.230000 0.577351 0.577349 0.577350 1.000000 0.000000 208 0 255
0.480000 0.080000 0.250000 0.577351 0.577349 0.577350 1.000000 1.000000 208 0 255
0.500000 -0.080000 0.230000 0.357407 -0.862857 0.357405 0.000000 0.000000 208 0 255
0.451715 -0.100000 0.230000 0.357407 -0.862857 0.357405 1.000000 0.000000 208 0 255
0.480000 -0.100000 0.201716 0.357407 -0.862857 0.357405 1.000000 1.000000 208 0 255
-0.480000 -0.100000 0.230000 -0.577351 -0.577351 0.577349 0.000000 0.000000 208 0 255
-0.480000 -0.080000 0.250000 -0.577351 -0.577351 0.577349 1.000000 0.000000 208 0 255
-0.500000 -0.080000 0.230000 -0.577351 -0.577351 0.577349 1.000000 1.000000 208 0 255
-0.399165 0.080000 0.169165 0.470635 0.746327 -0.470637 0.000000 0.000000 208 0 255
-0.439165 0.100000 0.160881 0.470635 0.746327 -0.470637 1.000000 0.000000 208 0 255
-0.410881 0.100000 0.189165 0.470635 0.746327 -0.470637 1.000000 1.000000 208 0 255
-0.399165 -0.080000 0.169165 0.301511 -0.904534 -0.301511 0.000000 0.000000 208 0 255
-0.439165 -0.100000 0.189165 0.301511 -0.904534 -0.301511 1.000000 0.000000 208 0 255
-0.419165 -0.080000 0.149165 0.301511 -0.904534 -0.301511 1.000000 1.000000 208 0 255
0.410880 0.100000 -0.189165 -0.470635 0.746327 0.470636 0.000000 0.000000 208 0 255
0.419165 0.080000 -0.149165 -0.470635 0.746327 0.470636 1.000000 0.000000 208 0 255
0.439165 0.100000 -0.160881 -0.470635 0.746327 0.470636 1.000000 1.000000 208 0 255
0.419165 -0.080000 -0.149165 -0.301511 -0.904534 0.301511 0.000000 0.000000 208 0 255
0.399164 -0.080000 -0.169165 -0.301511 -0.904534 0.301511 1.000000 0.000000 213 13 255
0.439165 -0.100000 -0.189165 -0.301511 -0.904534 0.301511 1.000000 1.000000 208 0 255
0.419165 0.080000 0.149165 -0.301511 0.904534 -0.301511 0.000000 0.000000 208 0 255
0.399164 0.080000 0.169165 -0.301511 0.904534 -0.301511 1.000000 0.000000 208 0 255
0.439165 0.100000 0.189165 -0.301511 0.904534 -0.301511 1.000000 1.000000 208 0 255
0.410880 -0.100000 0.189165 -0.470634 -0.746328 -0.470636 0.000000 0.000000 208 0 255
0.419164 -0.080000 0.149165 -0.470634 -0.746328 -0.470636 1.000000 0.000000 208 0 255
0.439165 -0.100000 0.160881 -0.470634 -0.746328 -0.470636 1.000000 1.000000 208 0 255
-0.399165 0.080000 -0.169165 0.301511 0.904534 0.301511 0.000000 0.000000 208 0 255
-0.439165 0.100000 -0.189165 0.301511 0.904534 0.301511 1.000000 0.000000 208 0 255
-0.419165 0.080000 -0.149165 0.301511 0.904534 0.301511 1.000000 1.000000 208 0 255
-0.410881 -0.100000 -0.189165 0.470635 -0.746327 0.470636 0.000000 0.000000 208 0 255
-0.419165 -0.080000 -0.149165 0.470635 -0.746327 0.470636 1.000000 0.000000 208 0 255
-0.439165 -0.100000 -0.160881 0.470635 -0.746327 0.470636 1.000000 1.000000 208 0 255
0.451715 0.100000 -0.230000 0.000000 0.707107 -0.707107 0.000000 0.000000 208 0 255
-0.480000 0.080000 -0.250000 0.000000 0.707107 -0.707107 1.000000 0.000000 208 0 255
-0.480000 0.100000 -0.230000 0.000000 0.707107 -0.707107 1.000000 1.000000 208 0 255
-0.480000 -0.080000 -0.250000 -0.707106 0.000001 -0.707108 0.000000 0.000000 208 0 255
-0.500000 0.080000 -0.230000 -0.707106 0.000001 -0.707108 1.000000 0.000000 208 0 255
-0.480000 0.080000 -0.250000 -0.707106 0.000001 -0.707108 1.000000 1.000000 208 0 255
-0.500000 0.080000 -0.230000 -0.707106 0.707107 0.000000 0.000000 0.000000 208 0 255
-0.479999 0.100000 0.201715 -0.707106 0.707107 0.000000 1.000000 0.000000 208 1 255
-0.480000 0.100000 -0.230000 -0.707106 0.707107 0.000000 1.000000 1.000000 208 0 255
0.500000 -0.080000 -0.230000 0.707106 -0.000000 -0.707107 0.000000 0.000000 208 0 255
0.480000 0.080000 -0.250000 0.707106 -0.000000 -0.707107 1.000000 0.000000 209 3 255
0.500000 0.080000 -0.230000 0.707106 -0.000000 -0.707107 1.000000 1.000000 208 0 255
0.480000 0.100000 -0.201716 0.707107 0.707107 -0.000000 0.000000 0.000000 208 0 255
0.500000 0.080000 0.230000 0.707107 0.707107 -0.000000 1.000000 0.000000 208 0 255
0.500000 0.080000 -0.230000 0.707107 0.707107 -0.000000 1.000000 1.000000 208 0 255
-0.451716 -0.100000 -0.230000 0.000000 -0.707107 -0.707107 0.000000 0.000000 208 0 255
0.480000 -0.080000 -0.250000 0.000000 -0.707107 -0.707107 1.000000 0.000000 208 0 255
0.480000 -0.100000 -0.230000 0.000000 -0.707107 -0.707107 1.000000 1.000000 208 0 255
0.500000 -0.080000 -0.230000 0.707107 -0.707107 -0.000000 0.000000 0.000000 208 0 255
0.480000 -0.100000 0.201716 0.707107 -0.707107 -0.000000 1.000000 0.000000 208 0 255
0.480000 -0.100000 -0.230000 0.707107 -0.707107 -0.000000 1.000000 1.000000 208 0 255
-0.480000 -0.100000 -0.201716 -0.707107 -0.707106 0.000000 0.000000 0.000000 208 0 255
-0.500000 -0.080000 0.230000 -0.707107 -0.707106 0.000000 1.000000 0.000000 208 0 255
-0.500000 -0.080000 -0.230000 -0.707107 -0.707106 0.000000 1.000000 1.000000 208 0 255
0.480000 0.080000 0.250000 0.000000 0.707107 0.707106 0.000000 0.000000 208 0 255
-0.451716 0.100000 0.230000 0.000000 0.707107 0.707106 1.000000 0.000000 208 0 255
-0.479999 0.080000 0.250000 0.000000 0.707107 0.707106 1.000000 1.000000 208 0 255
-0.500000 0.080000 0.230000 -0.707106 0.000001 0.707108 0.000000 0.000000 208 0 255
-0.480000 -0.080000 0.250000 -0.707106 0.000001 0.707108 1.000000 0.000000 208 0 255
-0.479999 0.080000 0.250000 -0.707106 0.000001 0.707108 1.000000 1.000000 208 0 255
0.480000 0.080000 0.250000 0.707107 -0.000001 0.707107 0.000000 0.000000 208 0 255
0.500000 -0.080000 0.230000 0.707107 -0.000001 0.707107 1.000000 0.000000 208 0 255
0.500000 0.080000 0.230000 0.707107 -0.000001 0.707107 1.000000 1.000000 208 0 255
-0.480000 -0.080000 0.250000 0.000000 -0.707107 0.707106 0.000000 0.000000 208 0 255
0.451715 -0.100000 0.230000 0.000000 -0.707107 0.707106 1.000000 0.000000 208 1 255
0.480000 -0.080000 0.250000 0.000000 -0.707107 0.707106 1.000000 1.000000 208 0 255
0.439165 0.100000 -0.160881 -0.707107 0.707107 0.000000 0.000000 0.000000 208 0 255
0.419165 0.080000 0.149165 -0.707107 0.707107 0.000000 1.000000 0.000000 208 0 255
0.439165 0.100000 0.189165 -0.707107 0.707107 0.000000 1.000000 1.000000 208 0 255
0.419165 -0.080000 -0.149165 -0.707106 -0.707108 -0.000000 0.000000 0.000000 208 0 255
0.439165 -0.100000 0.160881 -0.707106 -0.707108 -0.000000 1.000000 0.000000 208 0 255
0.419164 -0.080000 0.149165 -0.707106 -0.707108 -0.000000 1.000000 1.000000 208 0 255
-0.399165 0.080000 -0.169165 -0.000000 0.707107 0.707107 0.000000 0.000000 208 0 255
0.410880 0.100000 -0.189165 -0.000000 0.707107 0.707107 1.000000 0.000000 208 0 255
-0.439165 0.100000 -0.189165 -0.000000 0.707107 0.707107 1.000000 1.000000 208 0 255
-0.410881 -0.100000 -0.189165 0.000000 -0.707107 0.707107 0.000000 0.000000 208 0 255
0.399164 -0.080000 -0.169165 0.000000 -0.707107 0.707107 1.000000 0.000000 213 13 255
-0.399165 -0.080000 -0.169165 0.000000 -0.707107 0.707107 1.000000 1.000000 208 0 255
-0.410881 0.100000 0.189165 0.000000 0.707107 -0.707107 0.000000 0.000000 208 0 255
0.399164 0.080000 0.169165 0.000000 0.707107 -0.707107 1.000000 0.000000 208 0 255
-0.399165 0.080000 0.169165 0.000000 0.707107 -0.707107 1.000000 1.000000 208 0 255
-0.399165 -0.080000 0.169165 0.000000 -0.707107 -0.707107 0.000000 0.000000 208 0 255
0.410880 -0.100000 0.189165 0.000000 -0.707107 -0.707107 1.000000 0.000000 208 0 255
-0.439165 -0.100000 0.189165 0.000000 -0.707107 -0.707107 1.000000 1.000000 208 0 255
-0.419165 0.080000 -0.149165 0.707106 0.707107 0.000000 0.000000 0.000000 208 0 255
-0.439165 0.100000 0.160881 0.707106 0.707107 0.000000 1.000000 0.000000 208 0 255
-0.419165 0.080000 0.149165 0.707106 0.707107 0.000000 1.000000 1.000000 208 0 255
-0.439165 -0.100000 -0.160881 0.707106 -0.707107 -0.000000 0.000000 0.000000 208 0 255
-0.419165 -0.080000 0.149165 0.707106 -0.707107 -0.000000 1.000000 0.000000 208 0 255
-0.439165 -0.100000 0.189165 0.707106 -0.707107 -0.000000 1.000000 1.000000 208 0 255
-0.419165 -0.080000 -0.149165 0.707107 -0.000000 0.707107 0.000000 0.000000 208 0 255
-0.399165 0.080000 -0.169165 0.707107 -0.000000 0.707107 1.000000 0.000000 208 0 255
-0.419165 0.080000 -0.149165 0.707107 -0.000000 0.707107 1.000000 1.000000 208 0 255
-0.419165 0.080000 0.149165 0.707107 0.000000 -0.707107 0.000000 0.000000 208 0 255
-0.399165 -0.080000 0.169165 0.707107 0.000000 -0.707107 1.000000 0.000000 208 0 255
-0.419165 -0.080000 0.149165 0.707107 0.000000 -0.707107 1.000000 1.000000 208 0 255
0.419165 0.080000 -0.149165 -0.707106 -0.000000 0.707108 0.000000 0.000000 208 0 255
0.399164 -0.080000 -0.169165 -0.707106 -0.000000 0.707108 1.000000 0.000000 208 0 255
0.419165 -0.080000 -0.149165 -0.707106 -0.000000 0.707108 1.000000 1.000000 208 0 255
0.419164 -0.080000 0.149165 -0.707106 0.000000 -0.707108 0.000000 0.000000 208 0 255
0.399164 0.080000 0.169165 -0.707106 0.000000 -0.707108 1.000000 0.000000 208 0 255
0.419165 0.080000 0.149165 -0.707106 0.000000 -0.707108 1.000000 1.000000 208 0 255
-0.479999 0.100000 0.201715 0.000000 1.000000 -0.000000 0.000000 0.000000 208 0 255
-0.410881 0.100000 0.189165 0.000000 1.000000 -0.000000 1.000000 0.000000 208 0 255
-0.439165 0.100000 0.160881 0.000000 1.000000 -0.000000 1.000000 1.000000 208 0 255
0.480000 0.100000 -0.201716 -0.000000 1.000000 0.000000 0.000000 0.000000 208 0 255
0.410880 0.100000 -0.189165 -0.000000 1.000000 0.000000 1.000000 0.000000 208 0 255
0.439165 0.100000 -0.160881 -0.000000 1.000000 0.000000 1.000000 1.000000 208 0 255
0.480000 -0.100000 0.201716 0.000001 -1.000000 -0.000001 0.000000 0.000000 208 0 255
0.410880 -0.100000 0.189165 0.000001 -1.000000 -0.000001 1.000000 0.000000 208 0 255
0.439165 -0.100000 0.160881 0.000001 -1.000000 -0.000001 1.000000 1.000000 213 21 255
-0.480000 -0.100000 -0.201716 0.000000 -1.000000 0.000000 0.000000 0.000000 208 0 255
-0.439165 -0.100000 -0.160881 0.000000 -1.000000 0.000000 1.000000 1.000000 208 0 255
-0.480000 0.100000 -0.230000 0.000000 1.000000 0.000000 0.000000 0.000000 208 0 255
0.451715 0.100000 -0.230000 0.000000 1.000000 0.000000 1.000000 1.000000 208 0 255
-0.500000 -0.080000 -0.230000 -1.000000 0.000001 0.000001 1.000000 0.000000 208 0 255
-0.500000 -0.080000 0.230000 -1.000000 0.000001 0.000001 1.000000 1.000000 208 0 255
-0.399165 -0.080000 0.169165 0.000000 0.000000 -1.000000 1.000000 0.000000 208 2 255
-0.399165 0.080000 0.169165 0.000000 0.000000 -1.000000 1.000000 1.000000 208 2 255
0.480000 0.080000 -0.250000 -0.000000 0.000000 -1.000000 1.000000 0.000000 208 0 255
0.480000 -0.080000 -0.250000 -0.000000 0.000000 -1.000000 1.000000 1.000000 208 0 255
0.480000 0.100000 0.230000 -0.000001 1.000000 0.000000 0.000000 0.000000 208 0 255
0.480000 0.100000 -0.201716 -0.000001 1.000000 0.000000 1.000000 0.000000 208 0 255
0.439165 0.100000 -0.160881 -0.000001 1.000000 0.000000 1.000000 1.000000 208 0 255
0.439165 0.100000 0.189165 0.000000 1.000000 -0.000001 0.000000 0.000000 208 0 255
-0.410881 0.100000 0.189165 0.000000 1.000000 -0.000001 1.000000 0.000000 208 0 255
-0.451716 0.100000 0.230000 0.000000 1.000000 -0.000001 1.000000 1.000000 208 0 255
0.480000 0.100000 0.230000 -0.000003 1.000000 0.000000 0.000000 0.000000 208 0 255
0.439165 0.100000 -0.160881 -0.000003 1.000000 0.000000 1.000000 0.000000 208 0 255
0.439165 0.100000 0.189165 -0.000003 1.000000 0.000000 1.000000 1.000000 208 0 255
-0.480000 -0.100000 0.230000 -0.000001 -1.000000 0.000000 0.000000 0.000000 208 0 255
-0.480000 -0.100000 -0.201716 -0.000001 -1.000000 0.000000 1.000000 0.000000 208 0 255
-0.439165 -0.100000 0.189165 -0.000001 -1.000000 0.000000 1.000000 1.000000 208 0 255
-0.439165 -0.100000 0.189165 0.000000 -1.000000 0.000001 0.000000 0.000000 208 0 255
0.410880 -0.100000 0.189165 0.000000 -1.000000 0.000001 1.000000 0.000000 208 0 255
-0.480000 -0.100000 -0.201716 0.000001 -1.000000 -0.000000 0.000000 0.000000 208 0 255
-0.439165 -0.100000 -0.160881 0.000001 -1.000000 -0.000000 1.000000 0.000000 208 0 255
-0.439165 -0.100000 0.189165 0.000001 -1.000000 -0.000000 1.000000 1.000000 208 0 255
0.500000 0.080000 0.230000 1.000000 -0.000001 -0.000000 0.000000 0.000000 208 0 255
0.500000 -0.080000 0.230000 1.000000 -0.000001 -0.000000 1.000000 0.000000 208 0 255
0.500000 -0.080000 -0.230000 1.000000 -0.000001 -0.000000 1.000000 1.000000 208 0 255
0.419164 -0.080000 0.149165 -1.000000 0.000000 -0.000000 1.000000 0.000000 208 0 255
0.419165 0.080000 0.149165 -1.000000 0.000000 -0.000000 1.000000 1.000000 208 0 255
0.480000 -0.100000 -0.230000 0.000001 -1.000000 -0.000000 0.000000 0.000000 208 0 255
0.480000 -0.100000 0.201716 0.000001 -1.000000 -0.000000 1.000000 0.000000 208 0 255
0.439165 -0.100000 -0.189165 0.000001 -1.000000 -0.000000 1.000000 1.000000 208 0 255
0.439165 -0.100000 -0.189165 0.000000 -1.000000 -0.000001 0.000000 0.000000 208 0 255
-0.410881 -0.100000 -0.189165 0.000000 -1.000000 -0.000001 1.000000 0.000000 208 0 255
0.480000 -0.100000 -0.230000 0.000000 -1.000000 -0.000001 1.000000 1.000000 208 0 255
0.480000 -0.100000 0.201716 0.000000 -1.000000 -0.000000 0.000000 0.000000 208 0 255
0.439165 -0.100000 0.160881 0.000000 -1.000000 -0.000000 1.000000 0.000000 213 21 255
0.439165 -0.100000 -0.189165 0.000000 -1.000000 -0.000000 1.000000 1.000000 208 0 255
-0.480000 -0.080000 0.250000 0.000000 -0.000000 1.000000 1.000000 0.000000 208 0 255
0.480000 -0.080000 0.250000 0.000000 -0.000000 1.000000 1.000000 1.000000 208 0 255
-0.399165 0.080000 -0.169165 -0.000000 0.000000 1.000000 1.000000 0.000000 208 0 255
-0.399165 -0.080000 -0.169165 -0.000000 0.000000 1.000000 1.000000 1.000000 208 0 255
-0.419165 0.080000 0.149165 1.000000 -0.000000 0.000000 1.000000 0.000000 208 0 255
-0.419165 -0.080000 0.149165 1.000000 -0.000000 0.000000 1.000000 1.000000 208 0 255
0.451715 0.100000 -0.230000 0.357407 0.862857 -0.357406 0.000000 0.000000 208 0 255
0.480000 0.100000 -0.201716 0.357407 0.862857 -0.357406 1.000000 0.000000 208 0 255
0.500000 0.080000 -0.230000 0.357407 0.862857 -0.357406 1.000000 1.000000 208 0 255
-0.500000 -0.080000 -0.230000 -0.357407 -0.862856 -0.357406 0.000000 0.000000 208 0 255
-0.480000 -0.080000 -0.250000 -0.357407 -0.862856 -0.357406 1.000000 0.000000 208 0 255
-0.451716 -0.100000 -0.230000 -0.357407 -0.862856 -0.357406 1.000000 1.000000 208 0 255
-0.500000 0.080000 0.230000 -0.357408 0.862855 0.357409 0.000000 0.000000 208 0 255
-0.479999 0.080000 0.250000 -0.357408 0.862855 0.357409 1.000000 0.000000 208 0 255
-0.451716 0.100000 0.230000 -0.357408 0.862855 0.357409 1.000000 1.000000 208 0 255
0.500000 -0.080000 0.230000 0.357407 -0.862856 0.357407 0.000000 0.000000 208 0 255
0.480000 -0.080000 0.250000 0.357407 -0.862856 0.357407 1.000000 0.000000 208 0 255
0.451715 -0.100000 0.230000 0.357407 -0.862856 0.357407 1.000000 1.000000 208 0 255
-0.399165 0.080000 0.169165 0.470635 0.746328 -0.470635 0.000000 0.000000 208 0 255
-0.419165 0.080000 0.149165 0.470635 0.746328 -0.470635 1.000000 0.000000 208 0 255
-0.439165 0.100000 0.160881 0.470635 0.746328 -0.470635 1.000000 1.000000 208 0 255
0.410880 0.100000 -0.189165 -0.470636 0.746327 0.470636 0.000000 0.000000 208 0 255
0.399164 0.080000 -0.169165 -0.470636 0.746327 0.470636 1.000000 0.000000 208 0 255
0.419165 0.080000 -0.149165 -0.470636 0.746327 0.470636 1.000000 1.000000 208 0 255
0.410880 -0.100000 0.189165 -0.470636 -0.746327 -0.470636 0.000000 0.000000 208 0 255
0.399164 -0.080000 0.169165 -0.470636 -0.746327 -0.470636 1.000000 0.000000 208 0 255
0.419164 -0.080000 0.149165 -0.470636 -0.746327 -0.470636 1.000000 1.000000 208 0 255
-0.410881 -0.100000 -0.189165 0.470635 -0.746328 0.470636 0.000000 0.000000 208 0 255
-0.399165 -0.080000 -0.169165 0.470635 -0.746328 0.470636 1.000000 0.000000 208 0 255
-0.419165 -0.080000 -0.149165 0.470635 -0.746328 0.470636 1.000000 1.000000 208 0 255
0.451715 0.100000 -0.230000 -0.000000 0.707107 -0.707106 0.000000 0.000000 208 0 255
0.480000 0.080000 -0.250000 -0.000000 0.707107 -0.707106 1.000000 0.000000 208 0 255
-0.480000 0.080000 -0.250000 -0.000000 0.707107 -0.707106 1.000000 1.000000 208 0 255
-0.480000 -0.080000 -0.250000 -0.707107 0.000001 -0.707107 0.000000 0.000000 208 0 255
-0.500000 -0.080000 -0.230000 -0.707107 0.000001 -0.707107 1.000000 0.000000 208 0 255
-0.500000 0.080000 -0.230000 -0.707107 0.000001 -0.707107 1.000000 1.000000 208 0 255
-0.500000 0.080000 -0.230000 -0.707105 0.707108 0.000000 0.000000 0.000000 208 0 255
-0.500000 0.080000 0.230000 -0.707105 0.707108 0.000000 1.000000 0.000000 208 0 255
-0.479999 0.100000 0.201715 -0.707105 0.707108 0.000000 1.000000 1.000000 208 1 255
0.500000 -0.080000 -0.230000 0.707107 0.000000 -0.707107 0.000000 0.000000 208 0 255
0.480000 -0.080000 -0.250000 0.707107 0.000000 -0.707107 1.000000 0.000000 208 0 255
0.480000 0.080000 -0.250000 0.707107 0.000000 -0.707107 1.000000 1.000000 209 3 255
0.480000 0.100000 -0.201716 0.707108 0.707106 -0.000000 0.000000 0.000000 208 0 255
0.480000 0.100000 0.230000 0.707108 0.707106 -0.000000 1.000000 0.000000 208 0 255
0.500000 0.080000 0.230000 0.707108 0.707106 -0.000000 1.000000 1.000000 208 0 255
-0.451716 -0.100000 -0.230000 0.000000 -0.707108 -0.707106 0.000000 0.000000 208 0 255
-0.480000 -0.080000 -0.250000 0.000000 -0.707108 -0.707106 1.000000 0.000000 208 0 255
0.480000 -0.080000 -0.250000 0.000000 -0.707108 -0.707106 1.000000 1.000000 208 0 255
0.500000 -0.080000 -0.230000 0.707106 -0.707108 -0.000000 0.000000 0.000000 208 0 255
0.500000 -0.080000 0.230000 0.707106 -0.707108 -0.000000 1.000000 0.000000 208 0 255
0.480000 -0.100000 0.201716 0.707106 -0.707108 -0.000000 1.000000 1.000000 208 0 255
-0.480000 -0.100000 -0.201716 -0.707107 -0.707107 0.000000 0.000000 0.000000 208 0 255
-0.480000 -0.100000 0.230000 -0.707107 -0.707107 0.000000 1.000000 0.000000 208 0 255
-0.500000 -0.080000 0.230000 -0.707107 -0.707107 0.000000 1.000000 1.000000 208 0 255
0.480000 0.080000 0.250000 0.000000 0.707107 0.707107 0.000000 0.000000 208 0 255
0.480000 0.100000 0.230000 0.000000 0.707107 0.707107 1.000000 0.000000 208 0 255
-0.451716 0.100000 0.230000 0.000000 0.707107 0.707107 1.000000 1.000000 208 0 255
-0.500000 0.080000 0.230000 -0.707107 0.000001 0.707107 0.000000 0.000000 208 0 255
-0.500000 -0.080000 0.230000 -0.707107 0.000001 0.707107 1.000000 0.000000 208 0 255
-0.480000 -0.080000 0.250000 -0.707107 0.000001 0.707107 1.000000 1.000000 208 0 255
0.480000 0.080000 0.250000 0.707106 -0.000001 0.707108 0.000000 0.000000 208 0 255
0.480000 -0.080000 0.250000 0.707106 -0.000001 0.707108 1.000000 0.000000 208 0 255
0.500000 -0.080000 0.230000 0.707106 -0.000001 0.707108 1.000000 1.000000 208 0 255
-0.480000 -0.080000 0.250000 -0.000000 -0.707108 0.707106 0.000000 0.000000 208 0 255
-0.480000 -0.100000 0.230000 -0.000000 -0.707108 0.707106 1.000000 0.000000 208 0 255
0.451715 -0.100000 0.230000 -0.000000 -0.707108 0.707106 1.000000 1.000000 208 1 255
0.439165 0.100000 -0.160881 -0.707107 0.707106 0.000000 0.000000 0.000000 208 0 255
0.419165 0.080000 -0.149165 -0.707107 0.707106 0.000000 1.000000 0.000000 208 0 255
0.419165 0.080000 0.149165 -0.707107 0.707106 0.000000 1.000000 1.000000 208 0 255
0.419165 -0.080000 -0.149165 -0.707106 -0.707107 -0.000000 0.000000 0.000000 208 0 255
0.439165 -0.100000 -0.189165 -0.707106 -0.707107 -0.000000 1.000000 0.000000 208 0 255
0.439165 -0.100000 0.160881 -0.707106 -0.707107 -0.000000 1.000000 1.000000 208 0 255
-0.399165 0.080000 -0.169165 0.000000 0.707106 0.707108 0.000000 0.000000 208 0 255
0.399164 0.080000 -0.169165 0.000000 0.707106 0.707108 1.000000 0.000000 208 0 255
0.410880 0.100000 -0.189165 0.000000 0.707106 0.707108 1.000000 1.000000 208 0 255
0.439165 -0.100000 -0.189165 0.000000 -0.707107 0.707107 1.000000 0.000000 208 0 255
0.399164 -0.080000 -0.169165 0.000000 -0.707107 0.707107 1.000000 1.000000 213 13 255
0.439165 0.100000 0.189165 0.000000 0.707107 -0.707107 1.000000 0.000000 208 0 255
0.399164 0.080000 0.169165 0.000000 0.707107 -0.707107 1.000000 1.000000 208 0 255
-0.399165 -0.080000 0.169165 -0.000000 -0.707106 -0.707107 0.000000 0.000000 208 0 255
0.399164 -0.080000 0.169165 -0.000000 -0.707106 -0.707107 1.000000 0.000000 208 0 255
0.410880 -0.100000 0.189165 -0.000000 -0.707106 -0.707107 1.000000 1.000000 208 0 255
-0.419165 0.080000 -0.149165 0.707106 0.707108 -0.000000 0.000000 0.000000 208 0 255
-0.439165 0.100000 -0.189165 0.707106 0.707108 -0.000000 1.000000 0.000000 208 0 255
-0.439165 0.100000 0.160881 0.707106 0.707108 -0.000000 1.000000 1.000000 208 0 255
-0.439165 -0.100000 -0.160881 0.707107 -0.707107 -0.000000 0.000000 0.000000 208 0 255
-0.419165 -0.080000 -0.149165 0.707107 -0.707107 -0.000000 1.000000 0.000000 208 0 255
-0.419165 -0.080000 0.149165 0.707107 -0.707107 -0.000000 1.000000 1.000000 208 0 255
-0.419165 -0.080000 -0.149165 0.707106 0.000000 0.707108 0.000000 0.000000 208 0 255
-0.399165 -0.080000 -0.169165 0.707106 0.000000 0.707108 1.000000 0.000000 208 0 255
-0.399165 0.080000 -0.169165 0.707106 0.000000 0.707108 1.000000 1.000000 208 0 255
-0.399165 0.080000 0.169165 0.707107 0.000000 -0.707107 1.000000 0.000000 208 0 255
-0.399165 -0.080000 0.169165 0.707107 0.000000 -0.707107 1.000000 1.000000 208 2 255
0.419165 0.080000 -0.149165 -0.707106 0.000000 0.707107 0.000000 0.000000 208 0 255
0.399164 0.080000 -0.169165 -0.707106 0.000000 0.707107 1.000000 0.000000 208 0 255
0.399164 -0.080000 -0.169165 -0.707106 0.000000 0.707107 1.000000 1.000000 208 0 255
0.419164 -0.080000 0.149165 -0.707107 -0.000000 -0.707107 0.000000 0.000000 208 0 255
0.399164 -0.080000 0.169165 -0.707107 -0.000000 -0.707107 1.000000 0.000000 208 0 255
0.399164 0.080000 0.169165 -0.707107 -0.000000 -0.707107 1.000000 1.000000 208 0 255
-0.451716 0.100000 0.230000 0.000000 1.000000 -0.000000 1.000000 0.000000 208 0 255
-0.410881 0.100000 0.189165 0.000000 1.000000 -0.000000 1.000000 1.000000 208 0 255
0.480000 0.100000 -0.201716 -0.000001 1.000000 -0.000001 0.000000 0.000000 208 0 255
0.451715 0.100000 -0.230000 -0.000001 1.000000 -0.000001 1.000000 0.000000 208 0 255
0.410880 0.100000 -0.189165 -0.000001 1.000000 -0.000001 1.000000 1.000000 208 0 255
0.451715 -0.100000 0.230000 0.000000 -1.000000 0.000000 1.000000 0.000000 208 1 255
0.410880 -0.100000 0.189165 0.000000 -1.000000 0.000000 1.000000 1.000000 208 0 255
-0.480000 -0.100000 -0.201716 0.000001 -1.000000 -0.000001 0.000000 0.000000 208 0 255
-0.451716 -0.100000 -0.230000 0.000001 -1.000000 -0.000001 1.000000 0.000000 208 0 255
-0.410881 -0.100000 -0.189165 0.000001 -1.000000 -0.000001 1.000000 1.000000 208 0 255
-0.480000 0.100000 -0.230000 0.000001 1.000000 -0.000000 0.000000 0.000000 208 0 255
-0.479999 0.100000 0.201715 0.000001 1.000000 -0.000000 1.000000 0.000000 208 0 255
-0.439165 0.100000 -0.189165 0.000001 1.000000 -0.000000 1.000000 1.000000 208 0 255
-0.439165 0.100000 -0.189165 -0.000000 1.000000 0.000001 0.000000 0.000000 208 0 255
0.410880 0.100000 -0.189165 -0.000000 1.000000 0.000001 1.000000 0.000000 208 0 255
-0.480000 0.100000 -0.230000 -0.000000 1.000000 0.000001 1.000000 1.000000 208 0 255
-0.479999 0.100000 0.201715 0.000001 1.000000 -0.000000 0.000000 0.000000 208 0 255
-0.439165 0.100000 0.160881 0.000001 1.000000 -0.000000 1.000000 0.000000 208 0 255
3 0 1 2
3 3 4 5
3 6 7 8
3 9 10 11
3 12 13 14
3 15 16 17
3 18 19 20
3 21 22 23
3 24 25 26
3 27 28 29
3 30 31 32
3 33 34 35
3 36 37 38
3 39 40 41
3 42 43 44
3 45 46 47
3 48 49 50
3 51 52 53
3 54 55 56
3 57 58 59
3 60 61 62
3 63 64 65
3 66 67 68
3 69 70 71
3 72 73 74
3 75 76 77
3 78 79 80
3 81 82 83
3 84 85 86
3 87 88 89
3 90 91 92
3 93 94 95
3 96 97 98
3 99 100 101
3 102 103 104
3 105 106 107
3 108 109 110
3 111 112 113
3 114 115 116
3 117 118 119
3 120 121 122
3 123 124 125
3 126 127 128
3 129 130 131
3 132 133 134
3 135 136 137
3 138 139 140
3 141 142 143
3 144 145 146
3 147 148 149
3 150 151 152
3 153 154 155
3 156 157 158
3 159 160 161
3 162 22 163
3 164 157 165
3 0 166 167
3 3 168 169
3 6 170 171
3 172 173 174
3 175 176 177
3 178 179 180
3 181 182 183
3 184 185 14
3 186 187 188
3 189 190 191
3 18 192 193
3 194 195 196
3 197 198 199
3 200 201 202
3 24 203 204
3 27 205 206
3 30 207 208
3 209 210 211
3 212 213 214
3 215 216 217
3 218 219 220
3 221 222 223
3 224 225 226
3 227 228 229
3 230 231 232
3 233 234 235
3 236 237 238
3 239 240 241
3 242 243 244
3 245 246 247
3 248 249 250
3 251 252 253
3 254 255 256
3 257 258 259
3 260 261 262
3 263 264 265
3 266 267 268
3 269 270 271
3 272 273 274
3 275 276 277
3 126 278 279
3 129 280 281
3 282 283 284
3 285 286 287
3 288 289 290
3 291 292 293
3 144 294 295
3 296 297 298
3 299 300 301
3 153 302 303
3 304 305 306
3 200 307 308
3 309 310 311
3 312 313 314
3 315 316 317
3 318 319 314
