ply
format ascii 1.0
comment Created by Blender 2.79 (sub 0) - www.blender.org, source file: 'target.blend'
element vertex 148
property float x
property float y
property float z
property float nx
property float ny
property float nz
property float s
property float t
property uchar red
property uchar green
property uchar blue
element face 60
property list uchar uint vertex_indices
end_header
0.000000 0.025547 1.000000 0.176878 0.889224 0.421895 0.000000 0.000000 255 75 122
0.191342 0.461940 0.000000 0.176878 0.889224 0.421895 1.000000 0.000000 255 75 122
0.000000 0.500000 0.000000 0.176878 0.889224 0.421895 1.000000 1.000000 255 75 122
0.009777 0.023603 1.000000 0.503705 0.753848 0.421895 0.000000 0.000000 255 75 122
0.353553 0.353553 0.000000 0.503705 0.753848 0.421895 1.000000 0.000000 255 75 122
0.191342 0.461940 0.000000 0.503705 0.753848 0.421895 1.000000 1.000000 255 75 122
0.018065 0.018065 1.000000 0.753848 0.503705 0.421895 0.000000 0.000000 255 75 122
0.461940 0.191342 0.000000 0.753848 0.503705 0.421895 1.000000 0.000000 255 83 128
0.353553 0.353553 0.000000 0.753848 0.503705 0.421895 1.000000 1.000000 255 75 122
0.023603 0.009777 1.000000 0.889224 0.176878 0.421895 0.000000 0.000000 255 75 122
0.500000 -0.000000 0.000000 0.889224 0.176878 0.421895 1.000000 0.000000 255 75 122
0.461940 0.191342 0.000000 0.889224 0.176878 0.421895 1.000000 1.000000 255 83 128
0.025547 -0.000000 1.000000 0.889224 -0.176878 0.421895 0.000000 0.000000 255 75 122
0.461940 -0.191342 0.000000 0.889224 -0.176878 0.421895 1.000000 0.000000 255 75 122
0.500000 -0.000000 0.000000 0.889224 -0.176878 0.421895 1.000000 1.000000 255 75 122
0.023603 -0.009777 1.000000 0.753848 -0.503705 0.421895 0.000000 0.000000 255 75 122
0.353553 -0.353553 0.000000 0.753848 -0.503705 0.421895 1.000000 0.000000 255 75 122
0.461940 -0.191342 0.000000 0.753848 -0.503705 0.421895 1.000000 1.000000 255 75 122
0.018065 -0.018065 1.000000 0.503705 -0.753848 0.421895 0.000000 0.000000 255 75 122
0.191342 -0.461940 0.000000 0.503705 -0.753848 0.421895 1.000000 0.000000 255 75 122
0.353553 -0.353553 0.000000 0.503705 -0.753848 0.421895 1.000000 1.000000 255 75 122
0.009777 -0.023603 1.000000 0.176878 -0.889224 0.421895 0.000000 0.000000 255 75 122
0.000000 -0.500000 0.000000 0.176878 -0.889224 0.421895 1.000000 0.000000 255 75 122
0.191342 -0.461940 0.000000 0.176878 -0.889224 0.421895 1.000000 1.000000 255 75 122
0.000000 -0.025547 1.000000 -0.176877 -0.889224 0.421895 0.000000 0.000000 255 75 122
-0.191342 -0.461940 0.000000 -0.176877 -0.889224 0.421895 1.000000 0.000000 255 75 122
0.000000 -0.500000 0.000000 -0.176877 -0.889224 0.421895 1.000000 1.000000 255 75 122
-0.009776 -0.023603 1.000000 -0.503705 -0.753848 0.421895 0.000000 0.000000 255 75 122
-0.353553 -0.353554 0.000000 -0.503705 -0.753848 0.421895 1.000000 0.000000 255 75 122
-0.191342 -0.461940 0.000000 -0.503705 -0.753848 0.421895 1.000000 1.000000 255 75 122
-0.018065 -0.018065 1.000000 -0.753848 -0.503705 0.421895 0.000000 0.000000 255 75 122
-0.461940 -0.191342 0.000000 -0.753848 -0.503705 0.421895 1.000000 0.000000 255 75 122
-0.353553 -0.353554 0.000000 -0.753848 -0.503705 0.421895 1.000000 1.000000 255 75 122
-0.461940 -0.191342 0.000000 -0.889224 -0.176878 0.421895 0.000000 0.000000 255 75 122
-0.025547 0.000000 1.000000 -0.889224 -0.176878 0.421895 1.000000 0.000000 255 75 122
-0.500000 0.000000 0.000000 -0.889224 -0.176878 0.421895 1.000000 1.000000 255 75 122
-0.500000 0.000000 0.000000 -0.889224 0.176878 0.421895 0.000000 0.000000 255 75 122
-0.023603 0.009777 1.000000 -0.889224 0.176878 0.421895 1.000000 0.000000 255 75 122
-0.461940 0.191342 0.000000 -0.889224 0.176878 0.421895 1.000000 1.000000 255 75 122
-0.023603 0.009777 1.000000 -0.753847 0.503705 0.421895 0.000000 0.000000 255 75 122
-0.353553 0.353554 0.000000 -0.753847 0.503705 0.421895 1.000000 0.000000 255 75 122
-0.461940 0.191342 0.000000 -0.753847 0.503705 0.421895 1.000000 1.000000 255 75 122
0.000000 -0.025547 1.000000 0.000000 0.000000 1.000000 0.000000 0.000000 255 75 122
0.018065 -0.018065 1.000000 0.000000 0.000000 1.000000 1.000000 0.000000 255 75 122
0.018065 0.018065 1.000000 0.000000 0.000000 1.000000 1.000000 1.000000 255 75 122
-0.018065 0.018065 1.000000 -0.503705 0.753848 0.421895 0.000000 0.000000 255 75 122
-0.191341 0.461940 0.000000 -0.503705 0.753848 0.421895 1.000000 0.000000 255 75 122
-0.353553 0.353554 0.000000 -0.503705 0.753848 0.421895 1.000000 1.000000 255 75 122
-0.009776 0.023603 1.000000 -0.176877 0.889224 0.421895 0.000000 0.000000 255 75 122
0.000000 0.500000 0.000000 -0.176877 0.889224 0.421895 1.000000 0.000000 255 75 122
-0.191341 0.461940 0.000000 -0.176877 0.889224 0.421895 1.000000 1.000000 255 75 122
0.191342 -0.461940 0.000000 0.000000 -0.000000 -1.000000 0.000000 0.000000 255 76 123
-0.461940 -0.191342 0.000000 0.000000 -0.000000 -1.000000 1.000000 0.000000 255 75 122
0.461940 0.191342 0.000000 0.000000 -0.000000 -1.000000 1.000000 1.000000 255 75 122
0.000000 0.025547 1.000000 0.176877 0.889224 0.421895 0.000000 0.000000 255 75 122
0.009777 0.023603 1.000000 0.176877 0.889224 0.421895 1.000000 0.000000 255 75 122
0.191342 0.461940 0.000000 0.176877 0.889224 0.421895 1.000000 1.000000 255 75 122
0.009777 0.023603 1.000000 0.503705 0.753847 0.421895 0.000000 0.000000 255 75 122
0.018065 0.018065 1.000000 0.503705 0.753847 0.421895 1.000000 0.000000 255 75 122
0.353553 0.353553 0.000000 0.503705 0.753847 0.421895 1.000000 1.000000 255 75 122
0.018065 0.018065 1.000000 0.753847 0.503706 0.421895 0.000000 0.000000 255 75 122
0.023603 0.009777 1.000000 0.753847 0.503706 0.421895 1.000000 0.000000 255 75 122
0.461940 0.191342 0.000000 0.753847 0.503706 0.421895 1.000000 1.000000 255 83 128
0.023603 0.009777 1.000000 0.889224 0.176877 0.421895 0.000000 0.000000 255 75 122
0.025547 -0.000000 1.000000 0.889224 0.176877 0.421895 1.000000 0.000000 255 75 122
0.500000 -0.000000 0.000000 0.889224 0.176877 0.421895 1.000000 1.000000 255 75 122
0.025547 -0.000000 1.000000 0.889224 -0.176877 0.421895 0.000000 0.000000 255 75 122
0.023603 -0.009777 1.000000 0.889224 -0.176877 0.421895 1.000000 0.000000 255 75 122
0.461940 -0.191342 0.000000 0.889224 -0.176877 0.421895 1.000000 1.000000 255 75 122
0.023603 -0.009777 1.000000 0.753847 -0.503706 0.421895 0.000000 0.000000 255 75 122
0.018065 -0.018065 1.000000 0.753847 -0.503706 0.421895 1.000000 0.000000 255 75 122
0.353553 -0.353553 0.000000 0.753847 -0.503706 0.421895 1.000000 1.000000 255 75 122
0.018065 -0.018065 1.000000 0.503705 -0.753847 0.421895 0.000000 0.000000 255 75 122
0.009777 -0.023603 1.000000 0.503705 -0.753847 0.421895 1.000000 0.000000 255 75 122
0.191342 -0.461940 0.000000 0.503705 -0.753847 0.421895 1.000000 1.000000 255 75 122
0.009777 -0.023603 1.000000 0.176877 -0.889224 0.421895 0.000000 0.000000 255 75 122
0.000000 -0.025547 1.000000 0.176877 -0.889224 0.421895 1.000000 0.000000 255 75 122
0.000000 -0.500000 0.000000 0.176877 -0.889224 0.421895 1.000000 1.000000 255 75 122
-0.009776 -0.023603 1.000000 -0.176877 -0.889224 0.421895 1.000000 0.000000 255 75 122
-0.191342 -0.461940 0.000000 -0.176877 -0.889224 0.421895 1.000000 1.000000 255 75 122
-0.009776 -0.023603 1.000000 -0.503704 -0.753848 0.421895 0.000000 0.000000 255 75 122
-0.018065 -0.018065 1.000000 -0.503704 -0.753848 0.421895 1.000000 0.000000 255 75 122
-0.353553 -0.353554 0.000000 -0.503704 -0.753848 0.421895 1.000000 1.000000 255 75 122
-0.023603 -0.009777 1.000000 -0.753848 -0.503705 0.421895 1.000000 0.000000 255 75 122
-0.461940 -0.191342 0.000000 -0.753848 -0.503705 0.421895 1.000000 1.000000 255 75 122
-0.023603 -0.009777 1.000000 -0.889224 -0.176878 0.421895 1.000000 0.000000 255 75 122
-0.025547 0.000000 1.000000 -0.889224 -0.176878 0.421895 1.000000 1.000000 255 75 122
-0.025547 0.000000 1.000000 -0.889224 0.176878 0.421895 1.000000 0.000000 255 75 122
-0.023603 0.009777 1.000000 -0.889224 0.176878 0.421895 1.000000 1.000000 255 75 122
-0.023603 0.009777 1.000000 -0.753848 0.503705 0.421895 0.000000 0.000000 255 75 122
-0.018065 0.018065 1.000000 -0.753848 0.503705 0.421895 1.000000 0.000000 255 75 122
-0.353553 0.353554 0.000000 -0.753848 0.503705 0.421895 1.000000 1.000000 255 75 122
0.018065 0.018065 1.000000 0.000000 0.000000 1.000000 0.000000 0.000000 255 75 122
0.009777 0.023603 1.000000 0.000000 0.000000 1.000000 1.000000 0.000000 255 75 122
0.000000 0.025547 1.000000 0.000000 0.000000 1.000000 1.000000 1.000000 255 75 122
0.000000 0.025547 1.000000 0.000000 0.000000 1.000000 0.000000 0.000000 255 75 122
-0.009776 0.023603 1.000000 0.000000 0.000000 1.000000 1.000000 0.000000 255 75 122
-0.018065 0.018065 1.000000 0.000000 0.000000 1.000000 1.000000 1.000000 255 75 122
-0.018065 0.018065 1.000000 0.000000 0.000000 1.000000 0.000000 0.000000 255 75 122
-0.023603 0.009777 1.000000 0.000000 0.000000 1.000000 1.000000 0.000000 255 75 122
-0.025547 0.000000 1.000000 0.000000 0.000000 1.000000 1.000000 1.000000 255 75 122
-0.025547 0.000000 1.000000 0.000000 0.000000 1.000000 0.000000 0.000000 255 75 122
-0.023603 -0.009777 1.000000 0.000000 0.000000 1.000000 1.000000 0.000000 255 75 122
-0.018065 -0.018065 1.000000 0.000000 0.000000 1.000000 0.000000 0.000000 255 75 122
-0.009776 -0.023603 1.000000 0.000000 0.000000 1.000000 1.000000 0.000000 255 75 122
0.000000 -0.025547 1.000000 0.000000 0.000000 1.000000 1.000000 1.000000 255 75 122
0.009777 -0.023603 1.000000 0.000000 0.000000 1.000000 1.000000 0.000000 255 75 122
0.018065 -0.018065 1.000000 0.000000 0.000000 1.000000 1.000000 1.000000 255 75 122
0.018065 -0.018065 1.000000 0.000000 0.000000 1.000000 0.000000 0.000000 255 75 122
0.023603 -0.009777 1.000000 0.000000 0.000000 1.000000 1.000000 0.000000 255 75 122
0.025547 -0.000000 1.000000 0.000000 0.000000 1.000000 1.000000 1.000000 255 75 122
0.025547 -0.000000 1.000000 0.000000 0.000000 1.000000 0.000000 0.000000 255 75 122
0.023603 0.009777 1.000000 0.000000 0.000000 1.000000 1.000000 0.000000 255 75 122
0.000000 0.025547 1.000000 -0.000000 0.000000 1.000000 1.000000 0.000000 255 75 122
-0.018065 -0.018065 1.000000 -0.000000 0.000000 1.000000 1.000000 1.000000 255 75 122
0.000000 -0.025547 1.000000 0.000000 0.000000 1.000000 1.000000 0.000000 255 75 122
0.025547 -0.000000 1.000000 0.000000 0.000000 1.000000 1.000000 0.000000 255 75 122
-0.018065 0.018065 1.000000 0.000000 0.000000 1.000000 1.000000 0.000000 255 75 122
-0.018065 0.018065 1.000000 -0.503704 0.753848 0.421895 0.000000 0.000000 255 75 122
-0.009776 0.023603 1.000000 -0.503704 0.753848 0.421895 1.000000 0.000000 255 75 122
-0.191341 0.461940 0.000000 -0.503704 0.753848 0.421895 1.000000 1.000000 255 75 122
0.000000 0.025547 1.000000 -0.176877 0.889224 0.421895 1.000000 0.000000 255 75 122
0.000000 0.500000 0.000000 -0.176877 0.889224 0.421895 1.000000 1.000000 255 75 122
-0.191341 0.461940 0.000000 -0.000000 0.000000 -1.000000 0.000000 0.000000 255 75 122
0.000000 0.500000 0.000000 -0.000000 0.000000 -1.000000 1.000000 0.000000 255 75 122
0.191342 0.461940 0.000000 -0.000000 0.000000 -1.000000 1.000000 1.000000 255 75 122
0.191342 0.461940 0.000000 0.000000 0.000000 -1.000000 0.000000 0.000000 255 75 122
0.353553 0.353553 0.000000 0.000000 0.000000 -1.000000 1.000000 0.000000 255 75 122
-0.191341 0.461940 0.000000 0.000000 0.000000 -1.000000 1.000000 1.000000 255 75 122
0.461940 0.191342 0.000000 0.000000 0.000000 -1.000000 0.000000 0.000000 255 75 122
0.500000 -0.000000 0.000000 0.000000 0.000000 -1.000000 1.000000 0.000000 255 75 122
0.461940 -0.191342 0.000000 0.000000 0.000000 -1.000000 1.000000 1.000000 255 75 122
0.461940 -0.191342 0.000000 0.000000 -0.000000 -1.000000 0.000000 0.000000 255 75 122
0.353553 -0.353553 0.000000 0.000000 -0.000000 -1.000000 1.000000 0.000000 255 75 122
0.000000 -0.500000 0.000000 0.000000 0.000000 -1.000000 1.000000 0.000000 255 75 122
-0.461940 -0.191342 0.000000 0.000000 0.000000 -1.000000 1.000000 1.000000 255 75 122
-0.191342 -0.461940 0.000000 0.000000 0.000000 -1.000000 0.000000 0.000000 255 75 122
-0.353553 -0.353554 0.000000 0.000000 0.000000 -1.000000 1.000000 0.000000 255 75 122
-0.461940 -0.191342 0.000000 0.000000 -0.000000 -1.000000 0.000000 0.000000 255 75 122
-0.500000 0.000000 0.000000 0.000000 -0.000000 -1.000000 1.000000 0.000000 255 75 122
-0.461940 0.191342 0.000000 0.000000 -0.000000 -1.000000 1.000000 1.000000 255 75 122
-0.461940 0.191342 0.000000 0.000000 0.000000 -1.000000 0.000000 0.000000 255 75 122
-0.353553 0.353554 0.000000 0.000000 0.000000 -1.000000 1.000000 0.000000 255 75 122
0.191342 -0.461940 0.000000 0.000000 0.000000 -1.000000 1.000000 1.000000 255 76 123
0.000000 -0.500000 0.000000 0.000000 0.000000 -1.000000 0.000000 0.000000 255 75 122
-0.191342 -0.461940 0.000000 0.000000 0.000000 -1.000000 1.000000 0.000000 255 75 122
-0.461940 0.191342 0.000000 0.000000 0.000000 -1.000000 1.000000 0.000000 255 75 122
0.461940 0.191342 0.000000 0.000000 0.000000 -1.000000 1.000000 0.000000 255 75 122
3 0 1 2
3 3 4 5
3 6 7 8
3 9 10 11
3 12 13 14
3 15 16 17
3 18 19 20
3 21 22 23
3 24 25 26
3 27 28 29
3 30 31 32
3 33 34 35
3 36 37 38
3 39 40 41
3 42 43 44
3 45 46 47
3 48 49 50
3 51 52 53
3 54 55 56
3 57 58 59
3 60 61 62
3 63 64 65
3 66 67 68
3 69 70 71
3 72 73 74
3 75 76 77
3 24 78 79
3 80 81 82
3 30 83 84
3 33 85 86
3 36 87 88
3 89 90 91
3 92 93 94
3 95 96 97
3 98 99 100
3 101 102 97
3 103 104 105
3 42 106 107
3 108 109 110
3 111 112 44
3 92 113 114
3 98 102 114
3 103 115 44
3 108 116 44
3 95 117 114
3 118 119 120
3 48 121 122
3 123 124 125
3 126 127 128
3 129 130 131
3 132 133 53
3 51 134 135
3 136 137 135
3 138 139 140
3 141 142 128
3 123 127 53
3 129 133 143
3 144 145 135
3 138 146 128
3 123 147 135
