ply
format ascii 1.0
comment Created by Blender 2.79 (sub 0) - www.blender.org, source file: 'town.blend'
element vertex 496
property float x
property float y
property float z
property float nx
property float ny
property float nz
property float s
property float t
property uchar red
property uchar green
property uchar blue
element face 246
property list uchar uint vertex_indices
end_header
0.447145 0.100000 0.194846 -0.951778 0.000000 0.306786 0.428421 0.843551 170 119 22
0.434873 0.000000 0.156775 -0.951778 0.000000 0.306786 0.427771 0.484800 170 119 22
0.447145 0.000000 0.194846 -0.951778 0.000000 0.306786 0.440824 0.521716 170 119 22
0.434873 0.100000 0.156775 -0.306786 0.000000 -0.951779 0.406316 0.875156 170 119 22
0.472945 0.000000 0.144503 -0.306786 0.000000 -0.951779 0.406671 0.544065 170 119 22
0.434873 0.000000 0.156775 -0.306786 0.000000 -0.951779 0.427771 0.484800 170 119 22
0.472945 0.100000 0.144503 0.951778 0.000000 -0.306786 0.386061 0.811514 170 119 22
0.485216 0.000000 0.182574 0.951778 0.000000 -0.306786 0.382993 0.544062 170 119 22
0.472945 0.000000 0.144503 0.951778 0.000000 -0.306786 0.406671 0.544065 170 119 22
0.434873 0.000000 0.156775 0.000000 -1.000000 -0.000000 0.427771 0.484800 255 255 255
0.485216 0.000000 0.182574 0.000000 -1.000000 -0.000000 0.382993 0.544062 255 255 255
0.447145 0.000000 0.194846 0.000000 -1.000000 -0.000000 0.440824 0.521716 255 255 255
0.447145 0.100000 0.194846 -0.000000 1.000000 -0.000000 0.428421 0.843551 170 119 22
0.472945 0.100000 0.144503 -0.000000 1.000000 -0.000000 0.386061 0.811514 170 119 22
0.434873 0.100000 0.156775 -0.000000 1.000000 -0.000000 0.406316 0.875156 170 119 22
0.457936 0.016909 0.191367 0.306786 0.000000 0.951778 0.431850 0.546719 170 119 22
0.485216 0.000000 0.182574 0.306786 0.000000 0.951778 0.382993 0.544062 170 119 22
0.474425 0.016909 0.186053 0.306786 0.000000 0.951778 0.379181 0.561486 170 119 22
0.474425 0.016909 0.186053 0.306786 0.000000 0.951779 0.379181 0.561486 170 119 22
0.485216 0.100000 0.182574 0.306786 0.000000 0.951779 0.353982 0.808001 170 119 22
0.474425 0.097032 0.186053 0.306786 0.000000 0.951779 0.355106 0.808113 170 119 22
0.474425 0.097032 0.186053 0.306786 0.000004 0.951778 0.355106 0.808113 170 119 22
0.447145 0.100000 0.194846 0.306786 0.000004 0.951778 0.428421 0.843551 170 119 22
0.457936 0.097032 0.191367 0.306786 0.000004 0.951778 0.431850 0.831002 170 119 22
0.457936 0.016909 0.191367 0.306785 -0.000000 0.951779 0.431850 0.546719 170 119 22
0.447145 0.100000 0.194846 0.306785 -0.000000 0.951779 0.428421 0.843551 170 119 22
0.447145 0.000000 0.194846 0.306785 -0.000000 0.951779 0.440824 0.521716 170 119 22
0.474425 0.016909 0.186053 0.000000 -1.000000 -0.000000 0.029264 0.156124 255 255 255
0.506881 0.016909 0.343215 0.000000 -1.000000 -0.000000 0.116665 0.206679 255 255 255
0.457936 0.016909 0.191367 0.000000 -1.000000 -0.000000 0.029264 0.249139 255 255 255
0.457936 0.070324 0.191367 0.306786 0.000000 0.951779 0.347814 0.258847 170 119 22
0.474425 0.043616 0.186053 0.306786 0.000000 0.951779 0.203986 0.165585 170 119 22
0.474425 0.070324 0.186053 0.306786 0.000000 0.951779 0.347978 0.165758 170 119 22
0.457936 0.070324 0.191367 -0.951779 0.000000 0.306786 0.347814 0.258847 170 119 22
0.506881 0.097032 0.343215 -0.951779 0.000000 0.306786 0.433940 0.217262 170 119 22
0.457936 0.097032 0.191367 -0.951779 0.000000 0.306786 0.521908 0.268501 170 119 22
0.506881 0.043616 0.343215 0.306786 0.000000 0.951779 0.115497 0.207435 255 255 255
0.523370 0.016909 0.337901 0.306786 0.000000 0.951779 0.117603 0.207401 255 255 255
0.523370 0.043616 0.337901 0.306786 0.000000 0.951779 0.116371 0.208157 255 255 255
0.506881 0.097032 0.343215 0.306786 0.000000 0.951779 0.433940 0.217262 255 255 255
0.523370 0.070324 0.337901 0.306786 0.000000 0.951779 0.436032 0.217206 255 255 255
0.523370 0.097032 0.337901 0.306786 0.000000 0.951779 0.434879 0.217970 255 255 255
0.474425 0.097032 0.186053 0.951778 0.000000 -0.306786 0.522071 0.175806 170 119 22
0.523370 0.070324 0.337901 0.951778 0.000000 -0.306786 0.436032 0.217206 170 119 22
0.474425 0.070324 0.186053 0.951778 0.000000 -0.306786 0.347978 0.165758 170 119 22
0.474425 0.070324 0.186053 0.000000 -1.000000 -0.000000 0.347978 0.165758 255 255 255
0.506881 0.070324 0.343215 0.000000 -1.000000 -0.000000 0.435156 0.216498 255 255 255
0.457936 0.070324 0.191367 0.000000 -1.000000 -0.000000 0.347814 0.258847 255 255 255
0.457936 0.097032 0.191367 0.000000 1.000000 -0.000000 0.521908 0.268501 170 119 22
0.523370 0.097032 0.337901 0.000000 1.000000 -0.000000 0.434879 0.217970 170 119 22
0.474425 0.097032 0.186053 0.000000 1.000000 -0.000000 0.522071 0.175806 170 119 22
0.474425 0.043616 0.186053 0.951779 0.000000 -0.306786 0.203986 0.165585 170 119 22
0.523370 0.016909 0.337901 0.951779 0.000000 -0.306786 0.117603 0.207401 170 119 22
0.474425 0.016909 0.186053 0.951779 0.000000 -0.306786 0.029264 0.156124 170 119 22
0.457936 0.016909 0.191367 -0.951778 0.000000 0.306786 0.029264 0.249139 170 119 22
0.506881 0.043616 0.343215 -0.951778 0.000000 0.306786 0.115497 0.207435 170 119 22
0.457936 0.043616 0.191367 -0.951778 0.000000 0.306786 0.203950 0.258824 170 119 22
0.457936 0.043616 0.191367 0.000000 1.000000 -0.000000 0.203950 0.258824 170 119 22
0.523370 0.043616 0.337901 0.000000 1.000000 -0.000000 0.116371 0.208157 170 119 22
0.474425 0.043616 0.186053 0.000000 1.000000 -0.000000 0.203986 0.165585 170 119 22
0.532812 0.100000 0.330237 0.951778 0.000000 -0.306786 0.969862 0.637969 170 119 22
0.545084 0.000000 0.368308 0.951778 0.000000 -0.306786 0.932067 0.428062 170 119 22
0.532812 0.000000 0.330237 0.951778 0.000000 -0.306786 0.957552 0.397729 170 119 22
0.545084 0.100000 0.368308 0.306786 0.000000 0.951778 0.942926 0.640868 170 119 22
0.507012 0.000000 0.380580 0.306786 0.000000 0.951778 0.903088 0.409091 173 123 29
0.545084 0.000000 0.368308 0.306786 0.000000 0.951778 0.932067 0.428062 170 119 22
0.507012 0.100000 0.380580 -0.951778 0.000000 0.306786 0.924350 0.692053 170 119 22
0.494741 0.000000 0.342509 -0.951778 0.000000 0.306786 0.881313 0.327028 170 119 22
0.507012 0.000000 0.380580 -0.951778 0.000000 0.306786 0.903088 0.409091 170 119 22
0.545084 0.000000 0.368308 0.000000 -1.000000 0.000000 0.932067 0.428062 255 255 255
0.494741 0.000000 0.342509 0.000000 -1.000000 0.000000 0.881313 0.327028 255 255 255
0.532812 0.000000 0.330237 0.000000 -1.000000 0.000000 0.957552 0.397729 255 255 255
0.545084 0.100000 0.368308 -0.000000 1.000000 0.000000 0.942926 0.640868 170 119 22
0.494741 0.100000 0.342509 -0.000000 1.000000 0.000000 0.895975 0.663954 170 119 22
0.507012 0.100000 0.380580 -0.000000 1.000000 0.000000 0.924350 0.692053 170 119 22
0.522021 0.016909 0.333716 -0.306783 -0.000004 -0.951779 0.960035 0.393757 170 119 22
0.494741 0.000000 0.342509 -0.306783 -0.000004 -0.951779 0.881313 0.327028 170 119 22
0.505532 0.016909 0.339030 -0.306783 -0.000004 -0.951779 0.894638 0.366876 170 119 22
0.505532 0.016909 0.339030 -0.306789 0.000000 -0.951778 0.894638 0.366876 170 119 22
0.494741 0.100000 0.342509 -0.306789 0.000000 -0.951778 0.895975 0.663954 170 119 22
0.505532 0.097032 0.339030 -0.306789 0.000000 -0.951778 0.894638 0.653572 170 119 22
0.505532 0.097032 0.339030 -0.306783 -0.000022 -0.951779 0.894638 0.653572 170 119 22
0.532812 0.100000 0.330237 -0.306783 -0.000022 -0.951779 0.969862 0.637969 170 119 22
0.522021 0.097032 0.333716 -0.306783 -0.000022 -0.951779 0.970736 0.636286 170 119 22
0.522021 0.016909 0.333716 -0.306789 0.000000 -0.951778 0.960035 0.393757 170 119 22
0.532812 0.100000 0.330237 -0.306789 0.000000 -0.951778 0.969862 0.637969 170 119 22
0.532812 0.000000 0.330237 -0.306789 0.000000 -0.951778 0.957552 0.397729 170 119 22
0.522021 0.070324 0.333716 0.306783 -0.000000 0.951779 0.613926 0.156124 170 119 22
0.505532 0.070324 0.339030 0.306783 -0.000000 0.951779 0.613926 0.177742 170 119 22
0.505532 0.043616 0.339030 0.306783 -0.000000 0.951779 0.580598 0.177742 170 119 22
0.266360 0.100000 0.027527 -0.525700 0.000000 0.850670 0.279795 0.840816 170 119 22
0.232333 0.000000 0.006499 -0.525700 0.000000 0.850670 0.275136 0.550156 170 119 22
0.266360 0.000000 0.027527 -0.525700 0.000000 0.850670 0.295454 0.484800 170 119 22
0.232333 0.100000 0.006499 -0.850670 0.000000 -0.525700 0.261979 0.767892 170 119 22
0.253361 0.000000 -0.027527 -0.850670 0.000000 -0.525700 0.248228 0.566033 231 217 189
0.232333 0.000000 0.006499 -0.850670 0.000000 -0.525700 0.275136 0.550156 253 252 250
0.253361 0.100000 -0.027527 0.525700 0.000000 -0.850670 0.230546 0.744677 170 119 22
0.287388 0.000000 -0.006499 0.525700 0.000000 -0.850670 0.226042 0.540137 170 119 22
0.253361 0.000000 -0.027527 0.525700 0.000000 -0.850670 0.248228 0.566033 170 119 22
0.232333 0.000000 0.006499 -0.000000 -1.000000 -0.000000 0.275136 0.550156 255 255 255
0.287388 0.000000 -0.006499 -0.000000 -1.000000 -0.000000 0.226042 0.540137 255 255 255
0.266360 0.000000 0.027527 -0.000000 -1.000000 -0.000000 0.295454 0.484800 255 255 255
0.232333 0.100000 0.006499 0.000000 1.000000 -0.000000 0.261979 0.767892 170 119 22
0.287388 0.100000 -0.006499 0.000000 1.000000 -0.000000 0.195230 0.765247 170 119 22
0.253361 0.100000 -0.027527 0.000000 1.000000 -0.000000 0.230546 0.744677 170 119 22
0.272320 0.016909 0.017883 0.850670 0.000001 0.525700 0.279490 0.517092 170 119 22
0.287388 0.000000 -0.006499 0.850670 0.000001 0.525700 0.226042 0.540137 170 119 22
0.281428 0.016909 0.003145 0.850670 0.000001 0.525700 0.221751 0.546417 170 119 22
0.281428 0.016909 0.003145 0.850669 0.000000 0.525702 0.221751 0.546417 170 119 22
0.287388 0.100000 -0.006499 0.850669 0.000000 0.525702 0.195230 0.765247 170 119 22
0.281428 0.097032 0.003145 0.850669 0.000000 0.525702 0.197008 0.771547 170 119 22
0.272320 0.097032 0.017883 0.850670 -0.000004 0.525700 0.279489 0.821174 170 119 22
0.287388 0.100000 -0.006499 0.850670 -0.000004 0.525700 0.195230 0.765247 170 119 22
0.266360 0.100000 0.027527 0.850670 -0.000004 0.525700 0.279795 0.840816 170 119 22
0.272320 0.016909 0.017883 0.850671 -0.000000 0.525699 0.279490 0.517092 170 119 22
0.266360 0.100000 0.027527 0.850671 -0.000000 0.525699 0.279795 0.840816 170 119 22
0.266360 0.000000 0.027527 0.850671 -0.000000 0.525699 0.295454 0.484800 170 119 22
0.281428 0.016909 0.003145 0.000000 -1.000000 -0.000000 0.886091 0.083186 255 255 255
0.408037 0.016909 0.101753 0.000000 -1.000000 -0.000000 0.837009 0.062520 255 255 255
0.272320 0.016909 0.017883 0.000000 -1.000000 -0.000000 0.855935 0.060549 255 255 255
0.272320 0.070324 0.017883 0.850670 0.000000 0.525700 0.609253 0.045576 170 119 22
0.281428 0.043616 0.003145 0.850670 0.000000 0.525700 0.825906 0.097596 170 119 22
0.281428 0.070324 0.003145 0.850670 0.000000 0.525700 0.608990 0.086942 170 119 22
0.272320 0.070324 0.017883 -0.525700 0.000000 0.850670 0.609253 0.045576 170 119 22
0.408037 0.097032 0.101753 -0.525700 0.000000 0.850670 0.029264 0.029264 170 119 22
0.272320 0.097032 0.017883 -0.525700 0.000000 0.850670 0.582845 0.046131 170 119 22
0.408037 0.043616 0.101753 0.850670 0.000000 0.525699 0.835755 0.062671 255 255 255
0.417145 0.016909 0.087016 0.850670 0.000000 0.525699 0.837550 0.062161 255 255 255
0.417145 0.043616 0.087016 0.850670 0.000000 0.525699 0.835790 0.062902 255 255 255
0.408037 0.097032 0.101753 0.850670 0.000000 0.525699 0.029264 0.029264 255 255 255
0.417145 0.070324 0.087016 0.850670 0.000000 0.525699 0.060667 0.031449 255 255 255
0.417145 0.097032 0.087016 0.850670 0.000000 0.525699 0.048506 0.044183 255 255 255
0.281428 0.097032 0.003145 0.525700 0.000000 -0.850670 0.581788 0.082904 170 119 22
0.417145 0.070324 0.087016 0.525700 0.000000 -0.850670 0.060667 0.031449 170 119 22
0.281428 0.070324 0.003145 0.525700 0.000000 -0.850670 0.608990 0.086942 170 119 22
0.281428 0.070324 0.003145 0.000000 -1.000000 -0.000000 0.608990 0.086942 255 255 255
0.408037 0.070324 0.101753 0.000000 -1.000000 -0.000000 0.054453 0.037786 255 255 255
0.272320 0.070324 0.017883 0.000000 -1.000000 -0.000000 0.609253 0.045576 255 255 255
0.272320 0.097032 0.017883 0.000000 1.000000 -0.000000 0.582845 0.046131 170 119 22
0.417145 0.097032 0.087016 0.000000 1.000000 -0.000000 0.048506 0.044183 170 119 22
0.281428 0.097032 0.003145 0.000000 1.000000 -0.000000 0.581788 0.082904 170 119 22
0.281428 0.043616 0.003145 0.525700 0.000000 -0.850670 0.825906 0.097596 170 119 22
0.417145 0.016909 0.087016 0.525700 0.000000 -0.850670 0.837550 0.062161 170 119 22
0.281428 0.016909 0.003145 0.525700 0.000000 -0.850670 0.886091 0.083186 170 119 22
0.272320 0.016909 0.017883 -0.525700 0.000000 0.850670 0.855935 0.060549 170 119 22
0.408037 0.043616 0.101753 -0.525700 0.000000 0.850670 0.835755 0.062671 170 119 22
0.272320 0.043616 0.017883 -0.525700 0.000000 0.850670 0.820935 0.045576 170 119 22
0.272320 0.043616 0.017883 0.000000 1.000000 -0.000000 0.820935 0.045576 170 119 22
0.417145 0.043616 0.087016 0.000000 1.000000 -0.000000 0.835790 0.062902 170 119 22
0.281428 0.043616 0.003145 0.000000 1.000000 -0.000000 0.825906 0.097596 170 119 22
0.419365 0.100000 0.075060 0.525700 0.000000 -0.850670 0.110163 0.776822 170 119 22
0.453391 0.000000 0.096088 0.525700 0.000000 -0.850670 0.107981 0.558754 170 119 22
0.419365 0.000000 0.075060 0.525700 0.000000 -0.850670 0.136702 0.484800 170 119 22
0.453391 0.100000 0.096088 0.850670 0.000000 0.525699 0.073219 0.774625 170 119 22
0.432363 0.000000 0.130115 0.850670 0.000000 0.525699 0.075229 0.581984 170 119 22
0.453391 0.000000 0.096088 0.850670 0.000000 0.525699 0.107981 0.558754 170 119 22
0.432363 0.100000 0.130115 -0.525700 0.000000 0.850670 0.034693 0.824747 170 119 22
0.398337 0.000000 0.109087 -0.525700 0.000000 0.850670 0.051725 0.549639 170 119 22
0.432363 0.000000 0.130115 -0.525700 0.000000 0.850670 0.075229 0.581984 170 119 22
0.453391 0.000000 0.096088 0.000000 -1.000000 0.000000 0.107981 0.558754 255 255 255
0.398337 0.000000 0.109087 0.000000 -1.000000 0.000000 0.051725 0.549639 255 255 255
0.419365 0.000000 0.075060 0.000000 -1.000000 0.000000 0.136702 0.484800 255 255 255
0.453391 0.100000 0.096088 0.000000 1.000000 0.000000 0.073219 0.774625 170 119 22
0.398337 0.100000 0.109087 0.000000 1.000000 0.000000 0.029264 0.801651 170 119 22
0.432363 0.100000 0.130115 0.000000 1.000000 0.000000 0.034693 0.824747 170 119 22
0.413404 0.016909 0.084705 -0.850670 -0.000000 -0.525700 0.112260 0.512247 170 119 22
0.398337 0.000000 0.109087 -0.850670 -0.000000 -0.525700 0.051725 0.549639 170 119 22
0.404297 0.016909 0.099442 -0.850670 -0.000000 -0.525700 0.047842 0.553752 170 119 22
0.398337 0.100000 0.109087 -0.850670 0.000000 -0.525700 0.029264 0.801651 170 119 22
0.404297 0.097032 0.099442 -0.850670 0.000000 -0.525700 0.032987 0.791839 170 119 22
0.404297 0.097032 0.099442 -0.850670 -0.000001 -0.525700 0.032987 0.791839 170 119 22
0.419365 0.100000 0.075060 -0.850670 -0.000001 -0.525700 0.110163 0.776822 170 119 22
0.413404 0.097032 0.084705 -0.850670 -0.000001 -0.525700 0.112260 0.775308 170 119 22
0.419365 0.100000 0.075060 -0.850670 0.000000 -0.525700 0.110163 0.776822 170 119 22
0.419365 0.000000 0.075060 -0.850670 0.000000 -0.525700 0.136702 0.484800 170 119 22
0.413404 0.070324 0.084705 -0.850670 -0.000000 -0.525700 0.499352 0.609983 170 119 22
0.404297 0.043616 0.099442 -0.850670 -0.000000 -0.525700 0.520971 0.576655 170 119 22
0.404297 0.070324 0.099442 -0.850670 -0.000000 -0.525700 0.520971 0.609983 170 119 22
0.020000 0.100000 0.020000 -0.000000 0.000000 1.000000 0.822786 0.662180 170 119 22
-0.020000 0.000000 0.020000 -0.000000 0.000000 1.000000 0.773360 0.388986 170 119 22
0.020000 0.000000 0.020000 -0.000000 0.000000 1.000000 0.798018 0.389764 170 119 22
-0.020000 0.100000 0.020000 -1.000000 0.000000 0.000001 0.789408 0.665512 170 119 22
-0.020000 0.000000 -0.020000 -1.000000 0.000000 0.000001 0.752600 0.327028 170 119 22
-0.020000 0.000000 0.020000 -1.000000 0.000000 0.000001 0.773360 0.388986 170 119 22
-0.020000 0.100000 -0.020000 0.000000 0.000000 -1.000000 0.767142 0.731189 172 121 24
0.020000 0.000000 -0.020000 0.000000 0.000000 -1.000000 0.738360 0.364374 170 119 22
-0.020000 0.000000 -0.020000 0.000000 0.000000 -1.000000 0.752600 0.327028 170 119 22
-0.020000 0.000000 0.020000 -0.000000 -1.000000 -0.000000 0.773360 0.388986 255 255 255
0.020000 0.000000 -0.020000 -0.000000 -1.000000 -0.000000 0.738360 0.364374 255 255 255
0.020000 0.000000 0.020000 -0.000000 -1.000000 -0.000000 0.798018 0.389764 255 255 255
-0.020000 0.100000 0.020000 0.000000 1.000000 -0.000000 0.789408 0.665512 170 119 22
0.020000 0.100000 -0.020000 0.000000 1.000000 -0.000000 0.744934 0.698641 170 119 22
-0.020000 0.100000 -0.020000 0.000000 1.000000 -0.000000 0.767142 0.731189 170 119 22
0.020000 0.016909 0.008662 1.000000 0.000000 -0.000000 0.798130 0.400630 170 119 22
0.020000 0.000000 -0.020000 1.000000 0.000000 -0.000000 0.738360 0.364374 170 119 22
0.020000 0.016909 -0.008662 1.000000 0.000000 -0.000000 0.742023 0.397514 170 119 22
0.020000 0.100000 -0.020000 1.000000 0.000000 0.000000 0.744934 0.698641 170 119 22
0.020000 0.097032 -0.008662 1.000000 0.000000 0.000000 0.742023 0.685858 170 119 22
0.020000 0.097032 0.008662 1.000000 0.000000 0.000000 0.821985 0.662202 170 119 22
0.020000 0.100000 0.020000 1.000000 0.000000 0.000000 0.822786 0.662180 170 119 22
0.020000 0.000000 0.020000 1.000000 -0.000000 0.000000 0.798018 0.389764 170 119 22
0.020000 0.016909 -0.008662 0.000000 -1.000000 -0.000000 0.525997 0.418970 255 255 255
0.179541 0.016909 0.008662 0.000000 -1.000000 -0.000000 0.435832 0.375150 255 255 255
0.020000 0.016909 0.008662 0.000000 -1.000000 -0.000000 0.518945 0.327028 255 255 255
0.020000 0.070324 0.008662 1.000000 0.000000 -0.000000 0.204113 0.332861 170 119 22
0.020000 0.043616 -0.008662 1.000000 0.000000 -0.000000 0.350562 0.422789 170 119 22
0.020000 0.070324 -0.008662 1.000000 0.000000 -0.000000 0.206338 0.426272 170 119 22
0.020000 0.070324 0.008662 0.000000 0.000000 1.000000 0.204113 0.332861 170 119 22
0.179541 0.097032 0.008662 0.000000 0.000000 1.000000 0.118985 0.375766 170 119 22
0.020000 0.097032 0.008662 0.000000 0.000000 1.000000 0.032111 0.327028 170 119 22
0.179541 0.043616 0.008662 1.000000 0.000000 -0.000000 0.437239 0.373651 255 255 255
0.179541 0.016909 -0.008662 1.000000 0.000000 -0.000000 0.434475 0.374591 255 255 255
0.179541 0.043616 -0.008662 1.000000 0.000000 -0.000000 0.435757 0.373786 255 255 255
0.179541 0.097032 0.008662 1.000000 0.000000 -0.000000 0.118985 0.375766 255 255 255
0.179541 0.070324 -0.008662 1.000000 0.000000 -0.000000 0.116235 0.376544 255 255 255
0.179541 0.097032 -0.008662 1.000000 0.000000 -0.000000 0.117425 0.375843 255 255 255
0.020000 0.097032 -0.008662 0.000000 0.000000 -1.000000 0.029264 0.420443 170 119 22
0.179541 0.070324 -0.008662 0.000000 0.000000 -1.000000 0.116235 0.376544 170 119 22
0.020000 0.070324 -0.008662 0.000000 0.000000 -1.000000 0.206338 0.426272 170 119 22
0.020000 0.070324 -0.008662 0.000000 -1.000000 -0.000000 0.206338 0.426272 255 255 255
0.179541 0.070324 0.008662 0.000000 -1.000000 -0.000000 0.117512 0.377164 255 255 255
0.020000 0.070324 0.008662 0.000000 -1.000000 -0.000000 0.204113 0.332861 255 255 255
0.020000 0.097032 -0.008662 0.000000 1.000000 -0.000000 0.029264 0.420443 170 119 22
0.179541 0.097032 0.008662 0.000000 1.000000 -0.000000 0.118985 0.375766 170 119 22
0.179541 0.097032 -0.008662 0.000000 1.000000 -0.000000 0.117425 0.375843 170 119 22
0.020000 0.043616 -0.008662 0.000000 0.000000 -1.000000 0.350562 0.422789 170 119 22
0.179541 0.016909 -0.008662 0.000000 0.000000 -1.000000 0.434475 0.374591 170 119 22
0.020000 0.016909 -0.008662 0.000000 0.000000 -1.000000 0.525997 0.418970 170 119 22
0.020000 0.016909 0.008662 0.000000 0.000000 1.000000 0.518945 0.327028 170 119 22
0.179541 0.043616 0.008662 0.000000 0.000000 1.000000 0.437239 0.373651 170 119 22
0.020000 0.043616 0.008662 0.000000 0.000000 1.000000 0.348571 0.329632 170 119 22
0.020000 0.043616 -0.008662 0.000000 1.000000 -0.000000 0.350562 0.422789 170 119 22
0.179541 0.043616 0.008662 0.000000 1.000000 -0.000000 0.437239 0.373651 170 119 22
0.179541 0.043616 -0.008662 0.000000 1.000000 -0.000000 0.435757 0.373786 170 119 22
0.175144 0.100000 -0.020000 -0.000001 0.000000 -1.000000 0.679832 0.611792 170 119 22
0.215144 0.000000 -0.020000 -0.000001 0.000000 -1.000000 0.622652 0.373816 170 119 22
0.175144 0.000000 -0.020000 -0.000001 0.000000 -1.000000 0.640076 0.373855 170 119 22
0.215144 0.100000 -0.020000 1.000000 0.000000 -0.000001 0.641986 0.585833 170 119 22
0.215144 0.000000 0.020000 1.000000 0.000000 -0.000001 0.606647 0.327028 170 119 22
0.215144 0.000000 -0.020000 1.000000 0.000000 -0.000001 0.622652 0.373816 170 119 22
0.215144 0.100000 0.020000 0.000000 0.000000 1.000000 0.607967 0.611001 170 119 22
0.175144 0.000000 0.020000 0.000000 0.000000 1.000000 0.584524 0.360260 170 119 22
0.215144 0.000000 0.020000 0.000000 0.000000 1.000000 0.606647 0.327028 170 119 22
0.215144 0.000000 -0.020000 0.000000 -1.000000 0.000000 0.622652 0.373816 255 255 255
0.175144 0.000000 0.020000 0.000000 -1.000000 0.000000 0.584524 0.360260 255 255 255
0.175144 0.000000 -0.020000 0.000000 -1.000000 0.000000 0.640076 0.373855 255 255 255
0.175144 0.100000 -0.020000 0.000000 1.000000 -0.000000 0.679832 0.611792 170 119 22
0.215144 0.100000 0.020000 0.000000 1.000000 -0.000000 0.607967 0.611001 170 119 22
0.215144 0.100000 -0.020000 0.000000 1.000000 -0.000000 0.641986 0.585833 170 119 22
0.175144 0.016909 0.008662 -1.000000 -0.000001 0.000001 0.589945 0.384312 170 119 22
0.175144 0.000000 -0.020000 -1.000000 -0.000001 0.000001 0.640076 0.373855 170 119 22
0.175144 0.000000 0.020000 -1.000000 -0.000001 0.000001 0.584524 0.360260 170 119 22
0.175144 0.016909 0.008662 -1.000000 0.000000 0.000003 0.589945 0.384312 170 119 22
0.175144 0.100000 0.020000 -1.000000 0.000000 0.000003 0.587212 0.699923 170 119 22
0.175144 0.097032 0.008662 -1.000000 0.000000 0.000003 0.589945 0.678266 170 119 22
0.175144 0.097032 0.008662 -1.000000 -0.000017 -0.000002 0.589945 0.678266 170 119 22
0.175144 0.100000 -0.020000 -1.000000 -0.000017 -0.000002 0.679832 0.611792 170 119 22
0.175144 0.097032 -0.008662 -1.000000 -0.000017 -0.000002 0.677119 0.619624 170 119 22
0.175144 0.016909 -0.008662 -1.000000 0.000000 0.000003 0.642514 0.390517 170 119 22
0.175144 0.100000 -0.020000 -1.000000 0.000000 0.000003 0.679832 0.611792 170 119 22
0.175144 0.000000 -0.020000 -1.000000 0.000000 0.000003 0.640076 0.373855 170 119 22
0.175144 0.070324 -0.008662 -1.000000 -0.000000 -0.000002 0.499352 0.518127 170 119 22
0.175144 0.043616 0.008662 -1.000000 -0.000000 -0.000002 0.520971 0.484800 170 119 22
0.175144 0.070324 0.008662 -1.000000 -0.000000 -0.000002 0.520971 0.518127 170 119 22
-0.535645 0.000000 -0.392677 -0.000000 -1.000000 -0.000000 0.153953 0.740498 255 255 255
0.090895 0.000000 -0.749675 -0.000000 -1.000000 -0.000000 0.000000 0.962647 255 255 255
-0.178095 0.000000 -0.213350 -0.000000 -1.000000 -0.000000 0.000000 0.740498 255 255 255
-0.222375 0.629759 -0.571176 0.320126 0.700083 -0.638281 0.923024 0.111075 133 133 133
0.090895 0.323768 -0.749675 0.320126 0.700083 -0.638281 1.000000 0.222149 115 179 228
-0.087879 0.323768 -0.839339 0.320126 0.700083 -0.638281 0.923024 0.222149 79 160 221
-0.535645 0.323768 -0.392678 -0.893874 0.000000 -0.448318 0.655179 0.113293 133 133 133
-0.266654 0.323768 -0.929002 -0.893874 0.000000 -0.448318 0.846047 0.113293 133 133 133
-0.266654 0.000000 -0.929002 -0.893874 0.000000 -0.448318 0.846047 0.233167 133 133 133
-0.087879 0.323768 -0.839339 0.448318 -0.000000 -0.893874 0.716897 0.233167 79 160 221
0.090895 0.323768 -0.749675 0.448318 -0.000000 -0.893874 0.778614 0.233167 115 179 228
0.090895 0.000000 -0.749675 0.448318 -0.000000 -0.893874 0.778614 0.353042 133 133 133
0.090895 0.323768 -0.749675 0.893874 -0.000000 0.448317 0.621326 0.483541 115 179 228
-0.178095 0.323768 -0.213351 0.893874 -0.000000 0.448317 0.814736 0.483541 83 161 222
-0.178095 0.000000 -0.213350 0.893874 -0.000000 0.448317 0.814736 0.603416 135 132 126
-0.178095 0.000000 -0.213350 -0.448318 0.000000 0.893874 0.461769 0.863836 140 140 140
-0.178095 0.323768 -0.213351 -0.448318 0.000000 0.893874 0.461769 0.743961 255 255 255
-0.356870 0.323768 -0.303014 -0.448318 0.000000 0.893874 0.521704 0.743961 255 255 255
-0.401150 0.629759 -0.660840 0.320127 0.700083 -0.638281 0.846047 0.111075 126 136 144
-0.087879 0.323768 -0.839339 0.320127 0.700083 -0.638281 0.923024 0.222149 79 160 221
-0.266654 0.323768 -0.929002 0.320127 0.700083 -0.638281 0.846047 0.222149 133 133 133
-0.535645 0.323768 -0.392678 -0.320127 0.700083 0.638281 0.846047 0.000000 133 133 133
-0.222375 0.629759 -0.571176 -0.320127 0.700083 0.638281 0.923024 0.111075 77 159 221
-0.401150 0.629759 -0.660840 -0.320127 0.700083 0.638281 0.846047 0.111075 77 159 221
-0.356870 0.323768 -0.303014 -0.320127 0.700083 0.638281 0.923024 0.000000 78 160 221
-0.043600 0.629759 -0.481513 -0.320127 0.700083 0.638281 1.000000 0.111075 77 159 221
-1.286534 0.000000 0.178499 -0.000000 -1.000000 -0.000000 0.621326 0.825566 255 255 255
-0.659994 0.000000 -0.178499 -0.000000 -1.000000 -0.000000 0.775279 0.603416 255 255 255
-0.928984 0.000000 0.357826 -0.000000 -1.000000 -0.000000 0.775279 0.825566 255 255 255
-0.973264 1.000000 -0.000000 0.320127 0.700083 -0.638281 0.891713 0.481324 77 159 221
-0.659994 0.694010 -0.178499 0.320127 0.700083 -0.638281 0.968689 0.592398 133 133 133
-0.838768 0.694010 -0.268162 0.320127 0.700083 -0.638281 0.891713 0.592398 132 134 135
-1.286534 0.694010 0.178499 -0.893874 0.000000 -0.448318 0.000000 0.483541 99 171 225
-1.017543 0.694010 -0.357826 -0.893874 0.000000 -0.448318 0.190868 0.483541 133 133 133
-1.017544 0.000000 -0.357826 -0.893874 0.000000 -0.448318 0.190868 0.740498 133 133 133
-0.838768 0.694010 -0.268162 0.448318 0.000000 -0.893874 0.215670 0.740498 132 134 135
-0.659994 0.694010 -0.178499 0.448318 0.000000 -0.893874 0.277387 0.740498 133 133 133
-0.659994 0.000000 -0.178499 0.448318 0.000000 -0.893874 0.277387 0.997454 133 133 133
-0.659994 0.694010 -0.178499 0.893874 -0.000000 0.448317 0.461769 0.113293 84 163 222
-0.928984 0.694010 0.357826 0.893874 -0.000000 0.448317 0.655179 0.113293 77 159 221
-0.928984 0.000000 0.357826 0.893874 -0.000000 0.448317 0.655179 0.370249 134 132 130
-0.928984 0.000000 0.357826 -0.448318 0.000000 0.893874 0.303578 1.000000 133 133 133
-0.928984 0.694010 0.357826 -0.448318 0.000000 0.893874 0.303578 0.743044 79 160 221
-1.107759 0.694010 0.268162 -0.448318 0.000000 0.893874 0.363512 0.743044 87 165 223
-1.152039 1.000000 -0.089664 0.320127 0.700083 -0.638281 0.814736 0.481324 77 159 221
-1.017543 0.694010 -0.357826 0.320127 0.700083 -0.638281 0.814736 0.592398 133 133 133
-1.107759 0.694010 0.268162 -0.320127 0.700083 0.638281 0.891713 0.370249 87 165 223
-1.152039 1.000000 -0.089664 -0.320127 0.700083 0.638281 0.814736 0.481324 77 159 221
-1.286534 0.694010 0.178499 -0.320127 0.700083 0.638281 0.814736 0.370249 99 171 225
-0.928984 0.694010 0.357826 -0.320127 0.700083 0.638281 0.968689 0.370249 79 160 221
-0.973264 1.000000 -0.000000 -0.320127 0.700083 0.638281 0.891713 0.481324 77 159 221
0.332269 0.000000 0.870346 0.000000 -1.000000 0.000000 0.929232 0.603416 255 255 255
-0.332269 0.000000 0.590365 0.000000 -1.000000 0.000000 0.775279 0.825566 255 255 255
0.257018 0.000000 0.477489 0.000000 -1.000000 0.000000 0.775279 0.603416 255 255 255
-0.000000 1.000000 0.730356 -0.701312 0.700083 0.134334 0.384925 0.371495 133 133 133
-0.332269 0.694010 0.590365 -0.701312 0.700083 0.134334 0.457265 0.483631 133 133 133
-0.294643 0.694010 0.786794 -0.701312 0.700083 0.134334 0.380421 0.484877 133 133 133
0.332269 0.694010 0.870347 0.188126 0.000000 0.982145 0.461769 0.256956 255 255 255
-0.257018 0.694010 0.983222 0.188126 0.000000 0.982145 0.230908 0.256956 255 255 255
-0.257018 0.000000 0.983223 0.188126 0.000000 0.982145 0.230908 0.000000 133 133 133
-0.294643 0.694010 0.786794 -0.982145 0.000000 0.188126 0.380421 0.484877 133 133 133
-0.332269 0.694010 0.590365 -0.982145 0.000000 0.188126 0.457265 0.483631 133 133 133
-0.332269 0.000000 0.590365 -0.982145 0.000000 0.188126 0.461769 0.740550 133 133 133
-0.332269 0.694010 0.590365 -0.188126 -0.000000 -0.982145 0.000000 0.113293 133 133 133
0.257018 0.694010 0.477489 -0.188126 -0.000000 -0.982145 0.230908 0.113293 133 133 133
0.257018 0.000000 0.477489 -0.188126 -0.000000 -0.982145 0.230908 0.370249 135 134 133
0.257018 0.000000 0.477489 0.982145 0.000000 -0.188126 0.467859 0.743961 135 134 133
0.257018 0.694010 0.477489 0.982145 0.000000 -0.188126 0.461769 0.487071 133 133 133
0.294643 0.694010 0.673918 0.982145 0.000000 -0.188126 0.538503 0.485388 133 133 133
-0.257018 0.694010 0.983222 -0.701312 0.700083 0.134334 0.303578 0.486124 132 133 134
0.037625 1.000000 0.926785 -0.701312 0.700083 0.134334 0.308082 0.372742 133 133 133
0.294643 0.694010 0.673918 0.701312 0.700083 -0.134334 0.538503 0.485388 133 133 133
0.037625 1.000000 0.926785 0.701312 0.700083 -0.134334 0.621326 0.370249 133 133 133
0.332269 0.694010 0.870347 0.701312 0.700083 -0.134334 0.615236 0.483704 133 133 133
0.257018 0.694010 0.477489 0.701312 0.700083 -0.134334 0.461769 0.487071 133 133 133
-0.000000 1.000000 0.730356 0.701312 0.700083 -0.134334 0.544592 0.371932 118 141 156
0.434873 0.100000 0.156775 -0.951778 0.000000 0.306786 0.406316 0.875156 170 119 22
0.472945 0.100000 0.144503 -0.306786 0.000000 -0.951779 0.386061 0.811514 170 119 22
0.485216 0.100000 0.182574 0.951778 0.000000 -0.306786 0.353982 0.808001 170 119 22
0.472945 0.000000 0.144503 -0.000000 -1.000000 0.000000 0.406671 0.544065 255 255 255
0.485216 0.100000 0.182574 0.000000 1.000000 -0.000000 0.353982 0.808001 170 119 22
0.457936 0.016909 0.191367 0.306786 -0.000000 0.951779 0.431850 0.546719 170 119 22
0.447145 0.000000 0.194846 0.306786 -0.000000 0.951779 0.440824 0.521716 170 119 22
0.485216 0.000000 0.182574 0.306786 -0.000000 0.951779 0.382993 0.544062 170 119 22
0.447145 0.100000 0.194846 0.306786 -0.000000 0.951779 0.428421 0.843551 170 119 22
0.457936 0.097032 0.191367 0.306785 0.000000 0.951779 0.431850 0.831002 170 119 22
0.523370 0.016909 0.337901 0.000000 -1.000000 -0.000000 0.117603 0.207401 255 255 255
0.457936 0.043616 0.191367 0.306786 -0.000000 0.951779 0.203950 0.258824 170 119 22
0.506881 0.070324 0.343215 -0.951779 0.000000 0.306786 0.435156 0.216498 170 119 22
0.506881 0.016909 0.343215 0.306786 -0.000000 0.951779 0.116665 0.206679 255 255 255
0.506881 0.070324 0.343215 0.306786 -0.000000 0.951779 0.435156 0.216498 255 255 255
0.523370 0.097032 0.337901 0.951778 0.000000 -0.306786 0.434879 0.217970 170 119 22
0.523370 0.070324 0.337901 0.000000 -1.000000 -0.000000 0.436032 0.217206 255 255 255
0.506881 0.097032 0.343215 0.000000 1.000000 0.000000 0.433940 0.217262 170 119 22
0.523370 0.043616 0.337901 0.951779 0.000000 -0.306786 0.116371 0.208157 170 119 22
0.506881 0.016909 0.343215 -0.951778 0.000000 0.306786 0.116665 0.206679 170 119 22
0.506881 0.043616 0.343215 0.000000 1.000000 0.000000 0.115497 0.207435 170 119 22
0.545084 0.100000 0.368308 0.951778 0.000000 -0.306786 0.942926 0.640868 170 119 22
0.507012 0.100000 0.380580 0.306786 -0.000000 0.951778 0.924350 0.692053 170 119 22
0.494741 0.100000 0.342509 -0.951778 0.000000 0.306786 0.895975 0.663954 170 119 22
0.507012 0.000000 0.380580 0.000000 -1.000000 0.000000 0.903088 0.409091 255 255 255
0.532812 0.100000 0.330237 -0.000000 1.000000 0.000000 0.969862 0.637969 170 119 22
0.522021 0.016909 0.333716 -0.306786 0.000002 -0.951778 0.960035 0.393757 170 119 22
0.532812 0.000000 0.330237 -0.306786 0.000002 -0.951778 0.957552 0.397729 170 119 22
0.494741 0.000000 0.342509 -0.306786 0.000002 -0.951778 0.881313 0.327028 170 119 22
0.494741 0.000000 0.342509 -0.306789 -0.000000 -0.951778 0.881313 0.327028 170 119 22
0.505532 0.097032 0.339030 -0.306786 0.000010 -0.951778 0.894638 0.653572 170 119 22
0.494741 0.100000 0.342509 -0.306786 0.000010 -0.951778 0.895975 0.663954 170 119 22
0.532812 0.100000 0.330237 -0.306786 0.000010 -0.951778 0.969862 0.637969 170 119 22
0.522021 0.097032 0.333716 -0.306789 -0.000000 -0.951778 0.970736 0.636286 170 119 22
0.522021 0.043616 0.333716 0.306783 0.000000 0.951779 0.580598 0.156124 170 119 22
0.232333 0.100000 0.006499 -0.525700 0.000000 0.850670 0.261979 0.767892 170 119 22
0.253361 0.100000 -0.027527 -0.850670 0.000000 -0.525700 0.230546 0.744677 170 119 22
0.253361 0.000000 -0.027527 -0.850670 0.000000 -0.525700 0.248228 0.566033 170 119 22
0.287388 0.100000 -0.006499 0.525700 0.000000 -0.850670 0.195230 0.765247 170 119 22
0.253361 0.000000 -0.027527 -0.000000 -1.000000 0.000000 0.248228 0.566033 255 255 255
0.266360 0.100000 0.027527 0.000000 1.000000 0.000000 0.279795 0.840816 170 119 22
0.266360 0.000000 0.027527 0.850670 0.000001 0.525700 0.295454 0.484800 170 119 22
0.287388 0.000000 -0.006499 0.850669 0.000000 0.525702 0.226042 0.540137 170 119 22
0.272320 0.097032 0.017883 0.850670 -0.000008 0.525700 0.279489 0.821174 170 119 22
0.281428 0.097032 0.003145 0.850670 -0.000008 0.525700 0.197008 0.771547 170 119 22
0.287388 0.100000 -0.006499 0.850670 -0.000008 0.525700 0.195230 0.765247 170 119 22
0.272320 0.097032 0.017883 0.850671 0.000000 0.525699 0.279489 0.821174 170 119 22
0.417145 0.016909 0.087016 0.000000 -1.000000 -0.000000 0.837550 0.062161 255 255 255
0.272320 0.043616 0.017883 0.850670 -0.000000 0.525700 0.820935 0.045576 170 119 22
0.408037 0.070324 0.101753 -0.525700 0.000000 0.850670 0.054453 0.037786 170 119 22
0.408037 0.016909 0.101753 0.850670 -0.000000 0.525699 0.837009 0.062520 255 255 255
0.408037 0.070324 0.101753 0.850670 -0.000000 0.525699 0.054453 0.037786 255 255 255
0.417145 0.097032 0.087016 0.525700 0.000000 -0.850670 0.048506 0.044183 170 119 22
0.417145 0.070324 0.087016 0.000000 -1.000000 -0.000000 0.060667 0.031449 255 255 255
0.408037 0.097032 0.101753 0.000000 1.000000 0.000000 0.029264 0.029264 170 119 22
0.417145 0.043616 0.087016 0.525700 0.000000 -0.850670 0.835790 0.062902 170 119 22
0.408037 0.016909 0.101753 -0.525700 0.000000 0.850670 0.837009 0.062520 170 119 22
0.408037 0.043616 0.101753 0.000000 1.000000 0.000000 0.835755 0.062671 170 119 22
0.453391 0.100000 0.096088 0.525700 0.000000 -0.850670 0.073219 0.774625 170 119 22
0.432363 0.100000 0.130115 0.850670 -0.000000 0.525699 0.034693 0.824747 170 119 22
0.398337 0.100000 0.109087 -0.525700 0.000000 0.850670 0.029264 0.801651 170 119 22
0.432363 0.000000 0.130115 0.000000 -1.000000 0.000000 0.075229 0.581984 255 255 255
0.419365 0.100000 0.075060 -0.000000 1.000000 0.000000 0.110163 0.776822 170 119 22
0.413404 0.097032 0.084705 -0.850670 -0.000000 -0.525700 0.112260 0.775308 170 119 22
0.413404 0.043616 0.084705 -0.850670 0.000000 -0.525700 0.499352 0.576655 170 119 22
-0.020000 0.100000 0.020000 -0.000000 0.000000 1.000000 0.789408 0.665512 170 119 22
-0.020000 0.100000 -0.020000 -1.000000 0.000000 0.000001 0.767142 0.731189 170 119 22
0.020000 0.100000 -0.020000 0.000000 0.000000 -1.000000 0.744934 0.698641 170 119 22
-0.020000 0.000000 -0.020000 -0.000000 -1.000000 0.000000 0.752600 0.327028 255 255 255
0.020000 0.100000 0.020000 0.000000 1.000000 -0.000000 0.822786 0.662180 170 119 22
0.179541 0.016909 -0.008662 -0.000000 -1.000000 -0.000000 0.434475 0.374591 255 255 255
0.020000 0.043616 0.008662 1.000000 0.000000 0.000000 0.348571 0.329632 170 119 22
0.179541 0.070324 0.008662 0.000000 0.000000 1.000000 0.117512 0.377164 170 119 22
0.179541 0.016909 0.008662 1.000000 0.000000 0.000000 0.435832 0.375150 255 255 255
0.179541 0.070324 0.008662 1.000000 0.000000 0.000000 0.117512 0.377164 255 255 255
0.179541 0.097032 -0.008662 0.000000 0.000000 -1.000000 0.117425 0.375843 170 119 22
0.179541 0.070324 -0.008662 -0.000000 -1.000000 -0.000000 0.116235 0.376544 255 255 255
0.020000 0.097032 0.008662 0.000000 1.000000 0.000000 0.032111 0.327028 170 119 22
0.179541 0.043616 -0.008662 0.000000 0.000000 -1.000000 0.435757 0.373786 170 119 22
0.179541 0.016909 0.008662 0.000000 0.000000 1.000000 0.435832 0.375150 170 119 22
0.020000 0.043616 0.008662 0.000000 1.000000 0.000000 0.348571 0.329632 170 119 22
0.215144 0.100000 -0.020000 -0.000001 0.000000 -1.000000 0.641986 0.585833 170 119 22
0.215144 0.100000 0.020000 1.000000 0.000000 -0.000001 0.607967 0.611001 170 119 22
0.175144 0.100000 0.020000 0.000000 -0.000000 1.000000 0.587212 0.699923 170 119 22
0.215144 0.000000 0.020000 0.000000 -1.000000 -0.000000 0.606647 0.327028 255 255 255
0.175144 0.100000 0.020000 0.000000 1.000000 0.000000 0.587212 0.699923 170 119 22
0.175144 0.016909 0.008662 -1.000000 0.000003 -0.000002 0.589945 0.384312 255 255 255
0.175144 0.016909 -0.008662 -1.000000 0.000003 -0.000002 0.642514 0.390517 255 255 255
0.175144 0.000000 -0.020000 -1.000000 0.000003 -0.000002 0.640076 0.373855 255 255 255
0.175144 0.000000 0.020000 -1.000000 0.000000 0.000003 0.584524 0.360260 170 119 22
0.175144 0.097032 0.008662 -1.000000 0.000007 0.000001 0.589945 0.678266 170 119 22
0.175144 0.100000 0.020000 -1.000000 0.000007 0.000001 0.587212 0.699923 170 119 22
0.175144 0.100000 -0.020000 -1.000000 0.000007 0.000001 0.679832 0.611792 170 119 22
0.175144 0.097032 -0.008662 -1.000000 0.000000 0.000003 0.677119 0.619624 170 119 22
0.175144 0.043616 -0.008662 -1.000000 0.000000 -0.000002 0.499352 0.484800 170 119 22
-0.266654 0.000000 -0.929002 -0.000000 -1.000000 0.000000 0.153953 0.962647 255 255 255
-0.222375 0.629759 -0.571176 0.320127 0.700083 -0.638281 0.923024 0.111075 133 133 133
-0.043600 0.629759 -0.481513 0.320127 0.700083 -0.638281 1.000000 0.111075 133 133 133
0.090895 0.323768 -0.749675 0.320127 0.700083 -0.638281 1.000000 0.222149 115 179 228
-0.266654 0.000000 -0.929002 -0.893874 -0.000000 -0.448317 0.846047 0.233167 133 133 133
-0.535645 0.000000 -0.392677 -0.893874 -0.000000 -0.448317 0.655179 0.233167 133 133 133
-0.535645 0.323768 -0.392678 -0.893874 -0.000000 -0.448317 0.655179 0.113293 133 133 133
-0.401150 0.629759 -0.660840 -0.893874 -0.000000 -0.448318 0.750613 0.000000 255 255 255
0.090895 0.000000 -0.749675 0.448317 -0.000000 -0.893874 0.778614 0.353042 133 133 133
-0.266654 0.000000 -0.929002 0.448317 -0.000000 -0.893874 0.655179 0.353042 133 133 133
-0.087879 0.323768 -0.839339 0.448317 -0.000000 -0.893874 0.716897 0.233167 79 160 221
-0.266654 0.000000 -0.929002 0.448319 -0.000001 -0.893874 0.655179 0.353042 133 133 133
-0.266654 0.323768 -0.929002 0.448319 -0.000001 -0.893874 0.655179 0.233167 77 159 221
-0.087879 0.323768 -0.839339 0.448319 -0.000001 -0.893874 0.716897 0.233167 79 160 221
0.090895 0.000000 -0.749675 0.893874 -0.000000 0.448317 0.621326 0.603416 133 133 133
-0.043600 0.629759 -0.481513 0.893874 0.000000 0.448317 0.718031 0.370249 133 133 133
-0.356870 0.323768 -0.303014 -0.448318 0.000001 0.893874 0.521704 0.743961 255 255 255
-0.535645 0.323768 -0.392678 -0.448318 0.000001 0.893874 0.581638 0.743961 255 255 255
-0.535645 0.000000 -0.392677 -0.448318 0.000001 0.893874 0.581638 0.863836 133 133 133
-0.535645 0.000000 -0.392677 -0.448317 0.000000 0.893874 0.581638 0.863836 133 133 133
-0.178095 0.000000 -0.213350 -0.448317 0.000000 0.893874 0.461769 0.863836 140 140 140
-0.356870 0.323768 -0.303014 -0.448317 0.000000 0.893874 0.521704 0.743961 255 255 255
-0.178095 0.323768 -0.213351 -0.320127 0.700083 0.638281 1.000000 0.000000 129 187 231
-1.017544 0.000000 -0.357826 -0.000000 -1.000000 0.000000 0.621326 0.603416 255 255 255
-0.794489 1.000000 0.089664 0.320127 0.700083 -0.638281 0.968689 0.481323 77 159 221
-1.286534 0.000000 0.178499 -0.893874 0.000000 -0.448318 0.000000 0.740498 140 130 111
-1.286534 0.694010 0.178499 -0.893874 0.000000 -0.448317 0.000000 0.483541 99 171 225
-1.152039 1.000000 -0.089664 -0.893874 0.000000 -0.448317 0.095434 0.370249 77 159 221
-1.017543 0.694010 -0.357826 -0.893874 0.000000 -0.448317 0.190868 0.483541 133 133 133
-0.659994 0.000000 -0.178499 0.448317 -0.000000 -0.893874 0.277387 0.997454 133 133 133
-1.017544 0.000000 -0.357826 0.448317 -0.000000 -0.893874 0.153953 0.997454 133 133 133
-0.838768 0.694010 -0.268162 0.448317 -0.000000 -0.893874 0.215670 0.740498 132 134 135
-1.017544 0.000000 -0.357826 0.448318 -0.000000 -0.893874 0.153953 0.997454 133 133 133
-1.017543 0.694010 -0.357826 0.448318 -0.000000 -0.893874 0.153953 0.740498 133 133 133
-0.659994 0.000000 -0.178499 0.893874 -0.000000 0.448317 0.461769 0.370249 133 133 133
-0.794489 1.000000 0.089664 0.893874 0.000000 0.448317 0.558474 0.000000 77 159 221
-1.286534 0.694010 0.178499 -0.448318 0.000000 0.893874 0.423447 0.743044 99 171 225
-1.286534 0.000000 0.178499 -0.448318 0.000000 0.893874 0.423447 1.000000 140 130 111
-1.286534 0.000000 0.178499 -0.448317 0.000000 0.893874 0.423447 1.000000 140 130 111
-0.928984 0.000000 0.357826 -0.448317 0.000000 0.893874 0.303578 1.000000 133 133 133
-1.107759 0.694010 0.268162 -0.448317 0.000000 0.893874 0.363512 0.743044 87 165 223
-0.794489 1.000000 0.089664 -0.320127 0.700083 0.638281 0.968689 0.481323 79 160 221
-0.257018 0.000000 0.983223 0.000000 -1.000000 0.000000 0.929232 0.825566 255 255 255
-0.037625 1.000000 0.533927 -0.701312 0.700083 0.134334 0.461769 0.370249 133 133 133
-0.257018 0.000000 0.983223 0.188127 -0.000000 0.982145 0.230908 0.000000 133 133 133
0.332269 0.000000 0.870346 0.188127 -0.000000 0.982145 0.461769 0.000000 133 133 133
0.332269 0.694010 0.870347 0.188127 -0.000000 0.982145 0.461769 0.256956 255 255 255
0.037625 1.000000 0.926785 0.188126 0.000000 0.982145 0.346338 0.370249 255 255 255
-0.332269 0.000000 0.590365 -0.982145 -0.000000 0.188127 0.461769 0.740550 133 133 133
-0.257018 0.000000 0.983223 -0.982145 -0.000000 0.188127 0.308082 0.743044 133 133 133
-0.294643 0.694010 0.786794 -0.982145 -0.000000 0.188127 0.380421 0.484877 133 133 133
-0.257018 0.000000 0.983223 -0.982145 -0.000000 0.188126 0.308082 0.743044 139 130 115
-0.257018 0.694010 0.983222 -0.982145 -0.000000 0.188126 0.303578 0.486124 132 133 134
0.257018 0.000000 0.477489 -0.188127 -0.000000 -0.982145 0.230908 0.370249 135 134 133
-0.332269 0.000000 0.590365 -0.188127 -0.000000 -0.982145 0.000000 0.370249 133 133 133
-0.332269 0.694010 0.590365 -0.188127 -0.000000 -0.982145 0.000000 0.113293 133 133 133
-0.037625 1.000000 0.533927 -0.188127 0.000000 -0.982145 0.115454 0.000000 133 133 133
0.257018 0.694010 0.477489 -0.188127 0.000000 -0.982145 0.230908 0.113293 133 133 133
0.332269 0.694010 0.870347 0.982145 0.000000 -0.188126 0.615236 0.483704 133 133 133
0.332269 0.000000 0.870346 0.982145 0.000000 -0.188126 0.621326 0.740594 133 133 133
-0.037625 1.000000 0.533927 0.701312 0.700083 -0.134334 0.467859 0.373616 133 133 133
3 0 1 2
3 3 4 5
3 6 7 8
3 9 10 11
3 12 13 14
3 15 16 17
3 18 19 20
3 21 22 23
3 24 25 26
3 27 28 29
3 30 31 32
3 33 34 35
3 36 37 38
3 39 40 41
3 42 43 44
3 45 46 47
3 48 49 50
3 51 52 53
3 54 55 56
3 57 58 59
3 60 61 62
3 63 64 65
3 66 67 68
3 69 70 71
3 72 73 74
3 75 76 77
3 78 79 80
3 81 82 83
3 84 85 86
3 87 88 89
3 90 91 92
3 93 94 95
3 96 97 98
3 99 100 101
3 102 103 104
3 105 106 107
3 108 109 110
3 111 112 113
3 114 115 116
3 117 118 119
3 120 121 122
3 123 124 125
3 126 127 128
3 129 130 131
3 132 133 134
3 135 136 137
3 138 139 140
3 141 142 143
3 144 145 146
3 147 148 149
3 150 151 152
3 153 154 155
3 156 157 158
3 159 160 161
3 162 163 164
3 165 166 167
3 167 168 169
3 170 171 172
3 165 173 174
3 175 176 177
3 178 179 180
3 181 182 183
3 184 185 186
3 187 188 189
3 190 191 192
3 193 194 195
3 195 196 197
3 198 196 199
3 193 199 200
3 201 202 203
3 204 205 206
3 207 208 209
3 210 211 212
3 213 214 215
3 216 217 218
3 219 220 221
3 222 223 224
3 225 226 227
3 228 229 230
3 231 232 233
3 234 235 236
3 237 238 239
3 240 241 242
3 243 244 245
3 246 247 248
3 249 250 251
3 252 253 254
3 255 256 257
3 258 259 260
3 261 262 263
3 264 265 266
3 267 268 269
3 270 271 272
3 273 274 275
3 276 277 278
3 279 280 281
3 282 283 284
3 285 286 287
3 288 289 286
3 290 291 292
3 293 294 295
3 296 297 298
3 299 300 301
3 302 303 304
3 305 306 307
3 308 295 309
3 310 311 312
3 313 314 310
3 315 316 317
3 318 319 320
3 321 322 323
3 324 325 326
3 327 328 329
3 330 331 332
3 318 333 334
3 335 336 337
3 338 339 335
3 0 340 1
3 3 341 4
3 6 342 7
3 9 343 10
3 12 344 13
3 345 346 347
3 18 347 19
3 20 19 348
3 24 349 25
3 27 350 28
3 30 351 31
3 33 352 34
3 36 353 37
3 39 354 40
3 42 355 43
3 45 356 46
3 48 357 49
3 51 358 52
3 54 359 55
3 57 360 58
3 60 361 61
3 63 362 64
3 66 363 67
3 69 364 70
3 72 365 73
3 366 367 368
3 78 369 79
3 370 371 372
3 84 373 85
3 87 89 374
3 90 375 91
3 93 376 377
3 96 378 97
3 99 379 100
3 102 380 103
3 105 381 106
3 108 382 109
3 383 384 385
3 114 386 115
3 117 387 118
3 120 388 121
3 123 389 124
3 126 390 127
3 129 391 130
3 132 392 133
3 135 393 136
3 138 394 139
3 141 395 142
3 144 396 145
3 147 397 148
3 150 398 151
3 153 399 154
3 156 400 157
3 159 401 160
3 162 402 163
3 165 174 166
3 167 166 168
3 169 168 173
3 165 403 173
3 175 404 176
3 178 405 179
3 181 406 182
3 184 407 185
3 187 408 188
3 190 409 191
3 193 200 194
3 195 194 196
3 198 197 196
3 193 198 199
3 201 410 202
3 204 411 205
3 207 412 208
3 210 413 211
3 213 414 214
3 216 415 217
3 219 416 220
3 222 417 223
3 225 418 226
3 228 419 229
3 231 420 232
3 234 421 235
3 237 422 238
3 240 423 241
3 243 424 244
3 246 425 247
3 426 427 428
3 252 429 253
3 430 431 432
3 258 433 259
3 261 434 262
3 264 435 265
3 436 437 438
3 439 440 441
3 270 442 271
3 443 444 445
3 446 447 448
3 278 449 276
3 276 450 277
3 451 452 453
3 454 455 456
3 282 436 283
3 285 288 286
3 288 457 289
3 290 458 291
3 293 459 294
3 298 460 296
3 461 462 463
3 464 465 466
3 467 468 299
3 304 469 302
3 302 470 303
3 307 471 472
3 473 474 475
3 308 293 295
3 310 314 311
3 313 476 314
3 315 477 316
3 318 478 319
3 479 480 481
3 321 482 322
3 483 484 485
3 486 487 324
3 488 489 490
3 490 491 492
3 332 493 494
3 494 330 332
3 318 320 333
3 335 339 336
3 338 495 339
